{"glyphs":{"0":{"ha":744,"x_min":0,"x_max":0,"o":"m 415 17 b 551 40 465 17 510 25 b 664 110 592 56 628 79 b 851 383 731 168 790 256 b 951 758 924 528 953 640 b 938 849 951 793 946 824 b 897 907 928 872 915 892 b 729 956 861 939 804 956 b 463 856 621 956 536 924 b 367 736 429 825 397 786 b 278 575 339 693 310 642 b 178 239 211 439 178 326 b 239 64 178 157 197 100 b 415 17 276 32 335 17 z m 165 310 l 175 310 b 197 406 179 339 188 371 l 188 406 b 165 310 178 371 169 339 z m 203 244 b 226 381 203 293 211 331 b 286 332 229 381 225 332 b 424 407 369 332 418 407 b 382 269 400 360 385 311 b 317 304 378 269 363 304 b 228 203 261 304 228 261 b 408 60 228 110 285 60 b 643 135 549 60 621 133 b 404 42 585 74 500 42 b 203 244 274 42 200 90 z m 206 457 l 215 457 b 235 507 221 474 228 489 l 225 507 b 206 457 218 489 211 474 z m 246 554 l 256 554 l 268 581 b 333 703 290 625 311 665 l 322 703 b 260 585 301 667 281 628 b 246 554 254 575 250 564 z m 286 532 b 357 661 315 586 340 633 b 597 750 429 683 515 718 b 524 647 583 742 554 699 b 485 658 518 653 501 658 b 286 532 358 658 293 532 z m 304 10 b 415 -3 336 1 374 -3 b 483 3 439 -3 461 -1 l 488 13 b 415 7 464 8 440 7 b 307 18 375 7 339 10 z m 399 729 b 500 846 432 781 465 818 b 732 931 564 900 639 931 b 564 856 732 928 567 893 b 586 842 564 846 572 842 b 817 918 644 842 797 906 b 882 886 833 913 861 906 b 399 729 756 868 525 797 z m 401 819 l 414 819 b 501 900 442 851 469 878 l 485 900 b 401 819 454 878 428 851 z m 410 251 b 496 513 410 285 419 344 b 603 717 540 611 575 676 b 672 767 628 751 649 767 b 719 717 701 767 719 747 b 633 456 719 683 710 624 b 526 251 589 357 554 292 b 457 201 501 217 481 201 b 410 251 429 201 410 222 z m 431 317 l 440 317 b 454 361 443 329 449 344 l 444 361 b 431 317 439 344 433 329 z m 519 10 l 546 18 l 550 29 l 524 21 z m 542 222 b 638 390 582 275 597 304 b 682 332 640 390 635 332 b 840 425 771 332 835 426 b 757 271 810 361 792 332 b 724 297 753 271 761 297 b 542 222 646 297 549 221 z m 583 394 l 593 394 b 624 460 603 414 613 436 b 642 499 631 474 636 486 l 631 499 b 615 464 626 488 621 476 b 583 394 604 438 593 415 z m 642 525 l 653 525 l 678 588 l 667 588 z m 692 664 l 703 664 b 710 706 707 681 708 694 l 700 706 b 692 664 699 696 697 682 z m 703 786 b 900 849 761 794 874 831 b 918 739 913 833 924 792 b 879 781 914 739 913 781 b 744 672 792 781 749 672 b 703 786 753 714 761 779 z m 939 872 b 954 828 946 858 950 844 l 964 828 b 949 872 960 844 956 860 z "},"1":{"ha":389,"x_min":0,"x_max":0,"o":"m 78 31 l 311 31 l 726 942 l 592 942 l 349 758 l 392 718 z m 121 57 l 274 390 b 315 331 276 390 264 331 b 451 403 375 331 446 403 l 392 278 b 358 304 388 278 396 304 b 169 108 272 304 169 172 b 288 57 169 53 288 86 z m 139 213 l 150 213 l 208 339 l 197 339 z m 163 11 l 285 11 l 290 21 l 168 21 z m 236 425 l 247 425 l 265 464 l 254 464 z m 321 611 l 332 611 l 358 669 l 347 669 z m 347 549 l 419 701 b 618 769 479 717 551 742 l 575 675 b 540 686 572 675 568 686 b 347 549 433 686 354 550 z m 408 761 l 611 913 b 590 863 606 901 590 883 b 606 853 590 857 596 853 b 661 865 621 853 640 858 l 644 833 b 419 751 597 824 474 782 z m 450 860 l 467 860 l 521 900 l 504 900 z "},"2":{"ha":692,"x_min":0,"x_max":0,"o":"m 54 31 l 651 31 l 747 242 l 353 242 b 386 294 358 264 369 281 b 564 357 418 321 532 347 b 928 768 771 418 918 557 b 886 897 929 824 915 867 b 706 956 850 935 788 956 b 460 869 606 956 525 928 b 368 751 425 839 394 799 b 308 610 346 710 325 664 l 529 610 b 574 713 544 657 558 689 b 606 751 583 729 594 742 b 650 767 619 761 635 767 b 693 749 672 767 686 757 b 706 708 701 738 706 725 b 644 567 706 671 679 601 b 471 497 601 525 538 513 b 408 483 450 493 429 489 b 125 211 261 440 189 353 b 54 31 100 156 72 81 z m 101 57 b 265 378 158 244 206 317 b 292 333 268 378 243 333 b 585 394 367 333 511 394 b 599 392 592 394 597 393 b 508 368 569 383 538 375 b 336 278 393 338 353 310 b 292 288 333 276 325 288 b 146 115 214 288 146 199 b 215 74 146 85 158 74 l 478 74 b 617 57 529 74 607 71 z m 104 213 l 114 213 b 115 215 114 213 115 214 l 149 285 l 139 285 b 107 219 128 264 117 242 b 104 213 106 217 104 214 z m 243 419 l 250 413 b 274 431 257 419 265 425 l 268 439 z m 278 11 l 329 11 l 333 21 l 282 21 z m 308 667 l 318 667 b 344 729 326 689 335 710 l 335 729 b 308 667 325 710 317 689 z m 349 642 l 358 667 b 558 744 431 689 485 713 b 518 664 546 728 529 700 b 490 675 518 664 511 675 b 390 642 472 675 422 654 z m 357 589 l 513 589 l 515 599 l 361 599 z m 376 11 l 601 11 l 606 21 l 381 21 z m 379 808 l 390 808 b 479 900 417 846 446 876 l 464 900 b 379 808 433 876 406 846 z m 386 729 b 479 846 419 781 444 818 b 711 931 543 900 618 931 b 544 853 711 928 544 892 b 565 842 544 844 554 842 b 796 918 624 843 776 906 b 856 886 814 913 835 904 b 386 729 729 868 511 800 z m 481 519 l 485 511 b 549 528 507 515 529 521 l 543 535 b 481 519 524 529 501 524 z m 622 365 l 628 357 l 669 374 l 664 382 z m 661 624 l 671 624 b 696 706 686 654 694 686 l 686 706 b 661 624 685 686 675 653 z m 685 785 b 882 849 743 796 856 831 b 900 742 894 833 906 794 b 863 779 896 742 896 779 b 726 671 769 778 731 671 b 685 785 735 713 743 778 z m 919 868 b 935 822 926 854 931 839 l 946 822 b 931 868 942 839 938 854 z "},"3":{"ha":624,"x_min":0,"x_max":0,"o":"m 278 17 b 714 353 569 17 714 143 b 615 503 714 421 682 471 b 892 803 778 572 892 661 b 658 956 892 908 838 956 b 450 922 582 956 494 938 l 354 711 b 526 729 410 722 469 729 b 615 665 597 729 618 694 b 378 569 611 603 544 569 l 308 569 l 233 406 l 361 407 b 500 332 444 408 503 394 b 342 240 499 276 449 240 b 158 269 267 240 215 250 l 61 58 b 278 17 128 33 199 17 z m 93 74 l 171 236 l 217 225 b 139 121 163 186 139 142 b 297 58 139 82 181 58 b 619 157 514 58 583 151 b 286 40 524 61 392 40 b 93 74 219 40 133 56 z m 161 10 b 278 -3 199 3 239 -3 b 433 13 335 -3 386 3 l 438 22 b 278 7 390 13 336 7 b 165 19 240 7 201 11 z m 225 436 l 235 436 l 249 464 l 238 464 z m 249 485 l 260 485 l 290 553 l 279 553 z m 267 386 l 361 388 l 393 388 l 397 397 l 361 397 l 269 396 z m 378 811 l 389 811 l 429 900 l 418 900 z m 400 749 l 469 897 b 669 929 542 917 608 929 b 485 839 669 924 485 890 b 510 828 485 831 494 828 b 774 914 572 828 739 886 b 844 872 804 906 828 890 b 400 749 719 857 517 796 z m 424 703 b 526 710 457 707 492 710 l 536 710 l 540 719 l 526 719 b 428 714 493 719 461 717 z m 431 225 b 528 328 504 249 526 290 b 525 369 528 340 528 358 b 578 335 531 369 542 335 b 679 390 649 335 675 390 b 686 340 685 372 686 356 b 678 281 686 313 681 285 b 646 296 672 289 668 296 b 431 225 579 296 499 218 z m 479 319 l 490 319 b 492 333 492 324 492 329 b 490 347 492 338 492 343 l 479 347 b 481 333 481 343 481 339 b 479 319 481 329 481 324 z m 574 754 b 858 836 657 768 824 814 b 856 739 867 810 864 760 b 819 771 853 739 857 771 b 649 656 724 771 667 678 b 650 672 649 656 650 667 b 574 754 650 722 622 744 z m 592 647 l 603 647 b 607 667 606 653 607 660 b 606 681 607 671 607 676 l 593 681 b 596 667 596 676 596 672 b 592 647 596 660 594 653 z m 685 463 b 703 442 692 456 697 449 l 714 442 b 699 463 710 449 704 456 z m 890 872 b 901 815 897 854 900 836 l 913 815 b 901 872 911 836 908 854 z "},"4":{"ha":700,"x_min":0,"x_max":0,"o":"m 397 31 l 631 31 l 1046 942 l 813 942 l 582 435 l 426 432 l 708 942 l 481 942 l 147 271 l 507 271 z m 125 272 l 136 272 l 196 394 l 186 394 z m 197 301 l 229 371 b 357 318 233 371 217 318 l 524 318 b 785 442 713 318 772 442 l 710 278 b 676 304 706 278 714 304 b 492 107 589 304 492 171 b 607 57 492 49 607 90 l 443 57 l 525 240 b 494 301 551 300 532 301 z m 231 251 l 369 251 l 375 261 l 238 261 z m 268 558 l 278 558 l 299 599 l 289 599 z m 311 549 l 389 701 b 586 769 450 717 518 742 l 535 675 b 504 686 532 675 532 686 b 311 549 403 686 318 549 z m 342 706 l 351 706 l 379 761 l 369 761 z m 397 251 l 444 251 l 450 261 l 403 261 z m 404 832 l 414 832 l 457 917 l 446 917 z m 411 107 l 422 107 l 475 224 l 464 224 z m 417 11 l 608 11 l 614 21 l 419 21 z m 417 758 l 493 915 l 600 915 b 488 846 599 911 489 886 b 658 904 486 804 608 863 l 614 829 b 417 758 565 819 469 785 z m 479 508 l 490 508 l 518 558 l 507 558 z m 657 644 l 667 644 l 725 774 l 715 774 z m 713 656 l 772 781 b 975 851 840 797 911 825 l 913 717 b 879 758 908 717 918 758 b 713 656 793 758 722 656 z m 761 876 l 772 876 l 793 921 l 782 921 z m 797 840 l 832 915 l 1000 915 l 997 908 b 797 840 944 894 867 871 z "},"5":{"ha":625,"x_min":0,"x_max":0,"o":"m 274 17 b 736 433 574 17 739 232 b 542 581 735 556 639 578 l 496 582 l 561 731 l 863 731 l 958 942 l 453 942 l 224 425 l 365 425 b 499 343 450 425 499 419 b 338 240 499 263 415 240 b 157 268 258 240 210 250 l 60 56 b 274 17 115 33 197 17 z m 96 76 l 172 238 l 200 229 b 150 135 179 214 150 168 b 290 60 150 79 186 60 b 563 135 456 60 539 135 b 289 42 503 79 393 42 b 96 76 218 42 164 49 z m 165 7 b 218 0 182 4 200 1 l 222 10 b 169 15 204 11 186 13 z m 224 474 l 235 474 l 265 544 l 254 544 z m 249 -3 l 274 -3 b 428 18 329 -3 382 4 l 432 28 b 274 7 383 14 332 7 l 254 7 z m 267 406 l 365 406 l 388 406 l 393 415 l 365 415 l 272 415 z m 274 217 b 356 213 310 214 331 213 b 525 329 472 213 525 261 b 511 383 525 342 524 361 b 582 332 528 383 536 332 b 708 435 675 332 703 435 b 671 276 708 389 694 322 b 633 304 668 276 671 304 b 382 200 553 304 518 200 b 274 217 326 200 274 211 z m 313 571 l 371 690 b 532 740 418 703 469 721 l 506 683 b 313 571 386 679 319 571 z m 321 693 l 332 693 l 356 744 l 344 744 z m 372 807 l 383 807 l 435 922 l 424 922 z m 394 749 b 472 915 432 819 472 915 l 661 917 b 469 832 661 913 469 883 b 490 822 469 825 476 822 b 788 915 551 822 732 881 l 913 915 l 903 894 b 394 749 797 879 568 815 z m 531 635 l 542 635 l 563 685 l 551 685 z m 593 757 b 883 847 675 775 807 807 l 842 757 z m 613 711 l 671 711 l 675 721 l 617 721 z m 706 711 l 847 711 l 851 721 l 710 721 z "},"6":{"ha":690,"x_min":0,"x_max":0,"o":"m 415 17 b 783 304 617 17 700 121 b 833 490 810 363 831 429 b 724 625 839 572 810 625 b 560 539 671 625 600 589 l 518 542 b 747 743 551 656 629 743 b 893 711 804 743 856 728 l 982 913 b 771 956 922 940 843 956 b 261 542 478 956 371 813 b 183 214 207 411 183 310 b 415 17 183 74 275 17 z m 172 310 l 182 310 b 194 375 185 332 189 353 l 185 375 b 172 310 179 353 175 332 z m 207 454 l 217 454 b 231 494 221 468 226 481 l 221 494 b 207 454 217 481 211 468 z m 213 244 b 240 381 214 293 224 331 b 299 332 243 381 238 332 b 421 407 376 332 413 407 b 372 269 399 360 382 315 b 314 304 368 269 360 304 b 236 203 267 304 238 261 b 419 60 232 110 296 60 b 653 135 560 60 631 133 b 415 42 592 74 511 42 b 213 244 285 42 204 90 z m 274 624 l 283 624 b 382 794 315 690 346 747 l 371 794 b 274 624 335 746 304 689 z m 281 514 b 342 647 296 553 329 622 b 614 733 394 661 515 701 b 510 601 558 696 528 647 b 461 640 506 601 511 640 b 281 514 346 640 288 514 z m 306 11 b 349 1 319 7 333 4 l 353 11 b 310 19 338 13 322 15 z m 382 -1 b 415 -3 393 -3 404 -3 b 546 14 464 -3 507 1 l 549 25 b 415 7 510 11 465 7 b 386 8 406 7 396 7 z m 382 715 b 743 932 464 854 599 932 b 768 931 753 932 761 932 b 538 828 722 922 538 881 b 557 815 538 819 544 815 b 860 919 624 815 832 908 b 943 896 878 915 894 911 b 382 715 757 850 536 781 z m 397 242 b 454 415 397 260 404 293 l 493 510 l 526 510 b 576 486 556 510 571 494 b 547 304 600 451 583 394 b 447 190 518 236 492 190 b 411 204 429 190 417 199 b 397 242 404 211 397 224 z m 404 835 l 417 835 b 494 899 440 860 467 881 l 478 899 b 404 835 451 881 426 860 z m 408 253 l 418 253 b 428 290 419 263 424 275 l 418 290 b 408 253 413 275 410 263 z m 526 308 l 538 308 b 554 353 542 324 549 338 l 544 353 l 528 311 b 526 308 528 310 528 310 z m 536 222 b 607 390 569 275 589 324 b 660 332 610 390 613 332 b 799 425 746 332 793 426 b 740 278 778 361 767 332 b 703 304 736 278 740 304 b 536 222 626 304 543 221 z m 551 372 l 561 372 b 578 451 572 403 579 431 l 568 451 b 551 372 569 431 561 403 z m 572 636 l 583 636 b 611 669 592 649 601 660 l 599 669 b 572 636 589 658 581 647 z m 728 769 b 915 831 796 789 851 808 l 878 750 b 728 769 822 769 788 775 z m 733 724 l 747 724 b 867 701 792 724 835 714 l 871 710 b 747 733 838 722 793 733 l 738 733 z m 813 606 b 836 564 824 594 831 581 l 846 564 b 824 606 840 579 833 593 z "},"7":{"ha":551,"x_min":0,"x_max":0,"o":"m 104 31 l 346 31 l 779 717 l 922 942 l 447 942 l 351 731 l 547 731 z m 154 57 l 354 369 b 381 317 358 369 340 317 b 572 438 474 317 564 438 l 458 258 b 417 286 456 258 454 286 b 210 101 350 286 221 160 b 246 74 207 79 215 74 b 321 57 292 74 322 68 z m 183 11 l 326 11 l 333 21 l 193 21 z m 196 213 l 207 213 l 281 329 l 269 329 z m 293 365 l 304 365 l 376 478 l 364 478 z m 356 786 l 365 786 l 415 897 l 406 897 z m 364 711 l 476 711 l 483 721 l 371 721 z m 392 758 l 465 915 l 672 917 b 463 832 672 913 463 883 b 799 915 463 796 731 874 l 875 915 l 858 885 b 414 758 747 861 575 811 z m 401 100 l 414 100 l 438 138 l 425 138 z m 436 593 l 447 593 l 496 671 l 485 671 z m 510 618 l 589 743 b 806 814 661 760 736 788 l 719 679 b 694 721 715 679 733 721 b 510 618 608 721 519 618 z "},"8":{"ha":685,"x_min":0,"x_max":0,"o":"m 401 15 b 771 338 718 15 771 246 b 672 507 771 417 731 475 b 931 788 883 529 931 674 b 700 957 931 904 853 957 b 354 639 429 957 354 758 b 433 497 354 575 382 535 b 128 196 179 471 128 313 b 401 15 128 68 228 15 z m 125 308 l 136 308 b 153 349 140 322 146 336 l 142 349 b 125 308 135 336 131 322 z m 158 218 b 226 381 160 288 197 358 b 261 332 229 381 203 332 b 404 407 331 332 390 407 b 346 269 378 369 356 318 b 281 304 342 269 326 304 b 185 203 225 304 185 261 b 408 60 185 110 242 60 b 664 135 561 60 632 135 b 404 42 601 85 536 42 b 158 218 231 42 157 85 z m 286 6 b 401 -4 321 -1 360 -4 b 539 13 454 -4 500 1 l 543 24 b 401 6 503 13 456 6 b 292 14 361 6 324 8 z m 343 708 l 353 708 b 363 747 354 721 358 733 l 353 747 b 343 708 349 733 344 721 z m 368 228 b 399 333 368 261 392 317 b 500 446 431 404 457 446 b 549 396 529 446 549 426 b 515 281 549 365 528 308 b 419 174 481 206 460 174 b 368 228 389 174 368 196 z m 378 231 l 388 231 b 392 254 388 238 389 244 l 382 254 b 378 231 379 246 378 238 z m 385 818 l 397 818 b 472 900 415 849 440 876 l 456 900 b 385 818 426 876 403 849 z m 386 603 b 386 689 379 636 382 678 b 563 747 443 704 492 714 b 531 676 543 717 538 701 b 386 603 479 692 421 657 z m 399 743 b 718 931 471 888 583 931 b 515 843 718 928 517 885 b 532 832 515 833 522 832 b 803 918 589 832 782 904 b 863 890 822 913 847 903 b 399 743 742 868 522 799 z m 482 256 l 492 256 b 506 285 496 264 501 274 b 521 322 511 296 517 308 l 511 322 b 497 289 507 310 501 299 z m 517 222 b 578 375 551 271 569 328 b 632 332 583 375 583 332 b 731 404 733 332 726 404 b 738 276 746 368 749 328 b 696 303 732 276 735 303 b 517 222 601 303 524 221 z m 518 344 l 528 344 b 538 383 532 358 536 372 l 528 383 b 518 344 526 372 522 358 z m 532 588 b 563 693 532 621 556 676 b 664 806 594 764 621 806 b 713 756 693 806 713 786 b 679 640 713 725 692 668 b 583 533 644 565 624 533 b 532 588 553 533 532 556 z m 542 586 l 551 586 l 551 588 b 557 622 551 596 554 608 l 547 622 b 542 588 544 608 542 596 z m 663 651 l 672 651 b 701 743 685 678 697 718 l 692 743 b 663 651 688 718 674 678 z m 718 672 b 731 793 736 717 747 771 b 890 854 754 800 849 831 b 901 744 903 839 911 794 b 867 783 897 744 900 783 b 718 672 781 783 722 672 z m 749 450 b 765 417 756 439 761 428 l 776 417 b 761 450 772 428 767 439 z m 922 871 b 938 828 929 858 935 843 l 947 828 b 933 871 944 843 939 857 z "},"9":{"ha":707,"x_min":0,"x_max":0,"o":"m 317 17 b 503 43 389 17 450 25 b 636 118 553 60 597 85 b 826 431 706 181 763 274 b 904 758 881 561 904 663 b 847 904 904 824 885 872 b 672 956 810 939 750 956 b 468 900 583 956 522 939 b 304 668 408 857 357 783 b 256 506 278 611 261 556 b 272 388 250 456 256 415 b 364 347 290 361 319 347 b 546 431 417 347 479 382 l 579 431 b 469 271 556 354 501 294 b 340 229 432 243 389 229 b 194 261 283 229 232 244 l 106 60 b 176 35 126 50 150 42 b 317 17 221 22 269 17 z m 147 76 l 211 222 l 238 214 b 201 132 221 196 201 164 b 342 60 201 81 240 60 b 614 135 507 60 590 135 b 340 42 554 79 444 42 b 147 76 267 42 214 49 z m 213 6 b 315 -3 247 0 282 -3 b 369 -1 333 -3 351 -3 l 374 8 b 322 7 354 7 342 7 b 217 15 283 7 249 10 z m 233 490 b 238 422 232 465 233 443 l 247 422 b 243 490 243 443 242 465 z m 267 631 l 276 631 b 294 672 282 644 288 658 b 318 721 303 689 310 706 l 307 721 l 286 676 b 267 631 279 661 272 646 z m 283 532 b 333 667 296 582 317 639 b 553 750 406 689 471 714 b 503 647 531 719 515 683 b 464 658 497 653 481 658 b 283 532 339 658 289 532 z m 321 332 b 363 328 333 329 347 328 b 458 356 393 328 428 338 l 463 368 b 363 336 431 347 394 336 b 325 340 349 336 336 338 z m 365 733 b 471 864 393 782 436 836 b 685 931 535 918 592 931 b 517 857 685 928 515 903 b 542 842 517 846 525 842 b 768 917 600 843 749 904 b 826 886 789 911 813 900 b 365 733 704 868 492 797 z m 371 206 b 597 390 460 211 539 254 b 629 332 600 390 579 332 b 800 447 728 332 793 447 b 721 278 785 399 754 336 b 685 304 717 278 725 304 b 393 200 583 304 521 200 b 371 206 386 200 375 203 z m 374 833 l 386 833 b 450 900 407 861 428 883 l 435 900 b 374 833 414 882 393 860 z m 414 3 b 483 17 439 6 461 11 l 488 26 b 418 11 465 19 443 15 z m 474 300 l 486 300 b 525 353 500 314 514 332 l 515 353 b 474 300 503 331 488 313 z m 511 488 b 540 668 488 521 504 578 b 640 782 569 736 596 782 b 676 768 658 782 671 774 b 690 731 683 761 690 749 b 633 557 690 713 685 681 l 594 463 l 561 463 b 511 488 532 463 517 478 z m 513 517 l 521 517 b 524 556 519 528 521 540 l 515 556 b 513 517 513 542 511 528 z m 621 581 l 631 581 b 660 654 643 608 651 633 l 650 654 z m 660 682 l 669 682 b 679 717 674 696 678 707 l 669 717 b 660 682 668 707 664 696 z m 683 790 b 854 849 744 804 831 832 b 879 753 869 833 882 794 b 839 786 875 753 875 786 b 713 683 776 786 736 724 b 683 790 722 743 721 775 z m 889 869 b 908 822 897 856 904 839 l 918 822 b 900 869 914 839 908 856 z "}," ":{"ha":181,"x_min":0,"x_max":0,"o":""}," ":{"ha":181,"x_min":0,"x_max":0,"o":""},"A":{"ha":732,"x_min":0,"x_max":0,"o":"m 6 31 l 246 31 l 324 161 l 551 161 l 511 31 l 747 31 l 963 943 l 611 943 z m 54 57 l 263 369 b 283 318 263 367 240 318 b 457 440 365 318 450 440 l 396 342 b 408 315 385 324 386 315 l 599 315 b 638 342 622 315 632 318 l 649 390 b 690 332 651 390 650 332 b 824 476 769 332 815 476 l 778 278 b 743 304 774 278 776 304 b 604 239 667 304 610 239 l 611 265 b 571 294 617 288 607 294 l 422 294 b 122 97 279 294 122 194 b 219 57 122 54 213 79 z m 57 11 l 219 11 l 226 21 l 64 21 z m 158 300 l 171 300 l 282 465 l 268 465 z m 338 571 l 350 571 l 361 586 l 349 586 z m 361 525 l 465 678 b 647 740 514 686 594 714 l 571 619 b 538 644 567 619 568 644 b 361 525 456 644 375 525 z m 376 628 l 389 628 l 471 751 l 458 751 z m 413 138 l 510 138 l 514 147 l 418 147 z m 435 346 l 708 788 l 733 788 l 682 615 l 607 346 z m 488 406 l 497 406 l 532 463 l 522 463 z m 500 61 l 510 61 l 521 97 l 511 97 z m 510 829 l 522 829 l 583 922 l 571 922 z m 511 742 l 626 917 l 817 917 b 617 842 747 899 617 869 b 922 910 617 808 836 875 l 913 867 b 511 742 803 844 649 806 z m 549 57 l 581 169 b 589 119 593 169 589 147 b 651 74 589 90 604 79 b 726 57 693 69 719 68 z m 561 11 l 729 11 l 732 21 l 564 21 z m 613 439 l 621 439 l 644 522 l 636 522 z m 650 569 l 658 569 l 667 599 l 658 599 z m 717 633 l 753 765 b 904 815 797 771 863 792 l 874 683 b 844 725 871 683 876 725 b 717 633 758 725 722 633 z m 943 814 l 954 814 l 968 872 l 957 872 z "},"Á":{"ha":732,"x_min":0,"x_max":0,"o":"m 7 32 l 247 32 l 324 161 l 551 161 l 513 32 l 749 32 l 963 943 l 611 943 z m 54 57 l 263 369 b 283 318 263 367 240 318 b 457 440 365 318 450 440 l 396 342 b 408 315 385 324 386 315 l 599 315 b 638 342 622 315 632 318 l 649 390 b 690 332 651 390 650 332 b 824 476 769 332 815 476 l 778 278 b 743 304 774 278 776 304 b 604 239 667 304 610 239 l 611 265 b 571 294 617 288 607 294 l 422 294 b 122 97 279 294 122 194 b 219 57 122 54 213 79 z m 57 11 l 219 11 l 226 21 l 64 21 z m 158 300 l 171 300 l 282 465 l 268 465 z m 338 571 l 350 571 l 361 586 l 349 586 z m 361 525 l 465 678 b 647 740 514 686 594 714 l 571 619 b 538 644 567 619 568 644 b 361 525 456 644 375 525 z m 376 628 l 389 628 l 471 751 l 458 751 z m 413 138 l 510 138 l 514 147 l 418 147 z m 435 346 l 708 788 l 733 788 l 682 615 l 607 346 z m 488 406 l 497 406 l 532 463 l 522 463 z m 500 61 l 510 61 l 521 97 l 511 97 z m 510 829 l 522 829 l 583 922 l 571 922 z m 511 742 l 626 917 l 817 917 b 617 842 747 899 617 869 b 922 910 617 808 836 875 l 913 867 b 511 742 803 844 649 806 z m 549 57 l 581 169 b 589 119 593 169 589 147 b 651 74 589 90 604 79 b 726 57 693 69 719 68 z m 561 11 l 729 11 l 732 21 l 564 21 z m 613 439 l 621 439 l 644 522 l 636 522 z m 650 569 l 658 569 l 667 599 l 658 599 z m 717 633 l 753 765 b 904 815 797 771 863 792 l 874 683 b 844 725 871 683 876 725 b 717 633 758 725 722 633 z m 758 996 l 821 996 l 950 1113 l 840 1113 z m 811 1025 l 856 1086 l 882 1086 l 815 1025 z m 943 814 l 954 814 l 968 872 l 957 872 z "},"Â":{"ha":732,"x_min":0,"x_max":0,"o":"m 7 32 l 247 32 l 324 161 l 551 161 l 513 32 l 749 32 l 963 943 l 611 943 z m 54 57 l 263 369 b 283 318 263 367 240 318 b 457 440 365 318 450 440 l 396 342 b 408 315 385 324 386 315 l 599 315 b 638 342 622 315 632 318 l 649 390 b 690 332 651 390 650 332 b 824 476 769 332 815 476 l 778 278 b 743 304 774 278 776 304 b 604 239 667 304 610 239 l 611 265 b 571 294 617 288 607 294 l 422 294 b 122 97 279 294 122 194 b 219 57 122 54 213 79 z m 57 11 l 219 11 l 226 21 l 64 21 z m 158 300 l 171 300 l 282 465 l 268 465 z m 338 571 l 350 571 l 361 586 l 349 586 z m 361 525 l 465 678 b 647 740 514 686 594 714 l 571 619 b 538 644 567 619 568 644 b 361 525 456 644 375 525 z m 376 628 l 389 628 l 471 751 l 458 751 z m 413 138 l 510 138 l 514 147 l 418 147 z m 435 346 l 708 788 l 733 788 l 682 615 l 607 346 z m 488 406 l 497 406 l 532 463 l 522 463 z m 500 61 l 510 61 l 521 97 l 511 97 z m 510 829 l 522 829 l 583 922 l 571 922 z m 511 742 l 626 917 l 817 917 b 617 842 747 899 617 869 b 922 910 617 808 836 875 l 913 867 b 511 742 803 844 649 806 z m 549 57 l 581 169 b 589 119 593 169 589 147 b 651 74 589 90 604 79 b 726 57 693 69 719 68 z m 561 11 l 729 11 l 732 21 l 564 21 z m 613 439 l 621 439 l 644 522 l 636 522 z m 650 569 l 658 569 l 667 599 l 658 599 z m 651 1014 l 772 1014 l 842 1094 l 871 1014 l 961 1014 l 882 1131 l 814 1131 z m 717 633 l 753 765 b 904 815 797 771 863 792 l 874 683 b 844 725 871 683 876 725 b 717 633 758 725 722 633 z m 731 1038 b 804 1094 754 1057 785 1085 l 810 1094 l 753 1038 z m 879 1063 l 894 1064 b 914 1038 901 1054 908 1046 l 892 1038 z m 943 814 l 954 814 l 968 872 l 957 872 z "},"Ä":{"ha":732,"x_min":0,"x_max":0,"o":"m 7 32 l 247 32 l 324 161 l 551 161 l 513 32 l 749 32 l 963 943 l 611 943 z m 54 57 l 263 369 b 283 318 263 367 240 318 b 457 440 365 318 450 440 l 396 342 b 408 315 385 324 386 315 l 599 315 b 638 342 622 315 632 318 l 649 390 b 690 332 651 390 650 332 b 824 476 769 332 815 476 l 778 278 b 743 304 774 278 776 304 b 604 239 667 304 610 239 l 611 265 b 571 294 617 288 607 294 l 422 294 b 122 97 279 294 122 194 b 219 57 122 54 213 79 z m 57 11 l 219 11 l 226 21 l 64 21 z m 158 300 l 171 300 l 282 465 l 268 465 z m 338 571 l 350 571 l 361 586 l 349 586 z m 361 525 l 465 678 b 647 740 514 686 594 714 l 571 619 b 538 644 567 619 568 644 b 361 525 456 644 375 525 z m 376 628 l 389 628 l 471 751 l 458 751 z m 413 138 l 510 138 l 514 147 l 418 147 z m 435 346 l 708 788 l 733 788 l 682 615 l 607 346 z m 488 406 l 497 406 l 532 463 l 522 463 z m 500 61 l 510 61 l 521 97 l 511 97 z m 510 829 l 522 829 l 583 922 l 571 922 z m 511 742 l 626 917 l 817 917 b 617 842 747 899 617 869 b 922 910 617 808 836 875 l 913 867 b 511 742 803 844 649 806 z m 544 1014 l 781 1014 l 810 1079 l 574 1079 z m 549 57 l 581 169 b 589 119 593 169 589 147 b 651 74 589 90 604 79 b 726 57 693 69 719 68 z m 561 11 l 729 11 l 732 21 l 564 21 z m 585 1040 l 590 1053 l 635 1053 l 629 1040 z m 613 439 l 621 439 l 644 522 l 636 522 z m 650 569 l 658 569 l 667 599 l 658 599 z m 656 1040 l 661 1053 l 769 1053 l 764 1040 z m 717 633 l 753 765 b 904 815 797 771 863 792 l 874 683 b 844 725 871 683 876 725 b 717 633 758 725 722 633 z m 836 1014 l 1072 1014 l 1101 1079 l 865 1079 z m 876 1040 l 882 1053 l 1061 1053 l 1056 1040 z m 943 814 l 954 814 l 968 872 l 957 872 z "},"À":{"ha":732,"x_min":0,"x_max":0,"o":"m 7 32 l 247 32 l 324 161 l 551 161 l 513 32 l 749 32 l 963 943 l 611 943 z m 54 57 l 263 369 b 283 318 263 367 240 318 b 457 440 365 318 450 440 l 396 342 b 408 315 385 324 386 315 l 599 315 b 638 342 622 315 632 318 l 649 390 b 690 332 651 390 650 332 b 824 476 769 332 815 476 l 778 278 b 743 304 774 278 776 304 b 604 239 667 304 610 239 l 611 265 b 571 294 617 288 607 294 l 422 294 b 122 97 279 294 122 194 b 219 57 122 54 213 79 z m 57 11 l 219 11 l 226 21 l 64 21 z m 158 300 l 171 300 l 282 465 l 268 465 z m 338 571 l 350 571 l 361 586 l 349 586 z m 361 525 l 465 678 b 647 740 514 686 594 714 l 571 619 b 538 644 567 619 568 644 b 361 525 456 644 375 525 z m 376 628 l 389 628 l 471 751 l 458 751 z m 413 138 l 510 138 l 514 147 l 418 147 z m 435 346 l 708 788 l 733 788 l 682 615 l 607 346 z m 488 406 l 497 406 l 532 463 l 522 463 z m 500 61 l 510 61 l 521 97 l 511 97 z m 510 829 l 522 829 l 583 922 l 571 922 z m 511 742 l 626 917 l 817 917 b 617 842 747 899 617 869 b 922 910 617 808 836 875 l 913 867 b 511 742 803 844 649 806 z m 549 57 l 581 169 b 589 119 593 169 589 147 b 651 74 589 90 604 79 b 726 57 693 69 719 68 z m 561 11 l 729 11 l 732 21 l 564 21 z m 613 439 l 621 439 l 644 522 l 636 522 z m 650 569 l 658 569 l 667 599 l 658 599 z m 711 1113 l 776 996 l 839 996 l 821 1113 z m 717 633 l 753 765 b 904 815 797 771 863 792 l 874 683 b 844 725 871 683 876 725 b 717 633 758 725 722 633 z m 764 1086 l 790 1086 l 801 1025 l 797 1025 z m 943 814 l 954 814 l 968 872 l 957 872 z "},"Å":{"ha":732,"x_min":0,"x_max":0,"o":"m 7 32 l 247 32 l 324 161 l 551 161 l 513 32 l 749 32 l 963 943 l 611 943 z m 54 57 l 263 369 b 283 318 263 367 240 318 b 457 440 365 318 450 440 l 396 342 b 408 315 385 324 386 315 l 599 315 b 638 342 622 315 632 318 l 649 390 b 690 332 651 390 650 332 b 824 476 769 332 815 476 l 778 278 b 743 304 774 278 776 304 b 604 239 667 304 610 239 l 611 265 b 571 294 617 288 607 294 l 422 294 b 122 97 279 294 122 194 b 219 57 122 54 213 79 z m 57 11 l 219 11 l 226 21 l 64 21 z m 158 300 l 171 300 l 282 465 l 268 465 z m 338 571 l 350 571 l 361 586 l 349 586 z m 361 525 l 465 678 b 647 740 514 686 594 714 l 571 619 b 538 644 567 619 568 644 b 361 525 456 644 375 525 z m 376 628 l 389 628 l 471 751 l 458 751 z m 413 138 l 510 138 l 514 147 l 418 147 z m 435 346 l 708 788 l 733 788 l 682 615 l 607 346 z m 488 406 l 497 406 l 532 463 l 522 463 z m 500 61 l 510 61 l 521 97 l 511 97 z m 510 829 l 522 829 l 583 922 l 571 922 z m 511 742 l 626 917 l 817 917 b 617 842 747 899 617 869 b 922 910 617 808 836 875 l 913 867 b 511 742 803 844 649 806 z m 549 57 l 581 169 b 589 119 593 169 589 147 b 651 74 589 90 604 79 b 726 57 693 69 719 68 z m 561 11 l 729 11 l 732 21 l 564 21 z m 613 439 l 621 439 l 644 522 l 636 522 z m 650 569 l 658 569 l 667 599 l 658 599 z m 701 1065 b 819 1007 701 1026 744 1007 b 949 1074 883 1007 947 1022 b 840 1135 950 1115 911 1135 b 701 1065 776 1136 701 1121 z m 717 633 l 753 765 b 904 815 797 771 863 792 l 874 683 b 844 725 871 683 876 725 b 717 633 758 725 722 633 z m 717 1065 b 722 1086 717 1074 718 1079 l 733 1086 b 726 1065 729 1081 726 1074 b 729 1054 726 1061 728 1057 l 718 1054 b 717 1065 717 1057 717 1061 z m 740 1067 b 840 1099 740 1092 779 1099 b 911 1075 894 1099 911 1089 b 819 1043 911 1054 878 1043 b 740 1067 760 1043 740 1051 z m 760 1026 l 764 1035 b 819 1031 778 1032 796 1031 b 881 1036 843 1031 864 1032 l 876 1025 b 819 1021 860 1022 840 1021 b 760 1026 796 1021 776 1022 z m 943 814 l 954 814 l 968 872 l 957 872 z "},"Ã":{"ha":732,"x_min":0,"x_max":0,"o":"m 7 32 l 247 32 l 324 161 l 551 161 l 513 32 l 749 32 l 963 943 l 611 943 z m 54 57 l 263 369 b 283 318 263 367 240 318 b 457 440 365 318 450 440 l 396 342 b 408 315 385 324 386 315 l 599 315 b 638 342 622 315 632 318 l 649 390 b 690 332 651 390 650 332 b 824 476 769 332 815 476 l 778 278 b 743 304 774 278 776 304 b 604 239 667 304 610 239 l 611 265 b 571 294 617 288 607 294 l 422 294 b 122 97 279 294 122 194 b 219 57 122 54 213 79 z m 57 11 l 219 11 l 226 21 l 64 21 z m 158 300 l 171 300 l 282 465 l 268 465 z m 338 571 l 350 571 l 361 586 l 349 586 z m 361 525 l 465 678 b 647 740 514 686 594 714 l 571 619 b 538 644 567 619 568 644 b 361 525 456 644 375 525 z m 376 628 l 389 628 l 471 751 l 458 751 z m 413 138 l 510 138 l 514 147 l 418 147 z m 435 346 l 708 788 l 733 788 l 682 615 l 607 346 z m 488 406 l 497 406 l 532 463 l 522 463 z m 500 61 l 510 61 l 521 97 l 511 97 z m 510 829 l 522 829 l 583 922 l 571 922 z m 511 742 l 626 917 l 817 917 b 617 842 747 899 617 869 b 922 910 617 808 836 875 l 913 867 b 511 742 803 844 649 806 z m 549 57 l 581 169 b 589 119 593 169 589 147 b 651 74 589 90 604 79 b 726 57 693 69 719 68 z m 561 11 l 729 11 l 732 21 l 564 21 z m 613 439 l 621 439 l 644 522 l 636 522 z m 650 569 l 658 569 l 667 599 l 658 599 z m 668 996 l 742 996 l 782 1064 l 806 1024 b 860 996 815 1007 831 996 b 932 1033 893 996 911 1007 l 994 1113 l 921 1113 l 874 1036 l 849 1078 b 800 1113 833 1103 822 1113 b 732 1076 772 1113 754 1106 z m 711 1017 l 736 1049 l 746 1047 l 729 1017 z m 717 633 l 753 765 b 904 815 797 771 863 792 l 874 683 b 844 725 871 683 876 725 b 717 633 758 725 722 633 z m 796 1086 l 814 1086 l 851 1022 l 840 1022 z m 904 1051 l 933 1094 l 953 1094 l 918 1051 z m 943 814 l 954 814 l 968 872 l 957 872 z "},"B":{"ha":663,"x_min":0,"x_max":0,"o":"m 58 33 l 393 33 b 760 244 550 33 703 96 b 778 331 771 275 778 306 b 661 464 778 410 728 453 l 664 472 b 874 604 756 496 825 542 b 936 767 914 654 936 713 b 688 942 936 906 824 942 l 472 942 z m 100 57 l 133 129 l 250 390 b 285 332 253 390 242 332 b 458 464 365 332 450 464 l 368 278 b 335 304 364 278 372 304 b 146 99 250 304 146 172 b 197 74 146 79 156 74 l 390 74 b 671 157 563 74 647 151 b 389 57 600 86 497 57 z m 132 246 l 143 246 l 168 299 l 157 299 z m 138 11 l 385 11 l 390 21 l 143 21 z m 200 392 l 210 392 l 289 565 l 278 565 z m 314 538 l 386 690 b 585 751 446 706 521 731 l 546 664 b 519 675 543 664 539 675 b 314 538 413 675 321 538 z m 331 678 l 342 678 l 361 721 l 350 721 z m 371 218 l 485 465 b 586 385 572 463 586 429 b 435 218 586 311 526 218 z m 407 265 l 418 265 l 433 297 l 422 297 z m 407 846 l 417 846 l 451 922 l 442 922 z m 411 749 l 492 917 l 676 917 b 486 832 676 911 486 883 b 778 908 486 792 740 879 b 865 872 814 903 849 888 b 411 749 740 857 528 796 z m 425 11 b 493 19 449 13 471 15 l 499 32 b 431 22 478 28 454 24 z m 507 517 l 619 763 b 722 683 685 760 724 746 b 576 517 721 618 664 517 z m 528 221 b 614 381 569 251 608 310 b 650 333 619 381 615 333 b 746 367 699 333 732 351 b 746 285 756 351 756 310 b 714 304 742 294 732 304 b 528 221 639 304 550 221 z m 542 561 l 553 561 l 571 600 l 560 600 z m 549 315 l 558 315 b 575 385 569 338 575 363 b 574 400 575 390 575 394 l 564 400 b 565 385 565 394 565 390 b 549 315 565 363 560 338 z m 674 600 l 685 600 b 710 683 700 626 708 657 l 710 690 l 700 690 l 700 683 b 674 600 699 657 689 625 z m 685 778 b 889 840 768 792 854 818 b 911 768 904 821 911 796 b 908 739 911 761 910 744 b 871 767 906 739 906 767 b 751 679 796 767 757 679 b 753 696 751 679 753 690 b 685 778 753 746 718 769 z m 765 414 b 783 378 774 403 779 390 l 793 378 b 776 414 790 392 785 403 z m 932 844 b 943 807 938 833 942 821 l 954 807 b 943 844 953 821 949 832 z "},"C":{"ha":693,"x_min":0,"x_max":0,"o":"m 432 15 b 660 121 528 17 590 49 b 832 413 721 183 776 276 l 606 413 b 528 253 575 338 550 286 b 456 200 511 229 489 200 b 419 256 429 200 418 218 b 514 513 421 296 436 354 b 629 717 563 611 600 678 b 700 768 654 753 675 768 b 733 725 722 768 733 751 b 660 526 732 688 715 644 l 886 526 b 951 746 915 582 949 667 b 747 956 957 881 879 956 b 499 868 647 956 568 928 b 310 600 436 814 378 732 b 197 269 238 468 201 360 b 432 15 190 63 329 15 z m 181 310 l 190 310 b 226 442 197 354 206 388 l 214 442 b 181 310 197 394 186 351 z m 225 267 b 232 344 226 293 229 318 b 285 306 236 344 229 306 b 450 435 378 306 440 435 b 396 257 414 363 397 299 b 360 276 392 257 389 276 b 261 186 304 276 263 244 b 436 58 258 117 324 58 b 639 135 563 58 617 133 b 429 40 581 74 519 40 b 225 267 317 40 219 99 z m 263 553 l 272 553 b 285 576 278 560 281 568 l 276 576 b 263 553 271 568 268 560 z m 300 532 b 368 661 329 586 351 633 b 625 760 440 683 533 719 b 550 647 610 746 581 699 b 511 658 544 653 528 658 b 300 532 382 658 306 532 z m 329 676 l 340 676 b 369 729 350 694 360 713 l 358 729 b 329 676 349 713 339 694 z m 343 6 b 431 -6 368 -1 399 -6 b 519 6 463 -6 490 -1 l 522 17 b 431 4 493 8 464 4 b 346 15 400 4 372 8 z m 415 729 b 517 846 449 781 482 818 b 749 931 581 900 656 931 b 582 851 749 928 582 899 b 819 918 582 814 796 903 b 881 882 840 913 860 901 b 415 729 754 864 542 797 z m 440 838 l 454 838 b 493 876 467 853 479 865 b 532 907 506 888 519 897 l 514 907 b 488 885 504 900 496 893 b 440 838 471 871 456 856 z m 443 318 l 454 318 b 469 361 458 331 463 344 l 458 361 b 443 318 451 344 447 331 z m 538 221 b 619 381 561 256 597 329 b 653 335 624 381 606 335 b 794 383 721 335 776 372 b 747 289 786 367 756 303 b 714 304 742 296 736 304 b 538 221 611 304 539 219 z m 540 317 l 553 317 b 592 404 563 336 585 388 l 581 404 b 540 317 572 388 551 336 z m 553 17 b 582 32 563 21 572 26 l 585 44 l 556 29 z m 649 553 l 660 553 b 690 617 672 578 683 599 l 679 617 b 649 553 672 599 661 578 z m 694 651 l 704 651 l 711 671 l 701 671 b 694 651 700 665 697 658 z m 722 790 b 903 849 788 803 878 831 b 924 746 915 833 929 799 b 886 785 919 746 922 785 b 750 672 801 785 758 671 b 722 790 765 717 774 781 z m 732 506 l 860 506 l 868 517 l 740 517 z m 949 844 b 960 797 954 831 958 814 l 969 797 b 958 844 968 814 964 831 z "},"Ć":{"ha":693,"x_min":0,"x_max":0,"o":"m 432 15 b 660 121 528 17 590 49 b 832 413 721 183 776 276 l 606 413 b 528 253 575 338 550 286 b 456 200 511 229 489 200 b 419 256 429 200 418 218 b 514 513 421 296 436 354 b 629 717 563 611 600 678 b 700 768 654 753 675 768 b 733 725 722 768 733 751 b 660 526 732 688 715 644 l 886 526 b 951 746 915 582 949 667 b 747 956 957 881 879 956 b 499 868 647 956 568 928 b 310 600 436 814 378 732 b 197 269 238 468 201 360 b 432 15 190 63 329 15 z m 181 310 l 190 310 b 226 442 197 354 206 388 l 214 442 b 181 310 197 394 186 351 z m 225 267 b 232 344 226 293 229 318 b 285 306 236 344 229 306 b 450 435 378 306 440 435 b 396 257 414 363 397 299 b 360 276 392 257 389 276 b 261 186 304 276 263 244 b 436 58 258 117 324 58 b 639 135 563 58 617 133 b 429 40 581 74 519 40 b 225 267 317 40 219 99 z m 263 553 l 272 553 b 285 576 278 560 281 568 l 276 576 b 263 553 271 568 268 560 z m 300 532 b 368 661 329 586 351 633 b 625 760 440 683 533 719 b 550 647 610 746 581 699 b 511 658 544 653 528 658 b 300 532 382 658 306 532 z m 329 676 l 340 676 b 369 729 350 694 360 713 l 358 729 b 329 676 349 713 339 694 z m 343 6 b 431 -6 368 -1 399 -6 b 519 6 463 -6 490 -1 l 522 17 b 431 4 493 8 464 4 b 346 15 400 4 372 8 z m 415 729 b 517 846 449 781 482 818 b 749 931 581 900 656 931 b 582 851 749 928 582 899 b 819 918 582 814 796 903 b 881 882 840 913 860 901 b 415 729 754 864 542 797 z m 440 838 l 454 838 b 493 876 467 853 479 865 b 532 907 506 888 519 897 l 514 907 b 488 885 504 900 496 893 b 440 838 471 871 456 856 z m 443 318 l 454 318 b 469 361 458 331 463 344 l 458 361 b 443 318 451 344 447 331 z m 538 221 b 619 381 561 256 597 329 b 653 335 624 381 606 335 b 794 383 721 335 776 372 b 747 289 786 367 756 303 b 714 304 742 296 736 304 b 538 221 611 304 539 219 z m 540 317 l 553 317 b 592 404 563 336 585 388 l 581 404 b 540 317 572 388 551 336 z m 553 17 b 582 32 563 21 572 26 l 585 44 l 556 29 z m 649 553 l 660 553 b 690 617 672 578 683 599 l 679 617 b 649 553 672 599 661 578 z m 694 651 l 704 651 l 711 671 l 701 671 b 694 651 700 665 697 658 z m 722 790 b 903 849 788 803 878 831 b 924 746 915 833 929 799 b 886 785 919 746 922 785 b 750 672 801 785 758 671 b 722 790 765 717 774 781 z m 724 996 l 786 996 l 915 1113 l 806 1113 z m 732 506 l 860 506 l 868 517 l 740 517 z m 776 1025 l 821 1086 l 847 1086 l 781 1025 z m 949 844 b 960 797 954 831 958 814 l 969 797 b 958 844 968 814 964 831 z "},"Č":{"ha":693,"x_min":0,"x_max":0,"o":"m 432 15 b 660 121 528 17 590 49 b 832 413 721 183 776 276 l 606 413 b 528 253 575 338 550 286 b 456 200 511 229 489 200 b 419 256 429 200 418 218 b 514 513 421 296 436 354 b 629 717 563 611 600 678 b 700 768 654 753 675 768 b 733 725 722 768 733 751 b 660 526 732 688 715 644 l 886 526 b 951 746 915 582 949 667 b 747 956 957 881 879 956 b 499 868 647 956 568 928 b 310 600 436 814 378 732 b 197 269 238 468 201 360 b 432 15 190 63 329 15 z m 181 310 l 190 310 b 226 442 197 354 206 388 l 214 442 b 181 310 197 394 186 351 z m 225 267 b 232 344 226 293 229 318 b 285 306 236 344 229 306 b 450 435 378 306 440 435 b 396 257 414 363 397 299 b 360 276 392 257 389 276 b 261 186 304 276 263 244 b 436 58 258 117 324 58 b 639 135 563 58 617 133 b 429 40 581 74 519 40 b 225 267 317 40 219 99 z m 263 553 l 272 553 b 285 576 278 560 281 568 l 276 576 b 263 553 271 568 268 560 z m 300 532 b 368 661 329 586 351 633 b 625 760 440 683 533 719 b 550 647 610 746 581 699 b 511 658 544 653 528 658 b 300 532 382 658 306 532 z m 329 676 l 340 676 b 369 729 350 694 360 713 l 358 729 b 329 676 349 713 339 694 z m 343 6 b 431 -6 368 -1 399 -6 b 519 6 463 -6 490 -1 l 522 17 b 431 4 493 8 464 4 b 346 15 400 4 372 8 z m 415 729 b 517 846 449 781 482 818 b 749 931 581 900 656 931 b 582 851 749 928 582 899 b 819 918 582 814 796 903 b 881 882 840 913 860 901 b 415 729 754 864 542 797 z m 440 838 l 454 838 b 493 876 467 853 479 865 b 532 907 506 888 519 897 l 514 907 b 488 885 504 900 496 893 b 440 838 471 871 456 856 z m 443 318 l 454 318 b 469 361 458 331 463 344 l 458 361 b 443 318 451 344 447 331 z m 538 221 b 619 381 561 256 597 329 b 653 335 624 381 606 335 b 794 383 721 335 776 372 b 747 289 786 367 756 303 b 714 304 742 296 736 304 b 538 221 611 304 539 219 z m 540 317 l 553 317 b 592 404 563 336 585 388 l 581 404 b 540 317 572 388 551 336 z m 553 17 b 582 32 563 21 572 26 l 585 44 l 556 29 z m 649 553 l 660 553 b 690 617 672 578 683 599 l 679 617 b 649 553 672 599 661 578 z m 663 1113 l 742 996 l 810 996 l 972 1113 l 860 1113 l 788 1038 l 761 1113 z m 694 651 l 704 651 l 711 671 l 701 671 b 694 651 700 665 697 658 z m 714 1089 l 736 1089 l 760 1032 l 754 1032 b 714 1089 743 1042 728 1069 z m 722 790 b 903 849 788 803 878 831 b 924 746 915 833 929 799 b 886 785 919 746 922 785 b 750 672 801 785 758 671 b 722 790 765 717 774 781 z m 732 506 l 860 506 l 868 517 l 740 517 z m 844 1064 l 871 1089 l 893 1089 l 858 1063 z m 949 844 b 960 797 954 831 958 814 l 969 797 b 958 844 968 814 964 831 z "},"Ç":{"ha":693,"x_min":0,"x_max":0,"o":"m 432 15 b 660 121 528 17 590 49 b 832 413 721 183 776 276 l 606 413 b 528 253 575 338 550 286 b 456 200 511 229 489 200 b 419 256 429 200 418 218 b 514 513 421 296 436 354 b 629 717 563 611 600 678 b 700 768 654 753 675 768 b 733 725 722 768 733 751 b 660 526 732 688 715 644 l 886 526 b 951 746 915 582 949 667 b 747 956 957 881 879 956 b 499 868 647 956 568 928 b 310 600 436 814 378 732 b 197 269 238 468 201 360 b 339 29 192 122 261 56 l 283 -85 l 329 -97 b 385 -85 349 -87 365 -85 b 358 -137 428 -85 418 -137 b 257 -104 317 -137 282 -121 l 229 -168 b 338 -193 275 -189 301 -193 b 469 -99 428 -193 469 -150 b 399 -37 469 -51 432 -37 b 340 -49 376 -37 357 -42 l 375 21 b 432 15 394 17 414 15 z m 181 310 l 190 310 b 226 442 197 354 206 388 l 214 442 b 181 310 197 394 186 351 z m 225 267 b 232 344 226 293 229 318 b 285 306 236 344 229 306 b 450 435 378 306 440 435 b 396 257 414 363 397 299 b 360 276 392 257 389 276 b 261 186 304 276 263 244 b 436 58 258 117 324 58 b 639 135 563 58 617 133 b 429 40 581 74 519 40 b 225 267 317 40 219 99 z m 260 -162 l 265 -150 b 304 -161 276 -154 289 -158 l 297 -174 b 260 -162 285 -171 272 -168 z m 263 553 l 272 553 b 285 576 278 560 281 568 l 276 576 b 263 553 271 568 268 560 z m 300 532 b 368 661 329 586 351 633 b 625 760 440 683 533 719 b 550 647 610 746 581 699 b 511 658 544 653 528 658 b 300 532 382 658 306 532 z m 328 -176 l 333 -164 l 353 -164 b 449 -125 425 -164 440 -124 b 346 -176 436 -156 403 -176 z m 329 -79 b 389 -58 333 -71 349 -58 b 428 -112 435 -58 447 -97 b 385 -68 433 -87 418 -68 b 329 -79 365 -68 349 -71 z m 329 676 l 340 676 b 369 729 350 694 360 713 l 358 729 b 329 676 349 713 339 694 z m 397 -4 b 431 -6 408 -6 419 -6 b 519 6 463 -6 490 -1 l 522 17 b 431 4 493 8 464 4 b 401 6 421 4 411 4 z m 415 729 b 517 846 449 781 482 818 b 749 931 581 900 656 931 b 582 851 749 928 582 899 b 819 918 582 814 796 903 b 881 882 840 913 860 901 b 415 729 754 864 542 797 z m 440 838 l 454 838 b 493 876 467 853 479 865 b 532 907 506 888 519 897 l 514 907 b 488 885 504 900 496 893 b 440 838 471 871 456 856 z m 443 318 l 454 318 b 469 361 458 331 463 344 l 458 361 b 443 318 451 344 447 331 z m 538 221 b 619 381 561 256 597 329 b 653 335 624 381 606 335 b 794 383 721 335 776 372 b 747 289 786 367 756 303 b 714 304 742 296 736 304 b 538 221 611 304 539 219 z m 540 317 l 553 317 b 592 404 563 336 585 388 l 581 404 b 540 317 572 388 551 336 z m 553 17 b 582 32 563 21 572 26 l 585 44 l 556 29 z m 649 553 l 660 553 b 690 617 672 578 683 599 l 679 617 b 649 553 672 599 661 578 z m 694 651 l 704 651 l 711 671 l 701 671 b 694 651 700 665 697 658 z m 722 790 b 903 849 788 803 878 831 b 924 746 915 833 929 799 b 886 785 919 746 922 785 b 750 672 801 785 758 671 b 722 790 765 717 774 781 z m 732 506 l 860 506 l 868 517 l 740 517 z m 949 844 b 960 797 954 831 958 814 l 969 797 b 958 844 968 814 964 831 z "},"D":{"ha":718,"x_min":0,"x_max":0,"o":"m 65 33 l 431 33 b 764 219 590 33 679 97 b 849 371 792 260 819 310 b 933 707 906 485 933 594 b 797 926 933 814 889 900 b 699 942 769 936 736 942 l 479 942 z m 104 57 l 246 369 b 281 317 250 369 240 317 b 456 440 379 317 450 443 l 375 258 b 329 286 372 258 372 286 b 147 103 260 286 147 161 b 243 74 147 71 189 74 l 478 74 b 653 133 569 74 635 133 b 429 57 568 60 510 57 z m 149 263 l 158 263 l 217 389 l 206 389 z m 211 13 l 446 13 l 450 22 l 218 22 b 214 17 217 21 215 18 z m 228 440 l 238 440 l 336 654 l 325 654 z m 321 538 l 393 690 b 600 758 453 706 533 731 l 558 664 b 532 675 556 664 551 675 b 321 538 425 675 328 538 z m 344 694 l 354 694 l 372 731 l 363 731 z m 382 215 l 626 753 l 667 753 b 722 689 704 753 722 719 b 640 456 722 651 708 603 b 533 261 597 363 563 299 b 463 215 508 229 488 215 z m 397 811 l 407 811 l 449 901 l 438 901 z m 417 749 l 497 917 l 683 917 b 492 832 683 911 492 883 b 781 903 492 796 742 874 b 846 868 813 892 829 883 b 417 749 721 853 533 796 z m 435 303 l 444 303 l 458 332 l 449 332 z m 539 218 b 639 392 564 249 607 325 b 671 335 646 392 617 335 b 863 481 801 335 851 479 b 769 286 849 422 796 322 b 726 304 765 299 749 304 b 539 218 679 304 604 264 z m 565 351 l 576 351 b 606 410 586 368 594 388 l 594 410 b 565 351 585 389 575 368 z m 656 543 l 667 543 b 708 672 696 611 707 646 l 699 672 b 656 543 696 647 686 613 z m 688 774 b 869 835 744 786 828 817 b 904 732 888 817 906 760 b 861 771 900 732 893 771 b 744 653 789 771 751 651 b 749 694 747 665 749 676 b 688 774 749 736 725 768 z m 900 864 b 917 835 907 856 913 844 l 931 835 b 913 864 925 844 919 854 z "},"Ď":{"ha":718,"x_min":0,"x_max":0,"o":"m 65 33 l 431 33 b 764 219 590 33 679 97 b 849 371 792 260 819 310 b 933 707 906 485 933 594 b 797 926 933 814 889 900 b 699 942 769 936 736 942 l 479 942 z m 104 57 l 246 369 b 281 317 250 369 240 317 b 456 440 379 317 450 442 l 375 258 b 329 286 372 258 372 286 b 147 103 260 286 147 161 b 243 74 147 71 189 74 l 478 74 b 653 133 569 74 635 133 b 429 57 568 60 510 57 z m 149 263 l 158 263 l 217 389 l 206 389 z m 211 13 l 446 13 l 450 22 l 218 22 b 214 17 217 21 215 18 z m 228 440 l 238 440 l 336 654 l 325 654 z m 321 538 l 393 690 b 600 758 453 706 533 731 l 558 664 b 532 675 556 664 551 675 b 321 538 425 675 328 538 z m 344 694 l 354 694 l 372 731 l 363 731 z m 382 215 l 626 753 l 667 753 b 722 689 704 753 722 719 b 640 456 722 651 708 603 b 533 261 597 363 563 299 b 463 215 508 229 488 215 z m 397 811 l 407 811 l 449 901 l 438 901 z m 417 749 l 497 917 l 683 917 b 492 832 683 911 492 883 b 781 903 492 796 742 874 b 846 868 813 892 829 883 b 417 749 721 853 533 796 z m 435 303 l 444 303 l 458 332 l 449 332 z m 539 218 b 639 392 564 249 607 325 b 671 335 646 392 617 335 b 863 481 801 335 857 479 b 769 286 849 422 796 322 b 726 304 765 299 749 304 b 539 218 679 304 604 264 z m 565 351 l 576 351 b 606 410 586 368 594 388 l 594 410 b 565 351 585 389 575 368 z m 624 1113 l 703 996 l 771 996 l 933 1113 l 821 1113 l 749 1038 l 722 1113 z m 656 543 l 667 543 b 708 672 696 611 707 646 l 699 672 b 656 543 696 647 686 613 z m 675 1089 l 697 1089 l 721 1032 l 715 1032 b 675 1089 704 1042 689 1069 z m 688 774 b 869 835 744 786 828 817 b 904 732 888 817 906 760 b 861 771 900 732 893 771 b 744 653 789 771 751 651 b 749 694 747 665 749 676 b 688 774 749 736 725 768 z m 806 1064 l 832 1089 l 854 1089 l 819 1063 z m 900 864 b 917 835 907 856 913 844 l 931 835 b 913 864 925 844 919 854 z "},"Đ":{"ha":749,"x_min":0,"x_max":0,"o":"m 96 33 l 461 33 b 794 219 621 33 710 97 b 879 371 822 260 850 310 b 964 707 936 485 964 594 b 828 926 964 814 919 900 b 729 942 800 936 767 942 l 510 942 l 311 507 l 279 507 l 261 471 l 293 471 z m 135 57 l 276 369 b 311 317 281 369 271 317 b 486 440 410 317 481 442 l 406 258 b 360 286 403 258 403 286 b 178 103 290 286 178 161 b 274 74 178 71 219 74 l 508 74 b 683 133 600 74 665 133 b 460 57 599 60 540 57 z m 179 263 l 189 263 l 247 389 l 236 389 z m 242 13 l 476 13 l 481 22 l 249 22 b 244 17 247 21 246 18 z m 310 553 l 319 553 l 367 654 l 356 654 z m 351 538 l 424 690 b 631 758 483 706 564 731 l 589 664 b 563 675 586 664 582 675 b 351 538 456 675 358 538 z m 375 694 l 385 694 l 397 721 l 388 721 z m 413 215 l 526 468 l 588 468 l 607 507 l 546 507 l 657 753 l 697 753 b 753 689 735 753 753 719 b 671 456 753 651 739 603 b 564 261 628 363 593 299 b 493 215 539 229 518 215 z m 428 811 l 438 811 l 479 901 l 468 901 z m 447 749 l 528 917 l 714 917 b 522 832 714 911 522 883 b 811 903 522 796 772 874 b 876 868 843 892 860 883 b 447 749 751 853 564 796 z m 465 303 l 475 303 l 489 332 l 479 332 z m 569 218 b 669 392 594 249 638 325 b 701 335 676 392 647 335 b 893 481 832 335 888 479 b 800 286 879 422 826 322 b 757 304 796 299 779 304 b 569 218 710 304 635 264 z m 596 351 l 607 351 b 636 410 617 368 625 388 l 625 410 b 596 351 615 389 606 368 z m 686 543 l 697 543 b 739 672 726 611 738 646 l 729 672 b 686 543 726 647 717 613 z m 718 774 b 900 835 775 786 858 817 b 935 732 918 817 936 760 b 892 771 931 732 924 771 b 775 653 819 771 782 651 b 779 694 778 665 779 676 b 718 774 779 736 756 768 z m 931 864 b 947 835 938 856 943 844 l 961 835 b 943 864 956 844 950 854 z "},"Ð":{"ha":749,"x_min":0,"x_max":0,"o":"m 96 33 l 461 33 b 794 219 621 33 710 97 b 879 371 822 260 850 310 b 964 707 936 485 964 594 b 828 926 964 814 919 900 b 729 942 800 936 767 942 l 510 942 l 311 507 l 279 507 l 261 471 l 293 471 z m 135 57 l 276 369 b 311 317 281 369 271 317 b 486 440 410 317 481 442 l 406 258 b 360 286 403 258 403 286 b 178 103 290 286 178 161 b 274 74 178 71 219 74 l 508 74 b 683 133 600 74 665 133 b 460 57 599 60 540 57 z m 179 263 l 189 263 l 247 389 l 236 389 z m 242 13 l 476 13 l 481 22 l 249 22 b 244 17 247 21 246 18 z m 310 553 l 319 553 l 367 654 l 356 654 z m 351 538 l 424 690 b 631 758 483 706 564 731 l 589 664 b 563 675 586 664 582 675 b 351 538 456 675 358 538 z m 375 694 l 385 694 l 397 721 l 388 721 z m 413 215 l 526 468 l 588 468 l 607 507 l 546 507 l 657 753 l 697 753 b 753 689 735 753 753 719 b 671 456 753 651 739 603 b 564 261 628 363 593 299 b 493 215 539 229 518 215 z m 428 811 l 438 811 l 479 901 l 468 901 z m 447 749 l 528 917 l 714 917 b 522 832 714 911 522 883 b 811 903 522 796 772 874 b 876 868 843 892 860 883 b 447 749 751 853 564 796 z m 465 303 l 475 303 l 489 332 l 479 332 z m 569 218 b 669 392 594 249 638 325 b 701 335 676 392 647 335 b 893 481 832 335 888 479 b 800 286 879 422 826 322 b 757 304 796 299 779 304 b 569 218 710 304 635 264 z m 596 351 l 607 351 b 636 410 617 368 625 388 l 625 410 b 596 351 615 389 606 368 z m 686 543 l 697 543 b 739 672 726 611 738 646 l 729 672 b 686 543 726 647 717 613 z m 718 774 b 900 835 775 786 858 817 b 935 732 918 817 936 760 b 892 771 931 732 924 771 b 775 653 819 771 782 651 b 779 694 778 665 779 676 b 718 774 779 736 756 768 z m 931 864 b 947 835 938 856 943 844 l 961 835 b 943 864 956 844 950 854 z "},"E":{"ha":610,"x_min":0,"x_max":0,"o":"m 65 31 l 567 31 l 661 242 l 393 242 l 461 388 l 681 388 l 775 599 l 556 599 l 618 731 l 889 731 l 983 942 l 481 942 z m 107 57 l 249 369 b 283 317 253 369 243 317 b 454 438 376 317 446 438 l 372 258 b 332 286 369 258 369 286 b 150 103 263 286 150 161 b 246 74 150 71 192 74 l 446 74 b 549 57 486 74 549 69 z m 119 201 l 133 201 l 203 363 l 192 363 z m 236 453 l 247 453 l 303 576 l 292 576 z m 274 10 l 519 10 l 525 21 l 278 21 z m 317 631 l 328 631 l 350 679 l 339 679 z m 322 538 l 394 690 b 593 753 454 706 526 729 l 554 664 b 528 675 551 664 547 675 b 322 538 421 675 329 538 z m 371 749 l 381 749 l 451 901 l 440 901 z m 419 749 b 497 915 457 819 497 915 l 686 917 b 494 832 686 913 494 883 b 813 915 494 796 744 874 l 940 915 l 929 894 b 419 749 824 879 593 815 z m 435 310 l 446 310 l 468 357 l 457 357 z m 481 411 b 624 440 488 421 583 424 b 693 482 669 460 688 482 l 663 411 z m 522 365 l 668 365 l 674 376 l 528 376 z m 619 757 b 910 847 701 776 824 807 l 868 757 z m 710 708 l 750 708 l 756 719 l 715 719 z m 729 475 l 742 475 l 768 532 l 756 532 z m 785 708 l 879 708 l 883 719 l 789 719 z "},"É":{"ha":610,"x_min":0,"x_max":0,"o":"m 65 31 l 567 31 l 661 242 l 393 242 l 461 388 l 681 388 l 775 599 l 556 599 l 618 731 l 889 731 l 983 942 l 481 942 z m 107 57 l 249 369 b 283 317 253 369 243 317 b 454 438 376 317 446 438 l 372 258 b 332 286 369 258 369 286 b 150 103 263 286 150 161 b 246 74 150 71 192 74 l 446 74 b 549 57 486 74 549 69 z m 119 201 l 133 201 l 203 363 l 192 363 z m 236 453 l 247 453 l 303 576 l 292 576 z m 274 10 l 519 10 l 525 21 l 278 21 z m 317 631 l 328 631 l 350 679 l 339 679 z m 322 538 l 394 690 b 593 753 454 706 526 729 l 554 664 b 528 675 551 664 547 675 b 322 538 421 675 329 538 z m 371 749 l 381 749 l 451 901 l 440 901 z m 419 749 b 497 915 457 819 497 915 l 686 917 b 494 832 686 913 494 883 b 813 915 494 796 744 874 l 940 915 l 929 894 b 419 749 824 879 593 815 z m 435 310 l 446 310 l 468 357 l 457 357 z m 481 411 b 624 440 488 421 583 424 b 693 482 669 460 688 482 l 663 411 z m 522 365 l 668 365 l 674 376 l 528 376 z m 619 757 b 910 847 701 776 824 807 l 868 757 z m 710 708 l 750 708 l 756 719 l 715 719 z m 713 996 l 775 996 l 904 1113 l 794 1113 z m 729 475 l 742 475 l 768 532 l 756 532 z m 765 1025 l 810 1086 l 836 1086 l 769 1025 z m 785 708 l 879 708 l 883 719 l 789 719 z "},"Ě":{"ha":610,"x_min":0,"x_max":0,"o":"m 65 31 l 567 31 l 661 242 l 393 242 l 461 388 l 681 388 l 775 599 l 556 599 l 618 731 l 889 731 l 983 942 l 481 942 z m 107 57 l 249 369 b 283 317 253 369 243 317 b 454 438 376 317 446 438 l 372 258 b 332 286 369 258 369 286 b 150 103 263 286 150 161 b 246 74 150 71 192 74 l 446 74 b 549 57 486 74 549 69 z m 119 201 l 133 201 l 203 363 l 192 363 z m 236 453 l 247 453 l 303 576 l 292 576 z m 274 10 l 519 10 l 525 21 l 278 21 z m 317 631 l 328 631 l 350 679 l 339 679 z m 322 538 l 394 690 b 593 753 454 706 526 729 l 554 664 b 528 675 551 664 547 675 b 322 538 421 675 329 538 z m 371 749 l 381 749 l 451 901 l 440 901 z m 419 749 b 497 915 457 819 497 915 l 686 917 b 494 832 686 913 494 883 b 813 915 494 796 744 874 l 940 915 l 929 894 b 419 749 824 879 593 815 z m 435 310 l 446 310 l 468 357 l 457 357 z m 481 411 b 624 440 488 421 583 424 b 693 482 669 460 688 482 l 663 411 z m 522 365 l 668 365 l 674 376 l 528 376 z m 619 757 b 910 847 701 776 824 807 l 868 757 z m 628 1113 l 707 996 l 775 996 l 938 1113 l 825 1113 l 753 1038 l 726 1113 z m 679 1089 l 701 1089 l 725 1032 l 719 1032 b 679 1089 708 1042 693 1069 z m 710 708 l 750 708 l 756 719 l 715 719 z m 729 475 l 742 475 l 768 532 l 756 532 z m 785 708 l 879 708 l 883 719 l 789 719 z m 810 1064 l 836 1089 l 858 1089 l 824 1063 z "},"Ê":{"ha":610,"x_min":0,"x_max":0,"o":"m 65 31 l 567 31 l 661 242 l 393 242 l 461 388 l 681 388 l 775 599 l 556 599 l 618 731 l 889 731 l 983 942 l 481 942 z m 107 57 l 249 369 b 283 317 253 369 243 317 b 454 438 376 317 446 438 l 372 258 b 332 286 369 258 369 286 b 150 103 263 286 150 161 b 246 74 150 71 192 74 l 446 74 b 549 57 486 74 549 69 z m 119 201 l 133 201 l 203 363 l 192 363 z m 236 453 l 247 453 l 303 576 l 292 576 z m 274 10 l 519 10 l 525 21 l 278 21 z m 317 631 l 328 631 l 350 679 l 339 679 z m 322 538 l 394 690 b 593 753 454 706 526 729 l 554 664 b 528 675 551 664 547 675 b 322 538 421 675 329 538 z m 371 749 l 381 749 l 451 901 l 440 901 z m 419 749 b 497 915 457 819 497 915 l 686 917 b 494 832 686 913 494 883 b 813 915 494 796 744 874 l 940 915 l 929 894 b 419 749 824 879 593 815 z m 435 310 l 446 310 l 468 357 l 457 357 z m 481 411 b 624 440 488 421 583 424 b 693 482 669 460 688 482 l 663 411 z m 522 365 l 668 365 l 674 376 l 528 376 z m 619 757 b 910 847 701 776 824 807 l 868 757 z m 619 996 l 693 996 l 733 1064 l 757 1024 b 811 996 767 1007 782 996 b 883 1033 844 996 863 1007 l 946 1113 l 872 1113 l 825 1036 l 800 1078 b 751 1113 785 1103 774 1113 b 683 1076 724 1113 706 1106 z m 663 1017 l 688 1049 l 697 1047 l 681 1017 z m 710 708 l 750 708 l 756 719 l 715 719 z m 729 475 l 742 475 l 768 532 l 756 532 z m 747 1086 l 765 1086 l 803 1022 l 792 1022 z m 785 708 l 879 708 l 883 719 l 789 719 z m 856 1051 l 885 1094 l 904 1094 l 869 1051 z "},"Ë":{"ha":610,"x_min":0,"x_max":0,"o":"m 65 31 l 567 31 l 661 242 l 393 242 l 461 388 l 681 388 l 775 599 l 556 599 l 618 731 l 889 731 l 983 942 l 481 942 z m 107 57 l 249 369 b 283 317 253 369 243 317 b 454 438 376 317 446 438 l 372 258 b 332 286 369 258 369 286 b 150 103 263 286 150 161 b 246 74 150 71 192 74 l 446 74 b 549 57 486 74 549 69 z m 119 201 l 133 201 l 203 363 l 192 363 z m 236 453 l 247 453 l 303 576 l 292 576 z m 274 10 l 519 10 l 525 21 l 278 21 z m 317 631 l 328 631 l 350 679 l 339 679 z m 322 538 l 394 690 b 593 753 454 706 526 729 l 554 664 b 528 675 551 664 547 675 b 322 538 421 675 329 538 z m 371 749 l 381 749 l 451 901 l 440 901 z m 419 749 b 497 915 457 819 497 915 l 686 917 b 494 832 686 913 494 883 b 813 915 494 796 744 874 l 940 915 l 929 894 b 419 749 824 879 593 815 z m 435 310 l 446 310 l 468 357 l 457 357 z m 481 411 b 624 440 488 421 583 424 b 693 482 669 460 688 482 l 663 411 z m 490 1014 l 726 1014 l 756 1079 l 519 1079 z m 522 365 l 668 365 l 674 376 l 528 376 z m 531 1040 l 536 1053 l 715 1053 l 710 1040 z m 619 757 b 910 847 701 776 824 807 l 868 757 z m 710 708 l 750 708 l 756 719 l 715 719 z m 729 475 l 742 475 l 768 532 l 756 532 z m 782 1014 l 1018 1014 l 1047 1079 l 811 1079 z m 785 708 l 879 708 l 883 719 l 789 719 z m 822 1040 l 828 1053 l 872 1053 l 867 1040 z m 893 1040 l 899 1053 l 1007 1053 l 1001 1040 z "},"È":{"ha":610,"x_min":0,"x_max":0,"o":"m 65 31 l 567 31 l 661 242 l 393 242 l 461 388 l 681 388 l 775 599 l 556 599 l 618 731 l 889 731 l 983 942 l 481 942 z m 107 57 l 249 369 b 283 317 253 369 243 317 b 454 438 376 317 446 438 l 372 258 b 332 286 369 258 369 286 b 150 103 263 286 150 161 b 246 74 150 71 192 74 l 446 74 b 549 57 486 74 549 69 z m 119 201 l 133 201 l 203 363 l 192 363 z m 236 453 l 247 453 l 303 576 l 292 576 z m 274 10 l 519 10 l 525 21 l 278 21 z m 317 631 l 328 631 l 350 679 l 339 679 z m 322 538 l 394 690 b 593 753 454 706 526 729 l 554 664 b 528 675 551 664 547 675 b 322 538 421 675 329 538 z m 371 749 l 381 749 l 451 901 l 440 901 z m 419 749 b 497 915 457 819 497 915 l 686 917 b 494 832 686 913 494 883 b 813 915 494 796 744 874 l 940 915 l 929 894 b 419 749 824 879 593 815 z m 435 310 l 446 310 l 468 357 l 457 357 z m 481 411 b 624 440 488 421 583 424 b 693 482 669 460 688 482 l 663 411 z m 522 365 l 668 365 l 674 376 l 528 376 z m 619 757 b 910 847 701 776 824 807 l 868 757 z m 664 1113 l 729 996 l 792 996 l 774 1113 z m 710 708 l 750 708 l 756 719 l 715 719 z m 717 1086 l 743 1086 l 754 1025 l 750 1025 z m 729 475 l 742 475 l 768 532 l 756 532 z m 785 708 l 879 708 l 883 719 l 789 719 z "},"F":{"ha":607,"x_min":0,"x_max":0,"o":"m 68 31 l 300 31 l 451 364 l 683 364 l 779 574 l 547 574 l 621 735 l 892 735 l 986 942 l 483 942 z m 110 57 l 251 369 b 286 317 256 369 246 317 b 457 438 379 317 449 438 l 375 258 b 335 286 372 258 372 286 b 153 103 265 286 153 161 b 193 74 153 81 163 74 b 275 57 235 74 275 68 z m 110 169 l 121 169 l 188 315 l 176 315 z m 161 10 l 289 10 l 293 21 l 164 21 z m 210 392 l 222 392 l 253 460 l 242 460 z m 275 535 l 288 535 l 383 744 l 372 744 z m 325 538 l 397 690 b 596 753 457 706 529 729 l 557 664 b 531 675 554 664 550 675 b 325 538 424 675 332 538 z m 375 169 l 388 169 l 400 199 l 389 199 z m 422 749 b 500 915 460 819 500 915 l 689 917 b 497 832 689 913 497 883 b 815 915 497 796 747 874 l 943 915 l 932 894 b 422 749 826 879 596 815 z m 424 861 l 436 861 l 461 917 l 450 917 z m 475 392 b 626 421 482 401 586 404 b 703 479 672 440 697 479 l 665 392 z m 533 342 l 656 342 l 658 353 l 539 353 z m 590 643 l 601 643 l 618 681 l 607 681 z m 622 757 b 913 847 704 775 836 807 l 871 757 z m 675 713 l 774 713 l 778 724 l 679 724 z m 750 486 l 761 486 l 782 531 l 771 531 z m 808 713 l 860 713 l 864 724 l 813 724 z "},"G":{"ha":753,"x_min":0,"x_max":0,"o":"m 456 18 b 836 308 658 18 757 154 b 917 500 863 363 889 425 l 618 500 l 547 347 l 633 347 l 611 303 b 561 228 593 268 578 244 b 504 203 543 211 525 203 b 458 219 486 203 469 208 b 438 275 449 229 438 246 b 517 519 438 321 464 406 b 700 768 613 731 651 768 b 751 715 732 768 751 749 b 714 607 751 689 738 658 b 708 597 713 604 710 601 l 956 597 b 992 749 974 636 992 693 b 733 957 992 878 890 957 b 315 603 511 957 410 797 b 211 261 244 463 211 350 b 276 76 211 181 233 118 b 456 18 318 38 378 18 z m 204 374 l 214 374 b 224 408 217 385 219 396 l 214 408 b 204 374 210 396 207 385 z m 235 267 b 243 344 236 293 238 318 b 294 306 247 344 239 306 b 453 435 388 306 443 435 b 408 257 417 363 408 297 b 369 276 404 257 401 276 b 268 193 314 276 268 251 b 460 58 268 115 344 58 b 690 135 586 58 674 133 b 454 40 632 74 544 40 b 235 267 342 40 229 99 z m 286 590 l 299 590 b 351 692 308 613 339 671 l 338 692 b 286 590 326 669 297 614 z m 299 532 b 367 661 328 586 350 633 b 617 758 439 683 525 717 b 542 647 601 742 572 699 b 503 658 536 653 519 658 b 299 532 375 658 308 532 z m 343 11 b 457 -6 378 0 415 -6 b 526 0 482 -6 504 -4 l 532 13 b 457 6 508 8 483 6 b 349 21 417 6 381 11 z m 411 808 l 424 808 b 483 872 443 832 463 854 l 467 872 b 411 808 447 854 429 832 z m 414 729 b 515 846 447 781 481 818 b 747 931 579 900 654 931 b 581 851 747 928 581 899 b 839 922 581 814 794 903 b 896 886 856 917 875 906 b 414 729 749 864 540 797 z m 456 321 l 467 321 b 472 344 468 328 469 336 l 461 344 b 456 321 458 336 457 328 z m 550 4 b 585 14 561 7 574 10 l 592 29 b 556 18 581 25 568 21 z m 556 413 l 565 413 l 607 500 l 597 500 z m 574 275 l 585 275 b 604 313 592 286 597 299 l 594 313 b 574 275 588 297 581 285 z m 589 221 b 664 363 614 246 643 303 b 704 335 668 363 664 335 b 876 471 807 335 865 471 b 793 289 854 410 801 303 b 761 304 788 297 783 304 b 589 221 660 304 599 219 z m 708 644 l 719 644 b 740 710 732 671 739 693 l 731 710 b 708 644 729 694 721 672 z m 721 788 b 932 853 788 800 906 832 b 963 746 944 838 968 799 b 915 785 958 746 953 785 b 769 672 828 785 775 672 b 721 788 786 724 783 779 z m 758 576 l 806 576 l 811 588 l 764 588 z m 840 576 l 940 576 l 944 588 l 846 588 z m 982 842 b 1000 783 990 824 996 804 l 1011 783 b 993 842 1008 804 1001 824 z "},"H":{"ha":715,"x_min":0,"x_max":0,"o":"m 74 31 l 306 31 l 464 378 l 596 378 l 438 31 l 669 31 l 1085 942 l 853 942 l 682 567 l 550 567 l 721 942 l 489 942 z m 113 57 l 265 390 b 300 332 268 390 257 332 b 447 403 381 332 442 403 l 388 278 b 354 304 383 278 392 304 b 161 108 264 304 161 172 b 283 57 161 53 283 86 z m 129 10 l 146 10 l 151 21 l 133 21 z m 133 213 l 146 213 l 194 319 l 182 319 z m 188 10 l 293 10 l 300 21 l 193 21 z m 229 426 l 242 426 l 369 707 l 357 707 z m 335 549 l 407 701 b 613 769 467 717 546 742 l 568 675 b 538 686 565 675 565 686 b 335 549 432 686 340 550 z m 367 142 l 379 142 l 396 179 l 383 179 z m 419 843 l 432 843 l 468 922 l 456 922 z m 425 57 l 438 57 l 457 99 l 444 99 z m 435 758 l 506 915 l 614 915 b 503 846 614 911 503 886 b 671 903 503 804 622 861 l 635 829 b 435 758 586 819 488 785 z m 474 163 l 486 163 l 551 306 l 539 306 z m 481 57 l 633 390 b 668 332 636 390 625 332 b 842 476 749 332 833 476 l 751 278 b 718 304 747 278 756 304 b 529 107 631 306 529 172 b 647 57 529 49 647 90 z m 494 10 l 653 10 l 660 21 l 500 21 z m 496 356 l 542 356 l 547 367 l 500 367 z m 611 676 l 622 676 l 631 696 l 619 696 z m 715 688 l 726 688 l 788 825 l 776 825 z m 753 656 l 810 781 b 1013 851 878 797 949 825 l 953 724 b 921 765 949 724 960 765 b 753 656 828 765 761 657 z m 800 879 l 811 879 l 831 921 l 819 921 z m 835 840 l 868 915 l 1036 915 l 1033 908 b 835 840 981 894 903 871 z "},"I":{"ha":354,"x_min":0,"x_max":0,"o":"m 72 33 l 304 33 l 719 944 l 486 944 z m 111 57 l 264 390 b 299 332 267 390 256 332 b 472 476 379 332 464 476 l 382 278 b 349 304 378 278 386 304 b 160 107 261 304 160 171 b 278 57 160 49 278 90 z m 129 208 l 140 208 l 199 338 l 188 338 z m 153 10 l 293 10 l 297 21 l 157 21 z m 217 403 l 228 403 l 247 443 l 236 443 z m 288 557 l 299 557 l 360 690 l 349 690 z m 333 549 l 406 701 b 611 769 465 717 544 742 l 567 675 b 536 686 564 675 564 686 b 333 549 428 686 339 547 z m 428 864 l 439 864 l 465 922 l 454 922 z m 433 758 l 504 915 l 614 915 b 501 846 614 911 501 886 b 671 903 501 804 622 861 l 636 829 b 433 758 589 819 488 785 z "},"Í":{"ha":354,"x_min":0,"x_max":0,"o":"m 72 33 l 304 33 l 719 944 l 486 944 z m 111 57 l 264 390 b 299 332 267 390 256 332 b 472 476 379 332 464 476 l 382 278 b 349 304 378 278 386 304 b 160 107 261 304 160 171 b 278 57 160 49 278 90 z m 129 208 l 140 208 l 199 338 l 188 338 z m 153 10 l 293 10 l 297 21 l 157 21 z m 217 403 l 228 403 l 247 443 l 236 443 z m 288 557 l 299 557 l 360 690 l 349 690 z m 333 549 l 406 701 b 611 769 465 717 544 742 l 567 675 b 536 686 564 675 564 686 b 333 549 428 686 339 547 z m 428 864 l 439 864 l 465 922 l 454 922 z m 433 758 l 504 915 l 614 915 b 501 846 614 911 501 886 b 671 903 501 804 622 861 l 636 829 b 433 758 589 819 488 785 z m 664 996 l 726 996 l 856 1113 l 746 1113 z m 717 1025 l 761 1086 l 788 1086 l 721 1025 z "},"Î":{"ha":368,"x_min":0,"x_max":0,"o":"m 86 33 l 318 33 l 733 944 l 500 944 z m 125 57 l 278 390 b 313 332 281 390 269 332 b 486 476 393 332 478 476 l 396 278 b 363 304 392 278 400 304 b 174 107 275 304 174 171 b 292 57 174 49 292 90 z m 143 208 l 154 208 l 213 338 l 201 338 z m 167 10 l 307 10 l 311 21 l 171 21 z m 231 403 l 242 403 l 261 443 l 250 443 z m 301 557 l 313 557 l 374 690 l 363 690 z m 347 549 l 419 701 b 625 769 479 717 558 742 l 581 675 b 550 686 578 675 578 686 b 347 549 442 686 353 547 z m 442 864 l 453 864 l 479 922 l 468 922 z m 447 758 l 518 915 l 628 915 b 515 846 628 911 515 886 b 685 903 515 804 636 861 l 650 829 b 447 758 603 819 501 785 z m 486 1014 l 607 1014 l 676 1094 l 706 1014 l 796 1014 l 717 1131 l 649 1131 z m 565 1038 b 639 1094 589 1057 619 1085 l 644 1094 l 588 1038 z m 714 1063 l 729 1064 b 749 1038 736 1054 743 1046 l 726 1038 z "},"Ï":{"ha":342,"x_min":0,"x_max":0,"o":"m 71 33 l 303 33 l 718 944 l 485 944 z m 110 57 l 263 390 b 297 332 265 390 254 332 b 471 476 378 332 463 476 l 381 278 b 347 304 376 278 385 304 b 158 107 260 304 158 171 b 276 57 158 49 276 90 z m 128 208 l 139 208 l 197 338 l 186 338 z m 151 10 l 292 10 l 296 21 l 156 21 z m 215 403 l 226 403 l 246 443 l 235 443 z m 286 557 l 297 557 l 358 690 l 347 690 z m 332 549 l 404 701 b 610 769 464 717 543 742 l 565 675 b 535 686 563 675 563 686 b 332 549 428 686 339 549 z m 372 1014 l 608 1014 l 638 1079 l 401 1079 z m 413 1040 l 418 1053 l 597 1053 l 592 1040 z m 426 864 l 438 864 l 464 922 l 453 922 z m 432 758 l 503 915 l 613 915 b 500 846 613 911 500 886 b 669 903 500 804 621 861 l 635 829 b 432 758 588 819 486 785 z m 664 1014 l 900 1014 l 929 1079 l 693 1079 z m 704 1040 l 710 1053 l 754 1053 l 749 1040 z m 775 1040 l 781 1053 l 889 1053 l 883 1040 z "},"Ì":{"ha":358,"x_min":0,"x_max":0,"o":"m 76 33 l 308 33 l 724 944 l 490 944 z m 115 57 l 268 390 b 303 332 271 390 260 332 b 476 476 383 332 468 476 l 386 278 b 353 304 382 278 390 304 b 164 107 265 304 164 171 b 282 57 164 49 282 90 z m 133 208 l 144 208 l 203 338 l 192 338 z m 157 10 l 297 10 l 301 21 l 161 21 z m 221 403 l 232 403 l 251 443 l 240 443 z m 292 557 l 303 557 l 364 690 l 353 690 z m 338 549 l 410 701 b 615 769 469 717 549 742 l 571 675 b 540 686 568 675 568 686 b 338 549 432 686 343 547 z m 432 864 l 443 864 l 469 922 l 458 922 z m 438 758 l 508 915 l 618 915 b 506 846 618 911 506 886 b 675 903 506 804 626 861 l 640 829 b 438 758 593 819 492 785 z m 531 1113 l 596 996 l 658 996 l 640 1113 z m 583 1086 l 610 1086 l 621 1025 l 617 1025 z "},"J":{"ha":467,"x_min":0,"x_max":0,"o":"m 132 239 l 122 31 b 517 238 365 32 458 106 l 842 942 l 608 942 l 322 319 b 132 239 292 250 218 243 z m 151 58 l 157 188 b 225 83 164 188 157 83 b 429 153 338 83 419 153 b 151 58 372 94 289 63 z m 168 213 b 346 308 257 218 321 246 l 385 397 b 426 339 388 397 376 339 b 599 483 504 339 590 483 l 508 285 b 475 311 504 285 513 311 b 190 207 374 311 318 207 b 168 213 183 207 172 210 z m 189 14 b 357 50 279 18 328 38 l 358 60 b 190 22 325 46 286 28 z m 306 333 l 317 333 l 411 531 l 399 531 z m 422 581 l 433 581 l 450 617 l 439 617 z m 457 549 l 529 701 b 735 769 589 717 668 742 l 690 675 b 660 686 688 675 688 686 b 457 549 553 686 464 549 z m 535 829 l 547 829 l 589 922 l 578 922 z m 557 758 l 628 915 l 738 915 b 625 846 738 911 625 886 b 794 903 625 804 746 861 l 758 829 b 557 758 711 819 611 785 z "},"K":{"ha":664,"x_min":0,"x_max":0,"o":"m 58 31 l 290 31 l 493 451 l 524 451 l 453 31 l 686 31 l 710 410 l 1101 942 l 885 942 l 544 490 l 511 490 l 706 942 l 472 942 z m 99 57 l 240 369 b 286 317 244 369 242 317 b 456 436 386 317 446 436 l 367 257 b 324 286 364 257 360 286 b 139 93 239 286 143 129 b 185 74 138 74 157 74 b 274 57 236 74 261 65 z m 124 226 l 135 226 l 214 397 l 203 397 z m 131 10 l 282 10 l 286 21 l 136 21 z m 263 531 l 274 531 l 350 696 l 338 696 z m 319 549 l 392 701 b 603 769 451 717 536 742 l 563 675 b 528 686 560 675 556 686 b 319 549 421 686 326 549 z m 356 146 l 367 146 l 385 179 l 372 179 z m 365 754 l 376 754 l 399 803 l 388 803 z m 408 851 l 419 851 l 453 922 l 442 922 z m 421 758 l 492 915 l 601 915 b 489 846 601 911 489 886 b 661 903 489 804 613 861 l 626 829 b 421 758 579 819 475 785 z m 436 50 l 446 50 l 460 143 l 451 143 z m 479 299 l 488 300 l 496 347 l 488 347 z m 485 57 l 536 351 b 564 318 540 351 536 318 b 693 461 638 318 688 461 b 675 289 682 410 678 367 b 646 299 669 294 658 299 b 511 107 524 299 511 153 b 572 74 511 78 513 74 b 663 57 621 74 653 64 z m 525 10 l 607 10 l 607 21 l 526 21 z m 642 10 l 675 10 l 675 21 l 642 21 z m 642 650 l 651 650 l 739 765 l 728 765 z m 644 776 l 654 776 l 676 826 l 667 826 z m 692 649 l 799 782 b 1006 856 847 790 957 829 l 919 742 b 885 758 917 742 911 758 b 692 649 799 758 706 649 z m 710 246 l 721 246 l 722 272 l 711 272 z m 779 838 l 790 838 l 853 919 l 842 919 z m 838 842 l 894 917 l 1047 917 l 1042 910 b 838 842 985 896 908 874 z "},"L":{"ha":467,"x_min":0,"x_max":0,"o":"m 60 31 l 449 31 l 544 242 l 388 242 l 707 942 l 474 942 z m 99 57 l 251 390 b 286 332 254 390 243 332 b 464 476 367 332 456 478 l 374 278 b 340 304 369 278 378 304 b 147 110 251 308 147 175 b 214 74 147 85 168 74 b 417 57 389 74 417 68 z m 122 218 l 135 218 l 150 253 l 139 253 z m 167 317 l 178 317 l 238 446 l 226 446 z m 206 10 l 243 10 l 249 21 l 210 21 z m 274 10 l 426 10 l 431 21 l 279 21 z m 283 572 l 294 572 l 321 629 l 310 629 z m 324 549 l 396 701 b 599 769 456 717 532 742 l 556 675 b 525 686 553 675 553 686 b 324 549 418 686 329 550 z m 375 774 l 386 774 l 454 921 l 443 921 z m 424 758 l 494 915 l 604 915 b 486 838 604 914 486 876 b 501 828 486 832 492 828 b 660 903 549 828 624 871 l 624 829 b 424 758 576 819 478 785 z m 668 831 l 678 831 l 700 881 l 690 881 z "},"Ĺ":{"ha":482,"x_min":0,"x_max":0,"o":"m 75 31 l 464 31 l 560 242 l 403 242 l 722 942 l 489 942 z m 114 57 l 267 390 b 301 332 269 390 258 332 b 479 476 382 332 471 478 l 389 278 b 356 304 385 278 393 304 b 163 110 265 304 163 174 b 229 74 163 85 183 74 b 432 57 404 74 432 68 z m 138 218 l 150 218 l 165 253 l 154 253 z m 182 317 l 193 317 l 253 446 l 242 446 z m 221 10 l 258 10 l 264 21 l 225 21 z m 289 10 l 442 10 l 446 21 l 294 21 z m 299 572 l 310 572 l 336 629 l 325 629 z m 339 549 l 411 701 b 614 769 471 717 547 742 l 571 675 b 540 686 568 675 568 686 b 339 549 435 686 346 550 z m 390 774 l 401 774 l 469 921 l 458 921 z m 439 758 l 510 915 l 619 915 b 501 838 619 914 501 876 b 517 828 501 832 507 828 b 675 903 564 828 639 871 l 639 829 b 439 758 592 819 493 785 z m 581 996 l 643 996 l 772 1113 l 663 1113 z m 633 1025 l 678 1086 l 704 1086 l 638 1025 z m 683 831 l 693 831 l 715 881 l 706 881 z "},"M":{"ha":989,"x_min":0,"x_max":0,"o":"m 75 31 l 288 31 l 569 700 l 592 700 l 450 31 l 585 31 l 1021 700 l 1054 700 l 746 31 l 956 31 l 1351 942 l 989 942 l 696 425 l 679 424 l 818 942 l 490 942 z m 117 57 l 260 369 b 282 325 263 369 251 325 b 433 436 374 325 426 436 l 357 263 b 326 285 356 263 356 285 b 153 97 238 285 151 129 b 189 74 153 78 164 74 b 272 57 235 74 271 65 z m 172 296 l 183 296 l 236 408 l 225 408 z m 181 10 l 271 10 l 275 21 l 186 21 z m 278 526 l 290 526 l 353 664 l 340 664 z m 333 538 l 410 693 b 754 797 517 715 668 764 l 736 731 b 713 740 733 731 729 740 b 604 647 644 740 610 647 b 589 719 619 713 608 719 b 528 653 563 719 546 711 b 500 668 525 653 522 668 b 333 538 424 668 338 538 z m 356 168 l 368 172 l 386 217 l 374 213 z m 356 697 l 368 697 l 379 721 l 367 721 z m 390 774 l 401 774 l 469 921 l 458 921 z m 429 749 l 510 915 l 668 915 b 515 844 668 908 515 892 b 542 831 515 835 524 831 b 779 903 600 831 740 875 l 765 853 b 429 749 692 838 546 796 z m 433 51 l 442 51 l 474 197 l 465 197 z m 476 10 l 564 10 l 571 21 l 478 21 z m 483 57 l 543 357 b 611 318 550 357 547 318 b 819 440 750 318 804 440 l 696 253 b 654 281 692 253 692 281 b 507 104 565 281 507 215 b 569 57 507 58 569 78 z m 486 289 l 494 289 l 506 336 l 497 336 z m 513 410 l 522 410 l 542 506 l 533 506 z m 703 194 l 713 194 l 747 249 l 739 249 z m 729 50 l 740 50 l 786 149 l 775 149 z m 760 10 l 864 10 l 869 21 l 765 21 z m 785 57 l 938 390 b 972 332 940 390 929 332 b 1121 476 1053 332 1113 476 l 1035 278 b 1001 304 1031 278 1039 304 b 833 108 911 304 833 172 b 932 57 833 50 932 85 z m 793 631 l 801 631 l 883 774 l 872 774 z m 794 814 l 804 814 l 817 858 l 807 858 z m 818 581 l 904 729 b 1278 851 1032 763 1157 801 l 1213 714 b 1190 749 1208 714 1221 749 b 1064 643 1125 749 1071 643 b 1100 736 1090 699 1100 726 b 1082 751 1099 747 1093 751 b 818 581 965 751 825 581 z m 867 339 l 875 339 l 892 376 l 883 376 z m 900 10 l 933 10 l 939 21 l 906 21 z m 911 844 l 924 844 l 956 901 l 943 901 z m 935 786 l 1008 915 l 1108 915 b 1024 867 1108 911 1024 892 b 1258 915 1024 840 1210 915 l 1299 915 l 1294 907 b 935 786 1221 889 1013 822 z "},"N":{"ha":750,"x_min":0,"x_max":0,"o":"m 67 31 l 286 31 l 514 553 l 540 553 l 472 31 l 704 31 l 1119 942 l 890 942 l 671 446 l 647 446 l 707 942 l 481 942 z m 110 176 l 121 176 l 217 382 l 206 382 z m 113 57 l 256 369 b 278 325 258 369 247 325 b 429 436 369 325 422 436 l 353 263 b 322 285 351 263 351 285 b 150 96 233 285 149 128 b 196 74 150 78 158 74 b 268 57 233 74 267 65 z m 158 10 l 264 10 l 269 21 l 163 21 z m 244 471 l 256 471 l 285 536 l 274 536 z m 322 538 l 399 693 b 660 768 476 710 578 740 l 647 678 b 601 701 642 678 646 701 b 322 538 476 701 326 538 z m 326 651 l 338 651 l 350 678 l 339 678 z m 356 165 l 365 165 l 386 213 l 376 213 z m 381 774 l 392 774 l 460 921 l 449 921 z m 418 749 l 499 915 l 656 915 b 504 844 656 910 504 886 b 531 831 504 835 513 831 b 671 861 564 831 619 844 l 668 832 b 418 749 593 813 500 782 z m 456 56 l 465 56 l 469 89 l 460 89 z m 474 203 l 483 203 l 489 247 l 479 247 z m 489 317 l 500 317 l 513 425 l 501 425 z m 503 57 l 542 357 b 613 318 547 357 549 318 b 869 449 800 318 854 450 l 785 269 b 742 297 781 269 786 297 b 524 104 592 297 524 236 b 588 74 524 76 535 74 b 685 57 639 74 685 65 z m 531 10 l 563 10 l 565 21 l 533 21 z m 593 10 l 689 10 l 693 21 l 596 21 z m 700 808 l 710 808 l 713 831 l 703 831 z m 772 724 l 782 724 l 800 763 l 790 763 z m 790 656 l 846 781 b 1049 851 914 797 985 825 l 986 717 b 954 758 982 717 993 758 b 790 656 868 758 800 656 z m 821 838 l 832 838 l 869 921 l 858 921 z m 875 840 l 908 915 l 1076 915 l 1074 908 b 875 840 1021 894 942 871 z "},"Ń":{"ha":754,"x_min":0,"x_max":0,"o":"m 71 31 l 290 31 l 518 553 l 544 553 l 476 31 l 708 31 l 1124 942 l 894 942 l 675 446 l 651 446 l 711 942 l 485 942 z m 114 176 l 125 176 l 221 382 l 210 382 z m 117 57 l 260 369 b 282 325 263 369 251 325 b 433 436 374 325 426 436 l 357 263 b 326 285 356 263 356 285 b 154 96 238 285 153 128 b 200 74 154 78 163 74 b 272 57 238 74 271 65 z m 163 10 l 268 10 l 274 21 l 167 21 z m 249 471 l 260 471 l 289 536 l 278 536 z m 326 538 l 403 693 b 664 768 481 710 582 740 l 651 678 b 606 701 646 678 650 701 b 326 538 481 701 331 538 z m 331 651 l 342 651 l 354 678 l 343 678 z m 360 165 l 369 165 l 390 213 l 381 213 z m 385 774 l 396 774 l 464 921 l 453 921 z m 422 749 l 503 915 l 660 915 b 508 844 660 910 508 886 b 535 831 508 835 517 831 b 675 861 568 831 624 844 l 672 832 b 422 749 597 813 504 782 z m 460 56 l 469 56 l 474 89 l 464 89 z m 478 203 l 488 203 l 493 247 l 483 247 z m 493 317 l 504 317 l 517 425 l 506 425 z m 507 57 l 546 357 b 617 318 551 357 553 318 b 874 449 804 318 858 450 l 789 269 b 746 297 785 269 790 297 b 528 104 596 297 528 236 b 592 74 528 76 539 74 b 689 57 643 74 689 65 z m 535 10 l 567 10 l 569 21 l 538 21 z m 597 10 l 693 10 l 697 21 l 600 21 z m 704 808 l 714 808 l 717 831 l 707 831 z m 767 996 l 829 996 l 958 1113 l 849 1113 z m 776 724 l 786 724 l 804 763 l 794 763 z m 794 656 l 850 781 b 1053 851 918 797 989 825 l 990 717 b 958 758 986 717 997 758 b 794 656 872 758 804 656 z m 819 1025 l 864 1086 l 890 1086 l 824 1025 z m 825 838 l 836 838 l 874 921 l 863 921 z m 879 840 l 913 915 l 1081 915 l 1078 908 b 879 840 1025 894 946 871 z "},"Ň":{"ha":754,"x_min":0,"x_max":0,"o":"m 71 31 l 290 31 l 518 553 l 544 553 l 476 31 l 708 31 l 1124 942 l 894 942 l 675 446 l 651 446 l 711 942 l 485 942 z m 114 176 l 125 176 l 221 382 l 210 382 z m 117 57 l 260 369 b 282 325 263 369 251 325 b 433 436 374 325 426 436 l 357 263 b 326 285 356 263 356 285 b 154 96 238 285 153 128 b 200 74 154 78 163 74 b 272 57 238 74 271 65 z m 163 10 l 268 10 l 274 21 l 167 21 z m 249 471 l 260 471 l 289 536 l 278 536 z m 326 538 l 403 693 b 664 768 481 710 582 740 l 651 678 b 606 701 646 678 650 701 b 326 538 481 701 331 538 z m 331 651 l 342 651 l 354 678 l 343 678 z m 360 165 l 369 165 l 390 213 l 381 213 z m 385 774 l 396 774 l 464 921 l 453 921 z m 422 749 l 503 915 l 660 915 b 508 844 660 910 508 886 b 535 831 508 835 517 831 b 675 861 568 831 624 844 l 672 832 b 422 749 597 813 504 782 z m 460 56 l 469 56 l 474 89 l 464 89 z m 478 203 l 488 203 l 493 247 l 483 247 z m 493 317 l 504 317 l 517 425 l 506 425 z m 507 57 l 546 357 b 617 318 551 357 553 318 b 874 449 804 318 858 450 l 789 269 b 746 297 785 269 790 297 b 528 104 596 297 528 236 b 592 74 528 76 539 74 b 689 57 643 74 689 65 z m 535 10 l 567 10 l 569 21 l 538 21 z m 597 10 l 693 10 l 697 21 l 600 21 z m 688 1113 l 767 996 l 835 996 l 997 1113 l 885 1113 l 813 1038 l 786 1113 z m 704 808 l 714 808 l 717 831 l 707 831 z m 739 1089 l 761 1089 l 785 1032 l 779 1032 b 739 1089 768 1042 753 1069 z m 776 724 l 786 724 l 804 763 l 794 763 z m 794 656 l 850 781 b 1053 851 918 797 989 825 l 990 717 b 958 758 986 717 997 758 b 794 656 872 758 804 656 z m 825 838 l 836 838 l 874 921 l 863 921 z m 869 1064 l 896 1089 l 918 1089 l 883 1063 z m 879 840 l 913 915 l 1081 915 l 1078 908 b 879 840 1025 894 946 871 z "},"Ñ":{"ha":747,"x_min":0,"x_max":0,"o":"m 69 31 l 289 31 l 517 553 l 543 553 l 475 31 l 707 31 l 1122 942 l 893 942 l 674 446 l 650 446 l 710 942 l 483 942 z m 113 176 l 124 176 l 219 382 l 208 382 z m 115 57 l 258 369 b 281 325 261 369 250 325 b 432 436 372 325 425 436 l 356 263 b 325 285 354 263 354 285 b 153 96 236 285 151 128 b 199 74 153 78 161 74 b 271 57 236 74 269 65 z m 161 10 l 267 10 l 272 21 l 165 21 z m 247 471 l 258 471 l 288 536 l 276 536 z m 325 538 l 401 693 b 663 768 479 710 581 740 l 650 678 b 604 701 644 678 649 701 b 325 538 479 701 329 538 z m 329 651 l 340 651 l 353 678 l 342 678 z m 358 165 l 368 165 l 389 213 l 379 213 z m 383 774 l 394 774 l 463 921 l 451 921 z m 421 749 l 501 915 l 658 915 b 507 844 658 910 507 886 b 533 831 507 835 515 831 b 674 861 567 831 622 844 l 671 832 b 421 749 596 813 503 782 z m 458 56 l 468 56 l 472 89 l 463 89 z m 476 203 l 486 203 l 492 247 l 482 247 z m 492 317 l 503 317 l 515 425 l 504 425 z m 506 57 l 544 357 b 615 318 550 357 551 318 b 872 449 803 318 857 450 l 788 269 b 744 297 783 269 789 297 b 526 104 594 297 526 236 b 590 74 526 76 538 74 b 688 57 642 74 688 65 z m 533 10 l 565 10 l 568 21 l 536 21 z m 596 10 l 692 10 l 696 21 l 599 21 z m 679 996 l 753 996 l 793 1064 l 817 1024 b 871 996 826 1007 842 996 b 943 1033 904 996 922 1007 l 1006 1113 l 932 1113 l 885 1036 l 860 1078 b 811 1113 844 1103 833 1113 b 743 1076 783 1113 765 1106 z m 703 808 l 713 808 l 715 831 l 706 831 z m 722 1017 l 747 1049 l 757 1047 l 740 1017 z m 775 724 l 785 724 l 803 763 l 793 763 z m 793 656 l 849 781 b 1051 851 917 797 988 825 l 989 717 b 957 758 985 717 996 758 b 793 656 871 758 803 656 z m 807 1086 l 825 1086 l 863 1022 l 851 1022 z m 824 838 l 835 838 l 872 921 l 861 921 z m 878 840 l 911 915 l 1079 915 l 1076 908 b 878 840 1024 894 944 871 z m 915 1051 l 944 1094 l 964 1094 l 929 1051 z "},"O":{"ha":758,"x_min":0,"x_max":0,"o":"m 422 18 b 872 374 622 11 744 135 b 992 746 954 526 986 633 b 786 954 999 885 938 954 b 318 583 558 954 447 818 b 201 247 238 433 206 328 b 422 18 193 76 265 24 z m 185 310 l 197 310 b 207 356 200 324 203 339 l 194 356 b 185 310 190 339 188 324 z m 231 244 b 246 344 231 293 239 318 b 296 306 251 344 240 306 b 454 435 382 306 442 435 b 397 257 417 363 400 299 b 361 276 393 257 390 276 b 261 186 306 276 263 244 b 436 60 260 101 321 60 b 667 135 576 60 644 133 b 432 42 608 74 528 42 b 231 244 301 42 228 90 z m 246 492 l 257 492 b 306 588 279 538 303 583 b 378 708 331 631 353 672 l 364 708 b 296 593 344 679 313 621 b 246 492 293 586 267 536 z m 304 14 b 468 -3 357 -3 413 -6 l 472 7 b 310 22 426 3 369 6 z m 319 532 b 393 661 350 586 376 633 b 638 750 465 683 556 718 b 563 647 624 742 594 699 b 524 658 557 653 540 658 b 319 532 397 658 332 532 z m 426 256 b 526 518 428 290 444 351 b 728 771 644 756 686 771 b 771 718 754 771 771 749 b 671 451 771 678 756 618 b 475 197 550 214 510 196 b 426 256 447 197 425 218 z m 429 799 l 442 799 b 549 900 476 840 506 868 l 531 900 b 429 799 488 865 463 840 z m 436 729 b 547 844 475 781 513 817 b 781 929 613 899 688 929 b 613 850 781 926 614 897 b 857 918 613 813 833 903 b 922 886 874 913 901 906 b 436 729 796 868 563 797 z m 454 318 l 465 318 b 481 361 469 331 474 344 l 469 361 b 454 318 463 344 458 331 z m 519 3 b 557 13 533 6 546 8 l 561 25 b 524 14 549 19 536 17 z m 564 221 b 656 363 592 246 629 303 b 696 335 660 363 656 335 b 892 471 808 335 879 471 b 781 281 863 410 793 294 b 753 296 778 289 775 296 b 564 221 657 296 578 221 z m 569 315 l 585 315 b 624 385 607 353 614 368 l 610 385 b 569 315 599 367 592 353 z m 657 478 l 671 478 b 733 613 713 563 722 589 l 719 613 b 657 478 708 589 697 561 z m 744 688 l 756 688 b 760 718 760 696 761 711 l 749 718 b 744 688 749 707 747 696 z m 753 786 b 944 849 811 797 918 831 b 963 736 957 833 969 789 b 924 765 958 736 957 765 b 792 672 836 765 796 672 b 753 786 801 714 811 779 z m 985 868 b 1000 822 992 854 996 839 l 1011 822 b 996 868 1007 839 1003 854 z "},"Ó":{"ha":758,"x_min":0,"x_max":0,"o":"m 422 18 b 872 374 622 11 744 135 b 992 746 954 526 986 633 b 786 954 999 885 938 949 b 318 583 558 963 447 818 b 201 247 238 433 206 328 b 422 18 193 76 265 24 z m 185 310 l 197 310 b 207 356 200 324 203 339 l 194 356 b 185 310 190 339 188 324 z m 231 244 b 246 344 231 293 239 318 b 296 306 251 344 240 306 b 454 435 382 306 442 435 b 397 257 417 363 400 299 b 361 276 393 257 390 276 b 261 186 306 276 263 244 b 436 60 260 101 321 60 b 667 135 576 60 644 133 b 432 42 608 74 528 42 b 231 244 301 42 228 90 z m 246 492 l 257 492 b 306 588 279 538 303 583 b 378 708 331 631 353 672 l 364 708 b 296 593 344 679 313 621 b 246 492 293 586 267 536 z m 304 14 b 468 -3 357 -3 413 -6 l 472 7 b 310 22 426 3 369 6 z m 319 532 b 393 661 350 586 376 633 b 638 750 465 683 556 718 b 563 647 624 742 594 699 b 524 658 557 653 540 658 b 319 532 397 658 332 532 z m 426 256 b 526 518 428 290 444 351 b 721 769 644 756 686 769 b 772 710 750 768 772 746 b 671 451 769 676 756 618 b 475 197 550 214 510 196 b 426 256 447 197 425 218 z m 429 799 l 442 799 b 549 900 476 840 506 868 l 531 900 b 429 799 488 865 463 840 z m 436 729 b 539 846 471 781 504 818 b 772 931 604 900 679 931 b 604 851 772 928 606 899 b 857 918 604 814 833 903 b 922 886 874 913 901 906 b 436 729 796 868 563 797 z m 454 318 l 465 318 b 481 361 469 331 474 344 l 469 361 b 454 318 463 344 458 331 z m 519 3 b 557 13 533 6 546 8 l 561 25 b 524 14 549 19 536 17 z m 564 221 b 656 363 592 246 629 303 b 696 335 660 363 656 335 b 892 471 808 335 885 471 b 785 289 863 410 797 303 b 757 304 782 297 779 304 b 564 221 661 304 578 221 z m 569 315 l 585 315 b 624 385 607 353 614 368 l 610 385 b 569 315 599 367 592 353 z m 657 478 l 671 478 b 733 613 713 563 722 589 l 719 613 b 657 478 708 589 697 561 z m 744 688 l 756 688 b 760 718 760 696 761 711 l 749 718 b 744 688 749 707 747 696 z m 753 786 b 944 849 811 797 918 831 b 963 736 957 833 969 789 b 924 765 958 736 957 765 b 792 672 836 765 796 672 b 753 786 801 714 811 779 z m 754 996 l 817 996 l 946 1113 l 836 1113 z m 807 1025 l 851 1086 l 878 1086 l 811 1025 z m 985 868 b 1000 822 992 854 996 839 l 1011 822 b 996 868 1007 839 1003 854 z "},"Ô":{"ha":689,"x_min":0,"x_max":0,"o":"m 396 18 b 846 374 596 11 718 135 b 965 746 928 526 960 633 b 760 954 972 885 911 954 b 292 583 532 954 421 818 b 175 247 211 433 179 328 b 396 18 167 76 239 24 z m 158 310 l 171 310 b 181 356 174 324 176 339 l 168 356 b 158 310 164 339 161 324 z m 204 244 b 219 344 204 293 213 318 b 269 306 225 344 214 306 b 428 435 356 306 415 435 b 371 257 390 363 374 299 b 335 276 367 257 364 276 b 235 186 279 276 236 244 b 410 60 233 101 294 60 b 640 135 550 60 618 133 b 406 42 582 74 501 42 b 204 244 275 42 201 90 z m 219 492 l 231 492 b 279 588 253 538 276 583 b 351 708 304 631 326 672 l 338 708 b 269 593 318 679 286 621 b 219 492 267 586 240 536 z m 278 14 b 442 -3 331 -3 386 -6 l 446 7 b 283 22 400 3 343 6 z m 293 532 b 367 661 324 586 350 633 b 611 750 439 683 529 718 b 536 647 597 742 568 699 b 497 658 531 653 514 658 b 293 532 371 658 306 532 z m 400 256 b 500 518 401 290 418 351 b 701 771 618 756 660 771 b 744 718 728 771 744 749 b 644 451 744 678 729 618 b 449 197 524 214 483 196 b 400 256 421 197 399 218 z m 403 799 l 415 799 b 522 900 450 840 479 868 l 504 900 b 403 799 461 865 436 840 z m 410 729 b 521 844 449 781 486 817 b 754 929 586 899 661 929 b 586 850 754 926 588 897 b 831 918 586 813 807 903 b 896 886 847 913 875 906 b 410 729 769 868 536 797 z m 428 318 l 439 318 b 454 361 443 331 447 344 l 443 361 b 428 318 436 344 432 331 z m 493 3 b 531 13 507 6 519 8 l 535 25 b 497 14 522 19 510 17 z m 538 221 b 629 363 565 246 603 303 b 669 335 633 363 629 335 b 865 471 782 335 858 471 b 758 289 836 410 771 303 b 731 304 756 297 753 304 b 538 221 635 304 551 221 z m 543 315 l 558 315 b 597 385 581 353 588 368 l 583 385 b 543 315 572 367 565 353 z m 631 478 l 644 478 b 707 613 686 563 696 589 l 693 613 b 631 478 682 589 671 561 z m 638 1014 l 758 1014 l 828 1094 l 857 1014 l 947 1014 l 868 1131 l 800 1131 z m 717 1038 b 790 1094 740 1057 771 1085 l 796 1094 l 739 1038 z m 718 688 l 729 688 b 733 718 733 696 735 711 l 722 718 b 718 688 722 707 721 696 z m 726 786 b 918 849 785 797 892 831 b 936 736 931 833 943 789 b 897 765 932 736 931 765 b 765 672 810 765 769 672 b 726 786 775 714 785 779 z m 865 1063 l 881 1064 b 900 1038 888 1054 894 1046 l 878 1038 z m 958 868 b 974 822 965 854 969 839 l 985 822 b 969 868 981 839 976 854 z "},"Ö":{"ha":700,"x_min":0,"x_max":0,"o":"m 396 18 b 846 374 596 11 718 135 b 965 746 928 526 960 633 b 760 954 972 885 911 949 b 292 583 532 963 421 818 b 175 247 211 433 179 328 b 396 18 167 76 239 24 z m 158 310 l 171 310 b 181 356 174 324 176 339 l 168 356 b 158 310 164 339 161 324 z m 204 244 b 219 344 204 293 213 318 b 269 306 225 344 214 306 b 428 435 356 306 415 435 b 371 257 390 363 374 299 b 335 276 367 257 364 276 b 235 186 279 276 236 244 b 410 60 233 101 294 60 b 640 135 550 60 618 133 b 406 42 582 74 501 42 b 204 244 275 42 201 90 z m 219 492 l 231 492 b 279 588 253 538 276 583 b 351 708 304 631 326 672 l 338 708 b 269 593 318 679 286 621 b 219 492 267 586 240 536 z m 278 14 b 442 -3 331 -3 386 -6 l 446 7 b 283 22 400 3 343 6 z m 293 532 b 367 661 324 586 350 633 b 611 750 439 683 529 718 b 536 647 597 742 568 699 b 497 658 531 653 514 658 b 293 532 371 658 306 532 z m 400 256 b 500 518 401 290 418 351 b 694 769 618 756 660 769 b 746 710 724 768 746 746 b 644 451 743 676 729 618 b 449 197 524 214 483 196 b 400 256 421 197 399 218 z m 403 799 l 415 799 b 522 900 450 840 479 868 l 504 900 b 403 799 461 865 436 840 z m 410 729 b 513 846 444 781 478 818 b 746 931 578 900 653 931 b 578 851 746 928 579 899 b 831 918 578 814 807 903 b 896 886 847 913 875 906 b 410 729 769 868 536 797 z m 428 318 l 439 318 b 454 361 443 331 447 344 l 443 361 b 428 318 436 344 432 331 z m 493 3 b 531 13 507 6 519 8 l 535 25 b 497 14 522 19 510 17 z m 519 1014 l 756 1014 l 785 1079 l 549 1079 z m 538 221 b 629 363 565 246 603 303 b 669 335 633 363 629 335 b 865 471 782 335 858 471 b 758 289 836 410 771 303 b 731 304 756 297 753 304 b 538 221 635 304 551 221 z m 543 315 l 558 315 b 597 385 581 353 588 368 l 583 385 b 543 315 572 367 565 353 z m 560 1040 l 565 1053 l 610 1053 l 604 1040 z m 631 478 l 644 478 b 707 613 686 563 696 589 l 693 613 b 631 478 682 589 671 561 z m 631 1040 l 636 1053 l 744 1053 l 739 1040 z m 718 688 l 729 688 b 733 718 733 696 735 711 l 722 718 b 718 688 722 707 721 696 z m 726 786 b 918 849 785 797 892 831 b 936 736 931 833 943 789 b 897 765 932 736 931 765 b 765 672 810 765 769 672 b 726 786 775 714 785 779 z m 811 1014 l 1047 1014 l 1076 1079 l 840 1079 z m 851 1040 l 857 1053 l 1036 1053 l 1031 1040 z m 958 868 b 974 822 965 854 969 839 l 985 822 b 969 868 981 839 976 854 z "},"Ò":{"ha":689,"x_min":0,"x_max":0,"o":"m 396 18 b 846 374 596 11 718 135 b 965 746 928 526 960 633 b 760 954 972 885 911 954 b 292 583 532 954 421 818 b 175 247 211 433 179 328 b 396 18 167 76 239 24 z m 158 310 l 171 310 b 181 356 174 324 176 339 l 168 356 b 158 310 164 339 161 324 z m 204 244 b 219 344 204 293 213 318 b 269 306 225 344 214 306 b 428 435 356 306 415 435 b 371 257 390 363 374 299 b 335 276 367 257 364 276 b 235 186 279 276 236 244 b 410 60 233 101 294 60 b 640 135 550 60 618 133 b 406 42 582 74 501 42 b 204 244 275 42 201 90 z m 219 492 l 231 492 b 279 588 253 538 276 583 b 351 708 304 631 326 672 l 338 708 b 269 593 318 679 286 621 b 219 492 267 586 240 536 z m 278 14 b 442 -3 331 -3 386 -6 l 446 7 b 283 22 400 3 343 6 z m 293 532 b 367 661 324 586 350 633 b 611 750 439 683 529 718 b 536 647 597 742 568 699 b 497 658 531 653 514 658 b 293 532 371 658 306 532 z m 400 256 b 500 518 401 290 418 351 b 701 771 618 756 660 771 b 744 718 728 771 744 749 b 644 451 744 678 729 618 b 449 197 524 214 483 196 b 400 256 421 197 399 218 z m 403 799 l 415 799 b 522 900 450 840 479 868 l 504 900 b 403 799 461 865 436 840 z m 410 729 b 521 844 449 781 486 817 b 754 929 586 899 661 929 b 586 850 754 926 588 897 b 831 918 586 813 807 903 b 896 886 847 913 875 906 b 410 729 769 868 536 797 z m 428 318 l 439 318 b 454 361 443 331 447 344 l 443 361 b 428 318 436 344 432 331 z m 493 3 b 531 13 507 6 519 8 l 535 25 b 497 14 522 19 510 17 z m 538 221 b 629 363 565 246 603 303 b 669 335 633 363 629 335 b 865 471 782 335 858 471 b 758 289 836 410 771 303 b 731 304 756 297 753 304 b 538 221 635 304 551 221 z m 543 315 l 558 315 b 597 385 581 353 588 368 l 583 385 b 543 315 572 367 565 353 z m 631 478 l 644 478 b 707 613 686 563 696 589 l 693 613 b 631 478 682 589 671 561 z m 682 1113 l 747 996 l 810 996 l 792 1113 z m 718 688 l 729 688 b 733 718 733 696 735 711 l 722 718 b 718 688 722 707 721 696 z m 726 786 b 918 849 785 797 892 831 b 936 736 931 833 943 789 b 897 765 932 736 931 765 b 765 672 810 765 769 672 b 726 786 775 714 785 779 z m 735 1086 l 761 1086 l 772 1025 l 768 1025 z m 958 868 b 974 822 965 854 969 839 l 985 822 b 969 868 981 839 976 854 z "},"Ø":{"ha":706,"x_min":0,"x_max":0,"o":"m 44 17 l 185 139 b 396 18 208 53 278 22 b 846 374 596 11 718 135 b 965 746 928 526 960 633 b 963 813 967 769 965 792 l 1104 933 l 1088 953 l 957 842 b 760 954 935 917 872 954 b 292 583 532 954 421 818 b 175 247 211 433 179 328 b 178 169 174 217 175 189 l 26 38 z m 158 310 l 171 310 b 181 356 174 324 176 339 l 168 356 b 158 310 164 339 161 324 z m 204 244 b 219 344 204 293 213 318 b 269 306 225 344 214 306 b 428 435 356 306 415 435 l 393 357 b 207 193 325 301 267 247 b 204 244 204 210 204 225 z m 213 163 l 378 307 b 371 257 375 288 372 271 b 247 147 353 257 247 192 b 410 60 247 103 306 60 b 640 135 550 60 618 133 b 406 42 582 74 501 42 b 213 163 303 42 235 72 z m 219 492 l 231 492 b 279 588 253 538 276 583 b 351 708 304 631 326 672 l 338 708 b 269 593 318 679 286 621 b 219 492 267 586 240 536 z m 278 14 b 442 -3 331 -3 386 -6 l 446 7 b 283 22 400 3 343 6 z m 293 532 b 367 661 324 586 350 633 b 611 750 439 683 529 718 b 536 647 597 742 568 699 b 497 658 531 653 514 658 b 293 532 371 658 306 532 z m 400 256 b 421 342 401 274 407 301 l 714 601 b 644 451 701 569 679 519 b 449 197 524 214 483 196 b 400 256 421 197 399 218 z m 403 799 l 415 799 b 522 900 450 840 479 868 l 504 900 b 403 799 461 865 436 840 z m 410 729 b 521 844 449 781 486 817 b 754 929 586 899 661 929 b 586 850 754 926 588 897 b 831 918 586 813 807 903 b 896 886 847 913 875 906 b 410 729 769 868 536 797 z m 444 397 b 500 518 458 431 475 467 b 701 771 618 756 660 771 b 744 718 728 771 744 749 b 731 647 744 700 740 678 z m 493 3 b 531 13 507 6 519 8 l 535 25 b 497 14 522 19 510 17 z m 538 221 b 629 363 565 246 603 303 b 669 335 633 363 629 335 b 865 471 782 335 858 471 b 758 289 836 410 771 303 b 731 304 756 297 753 304 b 538 221 635 304 551 221 z m 543 315 l 558 315 b 597 385 581 353 588 368 l 583 385 b 543 315 572 367 565 353 z m 718 688 l 729 688 b 733 718 733 696 735 711 l 722 718 b 718 688 722 707 721 696 z m 726 786 b 918 849 785 797 892 831 b 932 821 922 843 928 833 l 767 678 b 726 786 776 719 782 779 z m 839 706 l 938 790 b 936 736 939 774 939 756 b 915 742 929 739 924 742 b 839 706 893 742 844 700 z "},"Õ":{"ha":689,"x_min":0,"x_max":0,"o":"m 396 18 b 846 374 596 11 718 135 b 965 746 928 526 960 633 b 760 954 972 885 911 954 b 292 583 532 954 421 818 b 175 247 211 433 179 328 b 396 18 167 76 239 24 z m 158 310 l 171 310 b 181 356 174 324 176 339 l 168 356 b 158 310 164 339 161 324 z m 204 244 b 219 344 204 293 213 318 b 269 306 225 344 214 306 b 428 435 356 306 415 435 b 371 257 390 363 374 299 b 335 276 367 257 364 276 b 235 186 279 276 236 244 b 410 60 233 101 294 60 b 640 135 550 60 618 133 b 406 42 582 74 501 42 b 204 244 275 42 201 90 z m 219 492 l 231 492 b 279 588 253 538 276 583 b 351 708 304 631 326 672 l 338 708 b 269 593 318 679 286 621 b 219 492 267 586 240 536 z m 278 14 b 442 -3 331 -3 386 -6 l 446 7 b 283 22 400 3 343 6 z m 293 532 b 367 661 324 586 350 633 b 611 750 439 683 529 718 b 536 647 597 742 568 699 b 497 658 531 653 514 658 b 293 532 371 658 306 532 z m 400 256 b 500 518 401 290 418 351 b 701 771 618 756 660 771 b 744 718 728 771 744 749 b 644 451 744 678 729 618 b 449 197 524 214 483 196 b 400 256 421 197 399 218 z m 403 799 l 415 799 b 522 900 450 840 479 868 l 504 900 b 403 799 461 865 436 840 z m 410 729 b 521 844 449 781 486 817 b 754 929 586 899 661 929 b 586 850 754 926 588 897 b 831 918 586 813 807 903 b 896 886 847 913 875 906 b 410 729 769 868 536 797 z m 428 318 l 439 318 b 454 361 443 331 447 344 l 443 361 b 428 318 436 344 432 331 z m 493 3 b 531 13 507 6 519 8 l 535 25 b 497 14 522 19 510 17 z m 538 221 b 629 363 565 246 603 303 b 669 335 633 363 629 335 b 865 471 782 335 858 471 b 758 289 836 410 771 303 b 731 304 756 297 753 304 b 538 221 635 304 551 221 z m 543 315 l 558 315 b 597 385 581 353 588 368 l 583 385 b 543 315 572 367 565 353 z m 631 478 l 644 478 b 707 613 686 563 696 589 l 693 613 b 631 478 682 589 671 561 z m 642 996 l 715 996 l 756 1064 l 779 1024 b 833 996 789 1007 804 996 b 906 1033 867 996 885 1007 l 968 1113 l 894 1113 l 847 1036 l 822 1078 b 774 1113 807 1103 796 1113 b 706 1076 746 1113 728 1106 z m 685 1017 l 710 1049 l 719 1047 l 703 1017 z m 718 688 l 729 688 b 733 718 733 696 735 711 l 722 718 b 718 688 722 707 721 696 z m 726 786 b 918 849 785 797 892 831 b 936 736 931 833 943 789 b 897 765 932 736 931 765 b 765 672 810 765 769 672 b 726 786 775 714 785 779 z m 769 1086 l 788 1086 l 825 1022 l 814 1022 z m 878 1051 l 907 1094 l 926 1094 l 892 1051 z m 958 868 b 974 822 965 854 969 839 l 985 822 b 969 868 981 839 976 854 z "},"P":{"ha":692,"x_min":0,"x_max":0,"o":"m 69 31 l 301 31 l 390 228 b 460 224 417 224 444 224 b 942 706 774 224 942 481 b 888 879 942 785 924 842 b 679 940 846 921 778 940 l 483 940 z m 113 57 l 251 358 b 329 296 256 358 239 296 b 831 436 638 296 706 336 b 567 264 768 358 672 293 b 503 272 557 268 532 272 b 171 147 274 272 213 240 b 147 86 156 114 147 97 b 175 74 147 76 154 74 b 268 57 231 74 267 65 z m 121 197 l 133 197 l 164 261 l 151 261 z m 142 10 l 278 10 l 283 21 l 147 21 z m 190 347 l 201 347 l 263 481 l 251 481 z m 285 556 l 296 556 l 399 778 l 386 778 z m 326 532 l 399 685 b 604 753 458 700 538 725 l 563 658 b 536 669 560 658 556 669 b 326 532 429 669 333 532 z m 342 96 l 353 96 l 365 121 l 354 121 z m 422 856 l 433 856 l 454 901 l 443 901 z m 424 749 l 503 915 l 692 915 b 499 832 692 913 499 878 b 789 901 499 804 649 840 b 854 868 822 889 826 892 b 424 749 700 839 597 815 z m 443 204 b 558 213 485 203 522 206 l 563 224 b 447 214 526 217 489 213 z m 478 406 l 624 731 l 643 731 b 718 651 700 731 724 708 b 531 410 707 528 621 421 b 478 406 506 406 478 406 z m 514 463 l 526 463 l 544 506 l 533 506 z m 622 228 b 650 239 631 231 642 235 l 653 251 b 625 240 647 249 633 243 z m 624 482 l 636 482 b 682 560 654 504 674 535 l 671 560 b 624 482 664 539 643 503 z m 626 758 b 885 836 731 781 853 824 b 914 731 903 819 917 753 b 867 771 910 731 900 771 b 743 654 803 771 750 654 b 626 758 754 701 739 758 z m 913 864 b 935 819 921 851 929 836 l 946 819 b 925 864 940 836 933 850 z "},"Q":{"ha":743,"x_min":0,"x_max":0,"o":"m 457 51 l 446 -35 l 692 -35 l 665 104 b 863 369 750 181 801 265 b 993 715 954 524 985 633 b 769 956 1008 886 925 956 b 319 603 564 956 456 838 b 189 265 231 453 196 346 b 361 40 175 110 238 40 b 457 51 378 40 414 42 z m 167 229 l 176 229 b 189 328 176 258 182 306 l 179 328 b 167 229 172 306 165 258 z m 218 282 b 235 360 222 308 226 335 b 281 321 239 360 231 321 b 457 450 376 321 447 450 b 388 272 415 378 393 314 b 353 292 383 272 382 292 b 238 203 300 292 239 261 b 372 83 236 126 264 83 b 503 108 428 83 478 99 b 497 51 501 96 500 71 b 563 8 494 15 501 8 b 657 -8 636 8 657 -8 l 476 -8 l 481 53 b 454 76 482 75 476 82 b 368 65 429 71 396 65 b 218 282 256 65 197 114 z m 226 467 l 235 467 b 260 518 242 483 251 500 l 249 518 b 226 467 242 500 233 483 z m 261 42 b 400 24 307 21 349 18 l 403 32 b 267 49 350 26 307 29 z m 288 588 l 297 588 b 339 658 306 603 329 640 l 329 658 b 288 588 318 642 296 603 z m 310 532 b 385 661 339 586 367 633 b 643 754 457 683 554 717 b 567 647 628 738 599 699 b 528 658 561 653 544 658 b 310 532 399 658 315 532 z m 383 743 l 394 743 b 547 901 433 796 482 854 l 529 901 b 383 743 464 849 424 800 z m 411 251 b 521 517 417 286 429 347 b 728 775 650 757 692 775 b 778 717 760 775 779 749 b 667 451 775 683 753 621 b 460 193 546 211 496 193 b 411 251 432 193 404 210 z m 435 729 b 538 846 469 781 503 818 b 771 931 603 900 678 931 b 603 851 771 928 604 899 b 850 921 603 814 831 908 b 918 888 879 917 907 900 b 435 729 792 869 563 797 z m 443 314 l 454 314 b 469 357 458 326 463 340 l 458 357 b 443 314 451 340 447 326 z m 475 -56 l 599 -56 l 599 -44 l 476 -44 z m 540 278 l 554 278 b 635 414 576 308 603 353 l 621 414 b 540 278 588 350 563 307 z m 549 215 b 668 393 579 240 625 306 b 697 335 672 393 647 335 b 888 471 814 335 876 471 b 769 275 857 410 781 289 b 744 301 765 275 774 301 b 549 215 646 301 561 215 z m 626 -56 l 685 -56 l 682 -44 l 626 -44 z m 656 483 l 669 483 b 728 607 696 535 715 575 l 715 607 b 656 483 701 574 682 533 z m 731 642 l 743 642 b 763 696 753 665 758 682 l 750 696 b 731 642 746 683 740 665 z m 738 786 b 946 851 804 799 919 831 b 975 744 958 836 982 797 b 929 783 971 744 969 783 b 783 671 842 783 792 671 b 738 786 801 722 800 778 z m 978 872 b 994 826 986 858 990 843 l 1006 826 b 989 872 1001 843 997 858 z "},"R":{"ha":696,"x_min":0,"x_max":0,"o":"m 64 31 l 296 31 l 410 282 b 514 289 464 282 489 285 l 507 31 l 744 31 l 701 349 l 724 361 b 940 728 857 436 940 574 b 683 942 940 893 849 942 l 478 942 z m 104 57 l 240 363 b 268 303 236 326 238 303 b 442 411 381 303 431 411 l 364 240 b 311 276 361 264 343 276 b 146 106 243 276 146 164 b 203 74 146 82 160 74 b 276 57 228 74 268 67 z m 121 207 l 132 207 l 175 301 l 164 301 z m 175 10 l 281 10 l 286 21 l 182 21 z m 188 354 l 199 354 l 217 394 l 207 394 z m 239 467 l 249 467 l 356 697 l 344 697 z m 322 538 l 394 690 b 594 756 454 706 528 728 l 554 664 b 528 675 551 664 547 675 b 322 538 421 675 329 538 z m 332 85 l 342 85 l 357 118 l 347 118 z m 378 772 l 389 772 l 447 899 l 436 899 z m 418 749 l 499 917 l 685 917 b 493 832 685 911 493 883 b 785 903 493 796 746 874 b 856 868 822 892 839 883 b 418 749 731 853 535 796 z m 478 431 l 618 744 l 650 744 b 726 674 701 744 726 721 b 683 539 726 631 704 574 b 478 431 626 443 563 431 z m 489 129 l 500 129 l 503 235 l 492 235 z m 511 481 l 524 481 l 540 518 l 528 518 z m 518 10 l 619 10 l 618 21 l 518 21 z m 536 57 l 542 294 b 674 340 582 301 636 319 l 678 306 b 554 144 607 264 556 249 b 639 74 553 90 575 74 b 714 57 704 74 714 57 z m 650 21 l 651 10 l 693 10 l 692 21 z m 660 767 b 883 838 731 781 846 819 b 914 732 901 819 915 760 b 865 771 910 732 904 771 b 751 654 788 771 758 653 b 660 767 764 708 749 767 z m 674 568 l 686 568 l 697 596 l 686 596 z m 694 618 l 706 618 b 715 674 711 638 715 657 b 713 696 715 682 714 689 l 703 696 b 706 674 704 689 706 682 b 694 618 706 657 701 638 z m 715 318 l 722 269 l 733 269 l 726 322 z m 915 868 b 939 814 925 853 933 835 l 950 814 b 928 868 944 835 938 853 z "},"Ŕ":{"ha":696,"x_min":0,"x_max":0,"o":"m 64 31 l 296 31 l 410 282 b 514 289 464 282 489 285 l 507 31 l 744 31 l 701 349 l 724 361 b 940 728 857 436 940 574 b 683 942 940 893 849 942 l 478 942 z m 104 57 l 240 363 b 268 303 236 326 238 303 b 442 411 381 303 431 411 l 364 240 b 311 276 361 264 343 276 b 146 106 243 276 146 164 b 203 74 146 82 160 74 b 276 57 228 74 268 67 z m 121 207 l 132 207 l 175 301 l 164 301 z m 175 10 l 281 10 l 286 21 l 182 21 z m 188 354 l 199 354 l 217 394 l 207 394 z m 239 467 l 249 467 l 356 697 l 344 697 z m 322 538 l 394 690 b 594 756 454 706 528 728 l 554 664 b 528 675 551 664 547 675 b 322 538 421 675 329 538 z m 332 85 l 342 85 l 357 118 l 347 118 z m 378 772 l 389 772 l 447 899 l 436 899 z m 418 749 l 499 917 l 685 917 b 493 832 685 911 493 883 b 785 903 493 796 746 874 b 856 868 822 892 839 883 b 418 749 731 853 535 796 z m 478 431 l 618 744 l 650 744 b 726 674 701 744 726 721 b 683 539 726 631 704 574 b 478 431 626 443 563 431 z m 489 129 l 500 129 l 503 235 l 492 235 z m 511 481 l 524 481 l 540 518 l 528 518 z m 518 10 l 619 10 l 618 21 l 518 21 z m 536 57 l 542 294 b 674 340 582 301 636 319 l 678 306 b 554 144 607 264 556 249 b 639 74 553 90 575 74 b 714 57 704 74 714 57 z m 650 21 l 651 10 l 693 10 l 692 21 z m 660 767 b 883 838 731 781 846 819 b 914 732 901 819 915 760 b 865 771 910 732 904 771 b 751 654 788 771 758 653 b 660 767 764 708 749 767 z m 674 568 l 686 568 l 697 596 l 686 596 z m 685 996 l 747 996 l 876 1113 l 767 1113 z m 694 618 l 706 618 b 715 674 711 638 715 657 b 713 696 715 682 714 689 l 703 696 b 706 674 704 689 706 682 b 694 618 706 657 701 638 z m 715 318 l 722 269 l 733 269 l 726 322 z m 738 1025 l 782 1086 l 808 1086 l 742 1025 z m 915 868 b 939 814 925 853 933 835 l 950 814 b 928 868 944 835 938 853 z "},"Ř":{"ha":696,"x_min":0,"x_max":0,"o":"m 64 31 l 296 31 l 410 282 b 514 289 464 282 489 285 l 507 31 l 744 31 l 701 349 l 724 361 b 940 728 857 436 940 574 b 683 942 940 893 849 942 l 478 942 z m 104 57 l 240 363 b 268 303 236 326 238 303 b 442 411 381 303 431 411 l 364 240 b 311 276 361 264 343 276 b 146 106 243 276 146 164 b 203 74 146 82 160 74 b 276 57 228 74 268 67 z m 121 207 l 132 207 l 175 301 l 164 301 z m 175 10 l 281 10 l 286 21 l 182 21 z m 188 354 l 199 354 l 217 394 l 207 394 z m 239 467 l 249 467 l 356 697 l 344 697 z m 322 538 l 394 690 b 594 756 454 706 528 728 l 554 664 b 528 675 551 664 547 675 b 322 538 421 675 329 538 z m 332 85 l 342 85 l 357 118 l 347 118 z m 378 772 l 389 772 l 447 899 l 436 899 z m 418 749 l 499 917 l 685 917 b 493 832 685 911 493 883 b 785 903 493 796 746 874 b 856 868 822 892 839 883 b 418 749 731 853 535 796 z m 478 431 l 618 744 l 650 744 b 726 674 701 744 726 721 b 683 539 726 631 704 574 b 478 431 626 443 563 431 z m 489 129 l 500 129 l 503 235 l 492 235 z m 511 481 l 524 481 l 540 518 l 528 518 z m 518 10 l 619 10 l 618 21 l 518 21 z m 536 57 l 542 294 b 674 340 582 301 636 319 l 678 306 b 554 144 607 264 556 249 b 639 74 553 90 575 74 b 714 57 704 74 714 57 z m 592 1113 l 671 996 l 739 996 l 901 1113 l 789 1113 l 717 1038 l 690 1113 z m 643 1089 l 665 1089 l 689 1032 l 683 1032 b 643 1089 672 1042 657 1069 z m 650 21 l 651 10 l 693 10 l 692 21 z m 660 767 b 883 838 731 781 846 819 b 914 732 901 819 915 760 b 865 771 910 732 904 771 b 751 654 788 771 758 653 b 660 767 764 708 749 767 z m 674 568 l 686 568 l 697 596 l 686 596 z m 694 618 l 706 618 b 715 674 711 638 715 657 b 713 696 715 682 714 689 l 703 696 b 706 674 704 689 706 682 b 694 618 706 657 701 638 z m 715 318 l 722 269 l 733 269 l 726 322 z m 774 1064 l 800 1089 l 822 1089 l 788 1063 z m 915 868 b 939 814 925 853 933 835 l 950 814 b 928 868 944 835 938 853 z "},"S":{"ha":578,"x_min":0,"x_max":0,"o":"m 353 18 b 728 342 576 18 728 149 b 635 524 728 401 703 451 b 550 658 565 590 550 625 b 654 749 550 717 592 749 b 854 688 740 749 808 717 l 950 897 b 688 956 896 928 800 956 b 324 626 472 956 324 822 b 411 442 324 542 365 496 b 447 403 424 426 436 414 b 497 317 478 371 497 349 b 385 233 497 272 467 233 b 185 288 324 233 247 257 l 88 71 b 353 18 161 36 243 18 z m 122 85 l 197 253 b 240 236 214 246 224 242 b 169 144 236 233 165 210 b 353 57 169 81 250 57 b 618 135 514 57 594 135 b 351 42 553 74 465 42 b 122 85 257 42 190 57 z m 128 207 l 136 204 l 174 286 l 165 289 z m 222 8 b 353 -1 261 3 304 -1 b 397 0 368 -1 383 -1 l 400 10 b 353 8 385 8 369 8 b 225 18 306 8 264 11 z m 269 226 b 385 207 306 215 342 207 b 524 317 483 207 524 249 b 500 383 524 349 513 361 b 576 332 518 383 531 332 b 660 418 628 332 660 367 b 638 482 660 451 633 482 b 701 342 674 442 701 396 b 694 276 701 315 700 303 b 643 304 692 276 686 304 b 396 196 567 304 528 196 b 269 226 329 196 271 217 z m 304 643 l 314 643 b 325 715 315 668 319 693 l 315 715 b 304 643 310 692 306 668 z m 315 554 b 332 515 319 540 325 528 l 343 515 b 325 554 336 528 331 540 z m 328 757 l 339 757 b 453 899 363 815 401 863 l 438 899 b 328 757 389 863 351 814 z m 351 663 b 546 729 396 676 489 710 b 524 658 542 721 524 689 b 525 643 524 654 524 649 b 479 658 518 643 517 658 b 374 535 389 658 374 576 b 351 663 349 572 346 638 z m 361 715 b 696 929 394 835 508 929 b 721 928 706 929 714 929 b 490 828 721 925 490 903 b 810 918 490 782 763 899 b 904 890 829 914 847 910 b 361 715 718 853 486 779 z m 433 4 b 490 17 453 7 472 11 l 493 26 b 438 14 475 21 457 17 z m 472 290 l 483 290 b 488 317 486 299 488 307 l 488 325 l 476 325 b 478 317 478 322 478 319 b 472 290 478 307 476 299 z m 560 650 l 569 650 l 569 658 b 574 686 569 669 571 678 l 564 686 b 560 658 561 678 560 668 z m 664 774 b 896 842 747 794 782 804 l 867 786 b 785 751 838 786 800 768 b 664 774 750 764 711 775 z m 699 460 b 722 415 708 444 717 431 l 732 419 b 708 463 725 433 718 447 z m 699 726 b 838 675 756 718 801 696 l 842 683 b 703 735 806 706 760 728 z "},"Ś":{"ha":615,"x_min":0,"x_max":0,"o":"m 353 18 b 728 342 576 18 728 149 b 635 524 728 401 703 451 b 550 658 565 590 550 625 b 654 749 550 717 592 749 b 854 688 740 749 808 717 l 950 897 b 688 956 896 928 800 956 b 324 626 472 956 324 822 b 411 442 324 542 365 496 b 447 403 424 426 436 414 b 497 317 478 371 497 349 b 385 233 497 272 467 233 b 185 288 324 233 247 257 l 88 71 b 353 18 161 36 243 18 z m 122 85 l 197 253 b 240 236 214 246 224 242 b 169 144 236 233 165 210 b 353 57 169 81 250 57 b 618 135 514 57 594 135 b 351 42 553 74 465 42 b 122 85 257 42 190 57 z m 128 207 l 136 204 l 174 286 l 165 289 z m 222 8 b 353 -1 261 3 304 -1 b 397 0 368 -1 383 -1 l 400 10 b 353 8 385 8 369 8 b 225 18 306 8 264 11 z m 269 226 b 385 207 306 215 342 207 b 524 317 483 207 524 249 b 500 383 524 349 513 361 b 576 332 518 383 531 332 b 660 418 628 332 660 367 b 638 482 660 451 633 482 b 701 342 674 442 701 396 b 694 276 701 315 700 303 b 643 304 692 276 686 304 b 396 196 567 304 528 196 b 269 226 329 196 271 217 z m 304 643 l 314 643 b 325 715 315 668 319 693 l 315 715 b 304 643 310 692 306 668 z m 315 554 b 332 515 319 540 325 528 l 343 515 b 325 554 336 528 331 540 z m 328 757 l 339 757 b 453 899 363 815 401 863 l 438 899 b 328 757 389 863 351 814 z m 351 663 b 546 729 396 676 489 710 b 524 658 542 721 524 689 b 525 643 524 654 524 649 b 479 658 518 643 517 658 b 374 535 389 658 374 576 b 351 663 349 572 346 638 z m 361 715 b 696 929 394 835 508 929 b 721 928 706 929 714 929 b 490 828 721 925 490 903 b 810 918 490 782 763 899 b 904 890 829 914 847 910 b 361 715 718 853 486 779 z m 433 4 b 490 17 453 7 472 11 l 493 26 b 438 14 475 21 457 17 z m 472 290 l 483 290 b 488 317 486 299 488 307 l 488 325 l 476 325 b 478 317 478 322 478 319 b 472 290 478 307 476 299 z m 560 650 l 569 650 l 569 658 b 574 686 569 669 571 678 l 564 686 b 560 658 561 678 560 668 z m 664 774 b 896 842 747 794 782 804 l 867 786 b 785 751 838 786 800 768 b 664 774 750 764 711 775 z m 665 996 l 728 996 l 857 1113 l 747 1113 z m 699 460 b 722 415 708 444 717 431 l 732 419 b 708 463 725 433 718 447 z m 699 726 b 838 675 756 718 801 696 l 842 683 b 703 735 806 706 760 728 z m 718 1025 l 763 1086 l 789 1086 l 722 1025 z "},"Š":{"ha":615,"x_min":0,"x_max":0,"o":"m 353 18 b 728 342 576 18 728 149 b 635 524 728 401 703 451 b 550 658 565 590 550 625 b 654 749 550 717 592 749 b 854 688 740 749 808 717 l 950 897 b 688 956 896 928 800 956 b 324 626 472 956 324 822 b 411 442 324 542 365 496 b 447 403 424 426 436 414 b 497 317 478 371 497 349 b 385 233 497 272 467 233 b 185 288 324 233 247 257 l 88 71 b 353 18 161 36 243 18 z m 122 85 l 197 253 b 240 236 214 246 224 242 b 169 144 236 233 165 210 b 353 57 169 81 250 57 b 618 135 514 57 594 135 b 351 42 553 74 465 42 b 122 85 257 42 190 57 z m 128 207 l 136 204 l 174 286 l 165 289 z m 222 8 b 353 -1 261 3 304 -1 b 397 0 368 -1 383 -1 l 400 10 b 353 8 385 8 369 8 b 225 18 306 8 264 11 z m 269 226 b 385 207 306 215 342 207 b 524 317 483 207 524 249 b 500 383 524 349 513 361 b 576 332 518 383 531 332 b 660 418 628 332 660 367 b 638 482 660 451 633 482 b 701 342 674 442 701 396 b 694 276 701 315 700 303 b 643 304 692 276 686 304 b 396 196 567 304 528 196 b 269 226 329 196 271 217 z m 315 554 b 332 515 319 540 325 528 l 343 515 b 325 554 336 528 331 540 z m 328 757 l 339 757 b 453 899 363 815 401 863 l 438 899 b 328 757 389 863 351 814 z m 351 663 b 546 729 396 676 489 710 b 524 658 542 721 524 689 b 525 643 524 654 524 649 b 479 658 518 643 517 658 b 374 535 389 658 374 576 b 351 663 349 572 346 638 z m 361 715 b 696 929 394 835 508 929 b 721 928 706 929 714 929 b 490 828 721 925 490 903 b 810 918 490 782 763 899 b 904 890 829 914 847 910 b 361 715 718 853 486 779 z m 433 4 b 490 17 453 7 472 11 l 493 26 b 438 14 475 21 457 17 z m 472 290 l 483 290 b 488 317 486 299 488 307 l 488 325 l 476 325 b 478 317 478 322 478 319 b 472 290 478 307 476 299 z m 560 650 l 569 650 l 569 658 b 574 686 569 669 571 678 l 564 686 b 560 658 561 678 560 668 z m 586 1113 l 665 996 l 733 996 l 896 1113 l 783 1113 l 711 1038 l 685 1113 z m 638 1089 l 660 1089 l 683 1032 l 678 1032 b 638 1089 667 1042 651 1069 z m 664 774 b 896 842 747 794 782 804 l 867 786 b 785 751 838 786 800 768 b 664 774 750 764 711 775 z m 699 726 b 838 675 756 718 801 696 l 842 683 b 703 735 806 706 760 728 z m 768 1064 l 794 1089 l 817 1089 l 782 1063 z "},"T":{"ha":569,"x_min":0,"x_max":0,"o":"m 185 31 l 417 31 l 735 731 l 858 731 l 954 942 l 474 942 l 378 731 l 503 731 z m 219 160 l 231 160 l 269 244 l 258 244 z m 226 57 l 368 369 b 403 317 372 369 363 317 b 569 438 494 317 561 438 l 488 258 b 447 286 485 258 485 286 b 269 101 381 286 269 160 b 310 74 269 79 279 74 b 396 57 358 74 396 68 z m 229 10 l 265 10 l 272 21 l 236 21 z m 292 10 l 399 10 l 404 21 l 297 21 z m 318 376 l 329 376 l 349 419 l 338 419 z m 367 757 l 378 757 l 388 779 l 376 779 z m 374 497 l 385 497 l 463 669 l 451 669 z m 392 814 l 403 814 l 442 899 l 431 899 z m 406 710 l 442 710 l 447 721 l 411 721 z m 413 749 b 490 915 450 819 490 915 l 679 917 b 488 832 679 913 488 883 b 806 915 488 796 738 874 l 914 915 l 903 892 b 413 749 792 872 576 811 z m 461 572 l 536 735 b 879 836 610 751 801 801 l 843 757 l 739 757 b 700 726 717 757 710 749 l 688 699 b 654 710 685 699 681 710 b 461 572 547 710 468 574 z m 611 435 l 622 435 l 657 511 l 646 511 z m 772 710 l 803 710 l 808 721 l 778 721 z "},"Ť":{"ha":569,"x_min":0,"x_max":0,"o":"m 185 31 l 417 31 l 735 731 l 858 731 l 954 942 l 474 942 l 378 731 l 503 731 z m 219 160 l 231 160 l 269 244 l 258 244 z m 226 57 l 368 369 b 403 317 372 369 363 317 b 569 438 494 317 561 438 l 488 258 b 447 286 485 258 485 286 b 269 101 381 286 269 160 b 310 74 269 79 279 74 b 396 57 358 74 396 68 z m 229 10 l 265 10 l 272 21 l 236 21 z m 292 10 l 399 10 l 404 21 l 297 21 z m 318 376 l 329 376 l 349 419 l 338 419 z m 367 757 l 378 757 l 388 779 l 376 779 z m 374 497 l 385 497 l 463 669 l 451 669 z m 392 814 l 403 814 l 442 899 l 431 899 z m 406 710 l 442 710 l 447 721 l 411 721 z m 413 749 b 490 915 450 819 490 915 l 679 917 b 488 832 679 913 488 883 b 806 915 488 796 738 874 l 914 915 l 903 892 b 413 749 792 872 576 811 z m 461 572 l 536 735 b 879 836 610 751 801 801 l 843 757 l 739 757 b 700 726 717 757 710 749 l 688 699 b 654 710 685 699 681 710 b 461 572 547 710 468 574 z m 611 435 l 622 435 l 657 511 l 646 511 z m 621 1113 l 700 996 l 768 996 l 931 1113 l 818 1113 l 746 1038 l 719 1113 z m 672 1089 l 694 1089 l 718 1032 l 713 1032 b 672 1089 701 1042 686 1069 z m 772 710 l 803 710 l 808 721 l 778 721 z m 803 1064 l 829 1089 l 851 1089 l 817 1063 z "},"U":{"ha":706,"x_min":0,"x_max":0,"o":"m 436 17 b 626 61 517 17 578 31 b 757 229 678 94 719 147 l 1081 940 l 846 940 l 547 283 b 472 203 528 239 508 203 b 418 253 440 203 418 222 b 440 335 418 276 426 303 l 717 940 l 485 940 l 251 429 b 192 222 210 339 192 274 b 436 17 192 82 296 17 z m 171 224 l 182 224 b 211 357 183 258 189 299 l 200 357 b 171 224 178 299 172 258 z m 219 226 b 243 343 219 269 236 322 b 281 303 249 343 242 303 b 457 433 371 303 447 435 b 389 253 406 339 389 272 b 354 274 386 253 385 274 b 247 178 292 278 247 236 b 286 86 247 129 286 100 b 219 226 249 111 219 160 z m 232 435 l 243 435 l 265 482 l 254 482 l 233 438 b 232 435 233 436 232 436 z m 288 558 l 299 558 l 354 678 l 342 678 z m 331 64 b 483 67 346 65 389 53 b 688 158 608 85 663 147 b 444 47 647 110 568 46 b 331 64 411 47 364 50 z m 332 547 l 404 700 b 610 768 464 715 543 740 l 565 674 b 535 685 563 674 563 685 b 332 547 428 685 339 547 z m 343 4 b 436 -7 371 -3 401 -7 b 493 -4 457 -7 475 -6 l 497 7 b 436 4 478 6 457 4 b 347 14 404 4 374 7 z m 369 733 l 381 733 l 457 900 l 446 900 z m 432 757 l 503 914 l 613 914 b 500 844 613 910 500 885 b 518 831 500 835 507 831 b 669 901 554 829 632 869 l 635 828 b 432 757 588 818 486 783 z m 444 317 l 456 317 b 475 360 461 329 465 343 l 464 360 b 444 317 454 343 450 329 z m 529 1 b 575 13 546 4 561 8 l 582 26 b 535 13 567 21 551 17 z m 538 214 b 572 272 553 232 564 254 l 628 390 b 668 331 632 390 625 331 b 842 474 765 331 832 474 l 751 276 b 711 303 747 276 747 303 b 538 214 621 303 551 214 z m 613 476 l 624 476 l 667 569 l 656 569 z m 689 643 l 700 643 l 713 668 l 700 668 z m 721 715 l 732 715 l 818 903 l 807 903 z m 731 626 l 801 779 b 1010 857 872 799 944 825 l 947 725 b 915 767 943 725 947 767 b 731 626 829 767 740 626 z m 829 839 l 864 914 l 1035 914 l 1031 907 b 829 839 978 893 894 867 z "},"Ú":{"ha":704,"x_min":0,"x_max":0,"o":"m 436 18 b 626 63 517 18 578 32 b 757 231 678 96 719 149 l 1081 942 l 846 942 l 547 285 b 472 204 528 240 508 204 b 418 254 440 204 418 224 b 440 336 418 278 426 304 l 717 942 l 485 942 l 251 431 b 192 224 210 340 192 275 b 436 18 192 83 296 18 z m 171 225 l 182 225 b 211 358 183 260 189 300 l 200 358 b 171 225 178 300 172 260 z m 219 228 b 243 344 219 271 236 324 b 281 304 249 344 242 304 b 457 435 371 304 447 436 b 389 254 406 340 389 274 b 354 275 386 254 385 275 b 247 179 292 279 247 238 b 286 88 247 131 286 101 b 219 228 249 113 219 161 z m 232 436 l 243 436 l 265 483 l 254 483 l 233 439 b 232 436 233 438 232 438 z m 288 560 l 299 560 l 354 679 l 342 679 z m 331 65 b 483 68 346 67 389 54 b 688 160 608 86 663 149 b 444 49 647 111 568 47 b 331 65 411 49 364 51 z m 332 549 l 404 701 b 610 769 464 717 543 742 l 565 675 b 535 686 563 675 563 686 b 332 549 428 686 339 549 z m 343 6 b 436 -6 371 -1 401 -6 b 493 -3 457 -6 475 -4 l 497 8 b 436 6 478 7 457 6 b 347 15 404 6 374 8 z m 369 735 l 381 735 l 457 901 l 446 901 z m 432 758 l 503 915 l 613 915 b 500 846 613 911 500 886 b 518 832 500 836 507 832 b 669 903 554 831 632 871 l 635 829 b 432 758 588 819 486 785 z m 444 318 l 456 318 b 475 361 461 331 465 344 l 464 361 b 444 318 454 344 450 331 z m 529 3 b 575 14 546 6 561 10 l 582 28 b 535 14 567 22 551 18 z m 538 215 b 572 274 553 233 564 256 l 628 392 b 668 332 632 392 625 332 b 842 475 765 332 832 475 l 751 278 b 711 304 747 278 747 304 b 538 215 621 304 551 215 z m 613 478 l 624 478 l 667 571 l 656 571 z m 689 644 l 700 644 l 713 669 l 700 669 z m 721 717 l 732 717 l 818 904 l 807 904 z m 731 628 l 801 781 b 1010 858 872 800 944 826 l 947 726 b 915 768 943 726 947 768 b 731 628 829 768 740 628 z m 751 996 l 814 996 l 943 1113 l 833 1113 z m 804 1025 l 849 1086 l 875 1086 l 808 1025 z m 829 840 l 864 915 l 1035 915 l 1031 908 b 829 840 978 894 894 868 z "},"Û":{"ha":714,"x_min":0,"x_max":0,"o":"m 439 17 b 629 61 519 17 581 31 b 760 229 681 94 722 147 l 1083 940 l 849 940 l 550 283 b 475 203 531 239 511 203 b 421 253 443 203 421 222 b 443 335 421 276 429 303 l 719 940 l 488 940 l 254 429 b 194 222 213 339 194 274 b 439 17 194 82 299 17 z m 174 224 l 185 224 b 214 357 186 258 192 299 l 203 357 b 174 224 181 299 175 258 z m 222 226 b 246 343 222 269 239 322 b 283 303 251 343 244 303 b 460 433 374 303 450 435 b 392 253 408 339 392 272 b 357 274 389 253 388 274 b 250 178 294 278 250 236 b 289 86 250 129 289 100 b 222 226 251 111 222 160 z m 235 435 l 246 435 l 268 482 l 257 482 l 236 438 b 235 435 236 436 235 436 z m 290 558 l 301 558 l 357 678 l 344 678 z m 333 64 b 486 67 349 65 392 53 b 690 158 611 85 665 147 b 447 47 650 110 571 46 b 333 64 414 47 367 50 z m 335 547 l 407 700 b 613 768 467 715 546 740 l 568 674 b 538 685 565 674 565 685 b 335 547 431 685 342 547 z m 346 4 b 439 -7 374 -3 404 -7 b 496 -4 460 -7 478 -6 l 500 7 b 439 4 481 6 460 4 b 350 14 407 4 376 7 z m 372 733 l 383 733 l 460 900 l 449 900 z m 435 757 l 506 914 l 615 914 b 503 844 615 910 503 885 b 521 831 503 835 510 831 b 672 901 557 829 635 869 l 638 828 b 435 757 590 818 489 783 z m 447 317 l 458 317 b 478 360 464 329 468 343 l 467 360 b 447 317 457 343 453 329 z m 532 1 b 578 13 549 4 564 8 l 585 26 b 538 13 569 21 554 17 z m 540 214 b 575 272 556 232 567 254 l 631 390 b 671 331 635 390 628 331 b 844 474 768 331 835 474 l 754 276 b 714 303 750 276 750 303 b 540 214 624 303 554 214 z m 615 476 l 626 476 l 669 569 l 658 569 z m 656 1014 l 776 1014 l 846 1094 l 875 1014 l 965 1014 l 886 1131 l 818 1131 z m 692 643 l 703 643 l 715 668 l 703 668 z m 724 715 l 735 715 l 821 903 l 810 903 z m 733 626 l 804 779 b 1013 857 875 799 947 825 l 950 725 b 918 767 946 725 950 767 b 733 626 832 767 743 626 z m 735 1038 b 808 1094 758 1057 789 1085 l 814 1094 l 757 1038 z m 832 839 l 867 914 l 1038 914 l 1033 907 b 832 839 981 893 897 867 z m 883 1063 l 899 1064 b 918 1038 906 1054 913 1046 l 896 1038 z "},"Ü":{"ha":714,"x_min":0,"x_max":0,"o":"m 436 18 b 626 63 517 18 578 32 b 757 231 678 96 719 149 l 1081 942 l 846 942 l 547 285 b 472 204 528 240 508 204 b 418 254 440 204 418 224 b 440 336 418 278 426 304 l 717 942 l 485 942 l 251 431 b 192 224 210 340 192 275 b 436 18 192 83 296 18 z m 171 225 l 182 225 b 211 358 183 260 189 300 l 200 358 b 171 225 178 300 172 260 z m 219 228 b 243 344 219 271 236 324 b 281 304 249 344 242 304 b 457 435 371 304 447 436 b 389 254 406 340 389 274 b 354 275 386 254 385 275 b 247 179 292 279 247 238 b 286 88 247 131 286 101 b 219 228 249 113 219 161 z m 232 436 l 243 436 l 265 483 l 254 483 l 233 439 b 232 436 233 438 232 438 z m 288 560 l 299 560 l 354 679 l 342 679 z m 331 65 b 483 68 346 67 389 54 b 688 160 608 86 663 149 b 444 49 647 111 568 47 b 331 65 411 49 364 51 z m 332 549 l 404 701 b 610 769 464 717 543 742 l 565 675 b 535 686 563 675 563 686 b 332 549 428 686 339 549 z m 343 6 b 436 -6 371 -1 401 -6 b 493 -3 457 -6 475 -4 l 497 8 b 436 6 478 7 457 6 b 347 15 404 6 374 8 z m 369 735 l 381 735 l 457 901 l 446 901 z m 432 758 l 503 915 l 613 915 b 500 846 613 911 500 886 b 518 832 500 836 507 832 b 669 903 554 831 632 871 l 635 829 b 432 758 588 819 486 785 z m 444 318 l 456 318 b 475 361 461 331 465 344 l 464 361 b 444 318 454 344 450 331 z m 529 3 b 575 14 546 6 561 10 l 582 28 b 535 14 567 22 551 18 z m 538 215 b 572 274 553 233 564 256 l 628 392 b 668 332 632 392 625 332 b 842 475 765 332 832 475 l 751 278 b 711 304 747 278 747 304 b 538 215 621 304 551 215 z m 540 1014 l 776 1014 l 806 1079 l 569 1079 z m 581 1040 l 586 1053 l 631 1053 l 625 1040 z m 613 478 l 624 478 l 667 571 l 656 571 z m 651 1040 l 657 1053 l 765 1053 l 760 1040 z m 689 644 l 700 644 l 713 669 l 700 669 z m 721 717 l 732 717 l 818 904 l 807 904 z m 731 628 l 801 781 b 1010 858 872 800 944 826 l 947 726 b 915 768 943 726 947 768 b 731 628 829 768 740 628 z m 829 840 l 864 915 l 1035 915 l 1031 908 b 829 840 978 894 894 868 z m 832 1014 l 1068 1014 l 1097 1079 l 861 1079 z m 872 1040 l 878 1053 l 1057 1053 l 1051 1040 z "},"Ù":{"ha":658,"x_min":0,"x_max":0,"o":"m 439 17 b 629 61 519 17 581 31 b 760 229 681 94 722 147 l 1083 940 l 849 940 l 550 283 b 475 203 531 239 511 203 b 421 253 443 203 421 222 b 443 335 421 276 429 303 l 719 940 l 488 940 l 254 429 b 194 222 213 339 194 274 b 439 17 194 82 299 17 z m 174 224 l 185 224 b 214 357 186 258 192 299 l 203 357 b 174 224 181 299 175 258 z m 222 226 b 246 343 222 269 239 322 b 283 303 251 343 244 303 b 460 433 374 303 450 435 b 392 253 408 339 392 272 b 357 274 389 253 388 274 b 250 178 294 278 250 236 b 289 86 250 129 289 100 b 222 226 251 111 222 160 z m 235 435 l 246 435 l 268 482 l 257 482 l 236 438 b 235 435 236 436 235 436 z m 290 558 l 301 558 l 357 678 l 344 678 z m 333 64 b 486 67 349 65 392 53 b 690 158 611 85 665 147 b 447 47 650 110 571 46 b 333 64 414 47 367 50 z m 335 547 l 407 700 b 613 768 467 715 546 740 l 568 674 b 538 685 565 674 565 685 b 335 547 431 685 342 547 z m 346 4 b 439 -7 374 -3 404 -7 b 496 -4 460 -7 478 -6 l 500 7 b 439 4 481 6 460 4 b 350 14 407 4 376 7 z m 372 733 l 383 733 l 460 900 l 449 900 z m 435 757 l 506 914 l 615 914 b 503 844 615 910 503 885 b 521 831 503 835 510 831 b 672 901 557 829 635 869 l 638 828 b 435 757 590 818 489 783 z m 447 317 l 458 317 b 478 360 464 329 468 343 l 467 360 b 447 317 457 343 453 329 z m 532 1 b 578 13 549 4 564 8 l 585 26 b 538 13 569 21 554 17 z m 540 214 b 575 272 556 232 567 254 l 631 390 b 671 331 635 390 628 331 b 844 474 768 331 835 474 l 754 276 b 714 303 750 276 750 303 b 540 214 624 303 554 214 z m 615 476 l 626 476 l 669 569 l 658 569 z m 692 643 l 703 643 l 715 668 l 703 668 z m 703 1113 l 768 996 l 831 996 l 813 1113 z m 724 715 l 735 715 l 821 903 l 810 903 z m 733 626 l 804 779 b 1013 857 875 799 947 825 l 950 725 b 918 767 946 725 950 767 b 733 626 832 767 743 626 z m 756 1086 l 782 1086 l 793 1025 l 789 1025 z m 832 839 l 867 914 l 1038 914 l 1033 907 b 832 839 981 893 897 867 z "},"V":{"ha":714,"x_min":0,"x_max":0,"o":"m 199 31 l 525 31 l 1128 942 l 889 942 l 518 336 l 478 336 l 656 942 l 413 942 z m 213 172 l 224 172 l 243 258 l 232 258 z m 232 57 l 297 344 b 331 300 300 344 300 300 b 479 436 422 300 472 436 l 453 339 b 475 310 446 315 451 310 l 513 310 b 549 339 525 310 535 315 l 578 392 b 606 332 581 392 557 332 b 794 476 681 332 778 476 l 653 269 b 614 297 649 269 658 297 b 261 119 461 297 264 265 b 301 74 260 89 271 74 l 428 74 b 506 57 469 72 501 65 z m 249 339 l 260 339 l 268 376 l 257 376 z m 267 411 l 279 411 l 314 561 l 303 561 z m 307 10 l 413 10 l 419 21 l 314 21 z m 335 704 l 346 704 l 399 922 l 388 922 z m 349 549 l 385 701 b 578 771 440 717 517 743 l 551 675 b 519 686 549 675 547 686 b 349 549 413 686 356 549 z m 399 758 l 433 915 l 543 915 b 447 849 546 911 444 888 b 471 832 447 836 458 832 b 618 906 511 832 588 874 l 596 832 b 399 758 550 822 450 786 z m 443 10 l 499 10 l 506 21 l 451 21 z m 550 550 l 558 550 l 571 593 l 563 593 z m 558 432 l 568 432 l 599 482 l 588 482 z m 654 207 l 667 207 l 693 247 l 681 247 z m 669 618 l 681 618 l 781 785 l 769 785 z m 726 628 l 822 781 b 1035 850 896 796 963 818 l 953 726 b 926 768 949 726 958 768 b 726 628 843 768 736 628 z m 811 857 l 824 857 l 864 925 l 851 925 z m 858 840 l 904 915 l 1072 915 l 1068 908 b 858 840 1013 894 929 871 z "},"W":{"ha":1011,"x_min":0,"x_max":0,"o":"m 117 31 l 432 31 l 764 610 l 796 610 l 618 31 l 938 31 l 1414 942 l 1194 942 l 864 260 l 838 260 l 1014 942 l 865 942 l 394 260 l 365 258 l 678 942 l 460 942 z m 154 57 l 260 344 b 286 300 263 344 256 300 b 378 344 321 300 351 319 l 343 268 b 197 117 253 238 197 182 b 260 74 197 85 213 74 l 351 74 b 428 57 393 72 425 65 z m 163 210 l 174 210 l 260 439 l 249 439 z m 224 10 l 267 10 l 272 21 l 228 21 z m 293 560 l 304 560 l 354 694 l 343 694 z m 300 10 l 411 10 l 415 21 l 306 21 z m 340 549 l 399 701 b 571 769 457 717 515 742 l 528 676 b 504 688 525 676 524 688 b 340 549 403 688 347 549 z m 364 744 l 375 744 l 388 781 l 378 781 z m 407 863 l 417 863 l 439 922 l 429 922 z m 421 758 l 479 915 l 589 915 b 482 846 589 911 478 886 b 501 832 483 836 490 832 b 633 903 538 831 599 871 l 593 826 b 421 758 547 817 472 785 z m 428 264 l 472 328 b 621 413 564 336 610 413 l 532 261 b 500 285 529 261 535 285 b 428 264 471 285 450 275 z m 529 183 l 543 183 l 561 214 l 547 214 z m 556 524 l 565 524 l 679 688 l 667 688 z m 604 51 l 614 51 l 625 88 l 615 88 z m 629 135 l 639 135 l 686 283 l 676 283 z m 654 57 l 739 331 b 840 381 768 333 814 347 l 814 278 b 794 296 810 278 813 296 b 701 126 735 296 701 179 b 813 74 701 83 721 74 b 921 57 890 74 921 57 z m 661 10 l 831 10 l 838 21 l 669 21 z m 688 639 l 786 778 b 963 838 849 793 904 810 l 938 743 b 897 765 935 743 933 765 b 688 639 786 765 700 639 z m 701 367 l 711 367 l 739 454 l 729 454 z m 731 778 l 742 778 l 761 806 l 750 806 z m 779 850 l 790 850 l 831 910 l 819 910 z m 824 835 l 879 915 l 981 915 l 972 889 b 824 835 931 878 871 860 z m 858 10 l 913 10 l 921 21 l 865 21 z m 881 239 l 940 361 b 969 332 946 361 938 332 b 1151 496 1065 332 1135 496 l 1042 286 b 1010 300 1039 286 1035 300 b 881 239 940 300 885 239 z m 943 638 l 954 638 l 961 663 l 950 663 z m 1028 638 l 1038 638 l 1124 818 l 1113 818 z m 1088 657 l 1151 788 b 1343 858 1218 804 1292 832 l 1283 746 b 1244 775 1279 746 1281 775 b 1088 657 1158 775 1097 657 z m 1129 850 l 1139 850 l 1167 910 l 1157 910 z m 1178 843 l 1210 915 l 1360 915 b 1178 843 1322 903 1233 871 z "},"Ẃ":{"ha":1011,"x_min":0,"x_max":0,"o":"m 119 31 l 435 31 l 767 610 l 799 610 l 621 31 l 940 31 l 1417 942 l 1197 942 l 867 260 l 840 260 l 1017 942 l 868 942 l 397 260 l 368 258 l 681 942 l 463 942 z m 157 57 l 263 344 b 289 300 265 344 258 300 b 381 344 324 300 354 319 l 346 268 b 200 117 256 238 200 182 b 263 74 200 85 215 74 l 354 74 b 431 57 396 72 428 65 z m 165 210 l 176 210 l 263 439 l 251 439 z m 226 10 l 269 10 l 275 21 l 231 21 z m 296 560 l 307 560 l 357 694 l 346 694 z m 303 10 l 414 10 l 418 21 l 308 21 z m 343 549 l 401 701 b 574 769 460 717 518 742 l 531 676 b 507 688 528 676 526 688 b 343 549 406 688 350 549 z m 367 744 l 378 744 l 390 781 l 381 781 z m 410 863 l 419 863 l 442 922 l 432 922 z m 424 758 l 482 915 l 592 915 b 485 846 592 911 481 886 b 504 832 486 836 493 832 b 636 903 540 831 601 871 l 596 826 b 424 758 550 817 475 785 z m 431 264 l 475 328 b 624 413 567 336 613 413 l 535 261 b 503 285 532 261 538 285 b 431 264 474 285 453 275 z m 532 183 l 546 183 l 564 214 l 550 214 z m 558 524 l 568 524 l 682 688 l 669 688 z m 607 51 l 617 51 l 628 88 l 618 88 z m 632 135 l 642 135 l 689 283 l 679 283 z m 657 57 l 742 331 b 843 381 771 333 817 347 l 817 278 b 797 296 813 278 815 296 b 704 126 738 296 704 179 b 815 74 704 83 724 74 b 924 57 893 74 924 57 z m 664 10 l 833 10 l 840 21 l 672 21 z m 690 639 l 789 778 b 965 838 851 793 907 810 l 940 743 b 900 765 938 743 936 765 b 690 639 789 765 703 639 z m 704 367 l 714 367 l 742 454 l 732 454 z m 733 778 l 744 778 l 764 806 l 753 806 z m 782 850 l 793 850 l 833 910 l 822 910 z m 826 835 l 882 915 l 983 915 l 975 889 b 826 835 933 878 874 860 z m 861 10 l 915 10 l 924 21 l 868 21 z m 883 239 l 943 361 b 972 332 949 361 940 332 b 1154 496 1068 332 1138 496 l 1044 286 b 1013 300 1042 286 1038 300 b 883 239 943 300 888 239 z m 925 996 l 988 996 l 1117 1113 l 1007 1113 z m 946 638 l 957 638 l 964 663 l 953 663 z m 978 1025 l 1022 1086 l 1049 1086 l 982 1025 z m 1031 638 l 1040 638 l 1126 818 l 1115 818 z m 1090 657 l 1154 788 b 1346 858 1221 804 1294 832 l 1286 746 b 1247 775 1282 746 1283 775 b 1090 657 1161 775 1100 657 z m 1132 850 l 1142 850 l 1169 910 l 1160 910 z m 1181 843 l 1213 915 l 1363 915 b 1181 843 1325 903 1236 871 z "},"Ŵ":{"ha":981,"x_min":0,"x_max":0,"o":"m 100 31 l 415 31 l 747 610 l 779 610 l 601 31 l 921 31 l 1397 942 l 1178 942 l 847 260 l 821 260 l 997 942 l 849 942 l 378 260 l 349 258 l 661 942 l 443 942 z m 138 57 l 243 344 b 269 300 246 344 239 300 b 361 344 304 300 335 319 l 326 268 b 181 117 236 238 181 182 b 243 74 181 85 196 74 l 335 74 b 411 57 376 72 408 65 z m 146 210 l 157 210 l 243 439 l 232 439 z m 207 10 l 250 10 l 256 21 l 211 21 z m 276 560 l 288 560 l 338 694 l 326 694 z m 283 10 l 394 10 l 399 21 l 289 21 z m 324 549 l 382 701 b 554 769 440 717 499 742 l 511 676 b 488 688 508 676 507 688 b 324 549 386 688 331 549 z m 347 744 l 358 744 l 371 781 l 361 781 z m 390 863 l 400 863 l 422 922 l 413 922 z m 404 758 l 463 915 l 572 915 b 465 846 572 911 461 886 b 485 832 467 836 474 832 b 617 903 521 831 582 871 l 576 826 b 404 758 531 817 456 785 z m 411 264 l 456 328 b 604 413 547 336 593 413 l 515 261 b 483 285 513 261 518 285 b 411 264 454 285 433 275 z m 513 183 l 526 183 l 544 214 l 531 214 z m 539 524 l 549 524 l 663 688 l 650 688 z m 588 51 l 597 51 l 608 88 l 599 88 z m 613 135 l 622 135 l 669 283 l 660 283 z m 638 57 l 722 331 b 824 381 751 333 797 347 l 797 278 b 778 296 793 278 796 296 b 685 126 718 296 685 179 b 796 74 685 83 704 74 b 904 57 874 74 904 57 z m 644 10 l 814 10 l 821 21 l 653 21 z m 671 639 l 769 778 b 946 838 832 793 888 810 l 921 743 b 881 765 918 743 917 765 b 671 639 769 765 683 639 z m 685 367 l 694 367 l 722 454 l 713 454 z m 714 778 l 725 778 l 744 806 l 733 806 z m 763 850 l 774 850 l 814 910 l 803 910 z m 779 1014 l 900 1014 l 969 1094 l 999 1014 l 1089 1014 l 1010 1131 l 942 1131 z m 807 835 l 863 915 l 964 915 l 956 889 b 807 835 914 878 854 860 z m 842 10 l 896 10 l 904 21 l 849 21 z m 858 1038 b 932 1094 882 1057 913 1085 l 938 1094 l 881 1038 z m 864 239 l 924 361 b 953 332 929 361 921 332 b 1135 496 1049 332 1118 496 l 1025 286 b 993 300 1022 286 1018 300 b 864 239 924 300 868 239 z m 926 638 l 938 638 l 944 663 l 933 663 z m 1007 1063 l 1022 1064 b 1042 1038 1029 1054 1036 1046 l 1019 1038 z m 1011 638 l 1021 638 l 1107 818 l 1096 818 z m 1071 657 l 1135 788 b 1326 858 1201 804 1275 832 l 1267 746 b 1228 775 1263 746 1264 775 b 1071 657 1142 775 1081 657 z m 1113 850 l 1122 850 l 1150 910 l 1140 910 z m 1161 843 l 1193 915 l 1343 915 b 1161 843 1306 903 1217 871 z "},"Ẅ":{"ha":981,"x_min":0,"x_max":0,"o":"m 100 31 l 415 31 l 747 610 l 779 610 l 601 31 l 921 31 l 1397 942 l 1178 942 l 847 260 l 821 260 l 997 942 l 849 942 l 378 260 l 349 258 l 661 942 l 443 942 z m 138 57 l 243 344 b 269 300 246 344 239 300 b 361 344 304 300 335 319 l 326 268 b 181 117 236 238 181 182 b 243 74 181 85 196 74 l 335 74 b 411 57 376 72 408 65 z m 146 210 l 157 210 l 243 439 l 232 439 z m 207 10 l 250 10 l 256 21 l 211 21 z m 276 560 l 288 560 l 338 694 l 326 694 z m 283 10 l 394 10 l 399 21 l 289 21 z m 324 549 l 382 701 b 554 769 440 717 499 742 l 511 676 b 488 688 508 676 507 688 b 324 549 386 688 331 549 z m 347 744 l 358 744 l 371 781 l 361 781 z m 390 863 l 400 863 l 422 922 l 413 922 z m 404 758 l 463 915 l 572 915 b 465 846 572 911 461 886 b 485 832 467 836 474 832 b 617 903 521 831 582 871 l 576 826 b 404 758 531 817 456 785 z m 411 264 l 456 328 b 604 413 547 336 593 413 l 515 261 b 483 285 513 261 518 285 b 411 264 454 285 433 275 z m 513 183 l 526 183 l 544 214 l 531 214 z m 539 524 l 549 524 l 663 688 l 650 688 z m 588 51 l 597 51 l 608 88 l 599 88 z m 613 135 l 622 135 l 669 283 l 660 283 z m 638 57 l 722 331 b 824 381 751 333 797 347 l 797 278 b 778 296 793 278 796 296 b 685 126 718 296 685 179 b 796 74 685 83 704 74 b 904 57 874 74 904 57 z m 644 10 l 814 10 l 821 21 l 653 21 z m 671 639 l 769 778 b 946 838 832 793 888 810 l 921 743 b 881 765 918 743 917 765 b 671 639 769 765 683 639 z m 681 1014 l 917 1014 l 946 1079 l 710 1079 z m 685 367 l 694 367 l 722 454 l 713 454 z m 714 778 l 725 778 l 744 806 l 733 806 z m 721 1040 l 726 1053 l 771 1053 l 765 1040 z m 763 850 l 774 850 l 814 910 l 803 910 z m 792 1040 l 797 1053 l 906 1053 l 900 1040 z m 807 835 l 863 915 l 964 915 l 956 889 b 807 835 914 878 854 860 z m 842 10 l 896 10 l 904 21 l 849 21 z m 864 239 l 924 361 b 953 332 929 361 921 332 b 1135 496 1049 332 1118 496 l 1025 286 b 993 300 1022 286 1018 300 b 864 239 924 300 868 239 z m 926 638 l 938 638 l 944 663 l 933 663 z m 972 1014 l 1208 1014 l 1238 1079 l 1001 1079 z m 1011 638 l 1021 638 l 1107 818 l 1096 818 z m 1013 1040 l 1018 1053 l 1197 1053 l 1192 1040 z m 1071 657 l 1135 788 b 1326 858 1201 804 1275 832 l 1267 746 b 1228 775 1263 746 1264 775 b 1071 657 1142 775 1081 657 z m 1113 850 l 1122 850 l 1150 910 l 1140 910 z m 1161 843 l 1193 915 l 1343 915 b 1161 843 1306 903 1217 871 z "},"Ẁ":{"ha":981,"x_min":0,"x_max":0,"o":"m 100 31 l 415 31 l 747 610 l 779 610 l 601 31 l 921 31 l 1397 942 l 1178 942 l 847 260 l 821 260 l 997 942 l 849 942 l 378 260 l 349 258 l 661 942 l 443 942 z m 138 57 l 243 344 b 269 300 246 344 239 300 b 361 344 304 300 335 319 l 326 268 b 181 117 236 238 181 182 b 243 74 181 85 196 74 l 335 74 b 411 57 376 72 408 65 z m 146 210 l 157 210 l 243 439 l 232 439 z m 207 10 l 250 10 l 256 21 l 211 21 z m 276 560 l 288 560 l 338 694 l 326 694 z m 283 10 l 394 10 l 399 21 l 289 21 z m 324 549 l 382 701 b 554 769 440 717 499 742 l 511 676 b 488 688 508 676 507 688 b 324 549 386 688 331 549 z m 347 744 l 358 744 l 371 781 l 361 781 z m 390 863 l 400 863 l 422 922 l 413 922 z m 404 758 l 463 915 l 572 915 b 465 846 572 911 461 886 b 485 832 467 836 474 832 b 617 903 521 831 582 871 l 576 826 b 404 758 531 817 456 785 z m 411 264 l 456 328 b 604 413 547 336 593 413 l 515 261 b 483 285 513 261 518 285 b 411 264 454 285 433 275 z m 513 183 l 526 183 l 544 214 l 531 214 z m 539 524 l 549 524 l 663 688 l 650 688 z m 588 51 l 597 51 l 608 88 l 599 88 z m 613 135 l 622 135 l 669 283 l 660 283 z m 638 57 l 722 331 b 824 381 751 333 797 347 l 797 278 b 778 296 793 278 796 296 b 685 126 718 296 685 179 b 796 74 685 83 704 74 b 904 57 874 74 904 57 z m 644 10 l 814 10 l 821 21 l 653 21 z m 671 639 l 769 778 b 946 838 832 793 888 810 l 921 743 b 881 765 918 743 917 765 b 671 639 769 765 683 639 z m 685 367 l 694 367 l 722 454 l 713 454 z m 714 778 l 725 778 l 744 806 l 733 806 z m 763 850 l 774 850 l 814 910 l 803 910 z m 807 835 l 863 915 l 964 915 l 956 889 b 807 835 914 878 854 860 z m 842 10 l 896 10 l 904 21 l 849 21 z m 843 1113 l 908 996 l 971 996 l 953 1113 z m 864 239 l 924 361 b 953 332 929 361 921 332 b 1135 496 1049 332 1118 496 l 1025 286 b 993 300 1022 286 1018 300 b 864 239 924 300 868 239 z m 896 1086 l 922 1086 l 933 1025 l 929 1025 z m 926 638 l 938 638 l 944 663 l 933 663 z m 1011 638 l 1021 638 l 1107 818 l 1096 818 z m 1071 657 l 1135 788 b 1326 858 1201 804 1275 832 l 1267 746 b 1228 775 1263 746 1264 775 b 1071 657 1142 775 1081 657 z m 1113 850 l 1122 850 l 1150 910 l 1140 910 z m 1161 843 l 1193 915 l 1343 915 b 1161 843 1306 903 1217 871 z "},"X":{"ha":688,"x_min":0,"x_max":0,"o":"m 56 31 l 281 31 l 547 465 l 586 465 l 456 31 l 685 31 l 786 489 l 1092 942 l 867 942 l 607 508 l 565 507 l 692 942 l 463 942 l 361 483 z m 110 57 l 313 369 b 328 325 315 369 297 325 b 488 417 419 325 478 417 l 390 263 b 364 285 389 263 393 285 b 160 96 275 285 164 128 b 201 74 157 78 164 74 b 265 57 239 74 267 65 z m 143 10 l 168 10 l 176 21 l 150 21 z m 143 197 l 157 197 l 185 239 l 171 239 z m 190 10 l 258 10 l 267 21 l 197 21 z m 236 338 l 250 338 l 313 429 l 299 429 z m 322 81 l 335 81 l 344 96 l 332 96 z m 344 508 l 356 508 l 374 588 l 363 588 z m 381 674 l 392 674 l 400 708 l 389 708 z m 401 549 l 436 701 b 615 771 492 717 554 743 l 588 675 b 556 686 585 675 583 686 b 401 549 454 686 408 549 z m 406 782 l 417 782 l 442 899 l 431 899 z m 436 35 l 446 35 l 461 81 l 450 81 z m 447 758 l 482 915 l 589 915 b 496 849 592 911 493 888 b 519 832 496 836 507 832 b 654 906 560 832 624 874 l 629 832 b 447 758 583 822 499 786 z m 467 136 l 476 136 l 515 263 l 506 263 z m 494 57 l 583 371 b 633 332 586 371 590 332 b 760 476 714 332 750 476 l 710 278 b 672 304 706 278 710 304 b 533 126 596 304 536 194 b 592 71 532 85 547 71 b 658 57 633 71 656 69 z m 515 10 l 553 10 l 556 21 l 518 21 z m 531 342 l 540 342 l 556 392 l 546 392 z m 578 10 l 671 10 l 674 21 l 581 21 z m 640 600 l 653 600 l 713 700 l 700 700 z m 667 826 l 678 826 l 685 849 l 674 849 z m 706 628 l 801 781 b 994 843 876 800 931 815 l 915 726 b 889 761 911 726 921 761 b 706 628 806 761 718 628 z m 747 783 l 760 783 l 781 815 l 768 815 z m 793 858 l 806 858 l 829 897 l 817 897 z m 839 840 l 885 915 l 1046 915 l 1042 908 b 839 840 985 894 904 871 z "},"Y":{"ha":675,"x_min":0,"x_max":0,"o":"m 226 31 l 460 31 l 547 225 l 1110 942 l 876 942 l 567 476 l 536 478 l 646 942 l 403 942 l 319 232 z m 264 160 l 274 160 l 301 217 l 292 217 z m 268 57 l 335 201 b 350 256 347 229 347 226 l 360 357 b 431 318 365 357 367 318 b 675 433 581 318 660 435 l 549 269 b 506 297 544 269 550 297 b 378 253 429 297 396 281 b 343 174 369 242 361 213 b 310 99 332 149 310 113 b 356 74 310 78 328 74 b 440 57 407 74 440 65 z m 294 10 l 396 10 l 401 21 l 300 21 z m 313 351 l 324 351 l 344 542 l 333 542 z m 339 576 l 349 576 l 357 644 l 346 644 z m 363 783 l 374 783 l 388 897 l 376 897 z m 378 549 l 397 701 b 579 771 451 717 521 743 l 558 675 b 531 686 557 675 554 686 b 378 549 428 686 385 549 z m 406 758 l 424 915 l 533 915 b 444 849 538 911 438 888 b 471 832 446 836 458 832 b 607 906 511 832 579 874 l 589 831 b 406 758 543 821 454 786 z m 417 10 l 443 10 l 449 21 l 422 21 z m 493 81 l 504 81 l 519 113 l 508 113 z m 581 625 l 589 625 l 599 664 l 590 664 z m 694 628 l 803 781 b 1004 850 878 796 935 815 l 907 726 b 876 756 903 726 908 756 b 694 628 803 756 715 628 z m 697 704 l 707 704 l 728 735 l 718 735 z m 704 407 l 714 407 l 774 482 l 763 482 z m 749 783 l 760 783 l 836 897 l 825 897 z m 838 840 l 890 915 l 1058 915 l 1054 908 b 838 840 997 897 913 872 z "},"Ý":{"ha":675,"x_min":0,"x_max":0,"o":"m 226 31 l 460 31 l 547 225 l 1110 942 l 876 942 l 567 476 l 536 478 l 646 942 l 403 942 l 319 232 z m 264 160 l 274 160 l 301 217 l 292 217 z m 268 57 l 335 201 b 350 256 347 229 347 226 l 360 357 b 431 318 365 357 367 318 b 675 433 581 318 660 435 l 549 269 b 506 297 544 269 550 297 b 378 253 429 297 396 281 b 343 174 369 242 361 213 b 310 99 332 149 310 113 b 356 74 310 78 328 74 b 440 57 407 74 440 65 z m 294 10 l 396 10 l 401 21 l 300 21 z m 313 351 l 324 351 l 344 542 l 333 542 z m 339 576 l 349 576 l 357 644 l 346 644 z m 363 783 l 374 783 l 388 897 l 376 897 z m 378 549 l 397 701 b 579 771 451 717 521 743 l 558 675 b 531 686 557 675 554 686 b 378 549 428 686 385 549 z m 406 758 l 424 915 l 533 915 b 444 849 538 911 438 888 b 471 832 446 836 458 832 b 607 906 511 832 579 874 l 589 831 b 406 758 543 821 454 786 z m 417 10 l 443 10 l 449 21 l 422 21 z m 493 81 l 504 81 l 519 113 l 508 113 z m 581 625 l 589 625 l 599 664 l 590 664 z m 694 628 l 803 781 b 1004 850 878 796 935 815 l 907 726 b 876 756 903 726 908 756 b 694 628 803 756 715 628 z m 697 704 l 707 704 l 728 735 l 718 735 z m 704 407 l 714 407 l 774 482 l 763 482 z m 729 996 l 792 996 l 921 1113 l 811 1113 z m 749 783 l 760 783 l 836 897 l 825 897 z m 782 1025 l 826 1086 l 853 1086 l 786 1025 z m 838 840 l 890 915 l 1058 915 l 1054 908 b 838 840 997 897 913 872 z "},"Ŷ":{"ha":688,"x_min":0,"x_max":0,"o":"m 239 31 l 472 31 l 560 225 l 1122 942 l 889 942 l 579 476 l 549 478 l 658 942 l 415 942 l 332 232 z m 276 160 l 286 160 l 314 217 l 304 217 z m 281 57 l 347 201 b 363 256 360 229 360 226 l 372 357 b 443 318 378 357 379 318 b 688 433 593 318 672 435 l 561 269 b 518 297 557 269 563 297 b 390 253 442 297 408 281 b 356 174 382 242 374 213 b 322 99 344 149 322 113 b 368 74 322 78 340 74 b 453 57 419 74 453 65 z m 307 10 l 408 10 l 414 21 l 313 21 z m 325 351 l 336 351 l 357 542 l 346 542 z m 351 576 l 361 576 l 369 644 l 358 644 z m 375 783 l 386 783 l 400 897 l 389 897 z m 390 549 l 410 701 b 592 771 464 717 533 743 l 571 675 b 543 686 569 675 567 686 b 390 549 440 686 397 549 z m 418 758 l 436 915 l 546 915 b 457 849 550 911 450 888 b 483 832 458 836 471 832 b 619 906 524 832 592 874 l 601 831 b 418 758 556 821 467 786 z m 429 10 l 456 10 l 461 21 l 435 21 z m 506 81 l 517 81 l 532 113 l 521 113 z m 593 625 l 601 625 l 611 664 l 603 664 z m 622 1014 l 743 1014 l 813 1094 l 842 1014 l 932 1014 l 853 1131 l 785 1131 z m 701 1038 b 775 1094 725 1057 756 1085 l 781 1094 l 724 1038 z m 707 628 l 815 781 b 1017 850 890 796 947 815 l 919 726 b 889 756 915 726 921 756 b 707 628 815 756 728 628 z m 710 704 l 719 704 l 740 735 l 731 735 z m 717 407 l 726 407 l 786 482 l 775 482 z m 761 783 l 772 783 l 849 897 l 838 897 z m 850 840 l 903 915 l 1071 915 l 1067 908 b 850 840 1010 897 925 872 z m 850 1063 l 865 1064 b 885 1038 872 1054 879 1046 l 863 1038 z "},"Ÿ":{"ha":639,"x_min":0,"x_max":0,"o":"m 171 31 l 404 31 l 492 225 l 1054 942 l 821 942 l 511 476 l 481 478 l 590 942 l 347 942 l 264 232 z m 208 160 l 218 160 l 246 217 l 236 217 z m 213 57 l 279 201 b 294 256 292 229 292 226 l 304 357 b 375 318 310 357 311 318 b 619 433 525 318 604 435 l 493 269 b 450 297 489 269 494 297 b 322 253 374 297 340 281 b 288 174 314 242 306 213 b 254 99 276 149 254 113 b 300 74 254 78 272 74 b 385 57 351 74 385 65 z m 239 10 l 340 10 l 346 21 l 244 21 z m 257 351 l 268 351 l 289 542 l 278 542 z m 283 576 l 293 576 l 301 644 l 290 644 z m 307 783 l 318 783 l 332 897 l 321 897 z m 322 549 l 342 701 b 524 771 396 717 465 743 l 503 675 b 475 686 501 675 499 686 b 322 549 372 686 329 549 z m 350 758 l 368 915 l 478 915 b 389 849 482 911 382 888 b 415 832 390 836 403 832 b 551 906 456 832 524 874 l 533 831 b 350 758 488 821 399 786 z m 361 10 l 388 10 l 393 21 l 367 21 z m 438 81 l 449 81 l 464 113 l 453 113 z m 454 1014 l 690 1014 l 719 1079 l 483 1079 z m 494 1040 l 500 1053 l 679 1053 l 674 1040 z m 525 625 l 533 625 l 543 664 l 535 664 z m 639 628 l 747 781 b 949 850 822 796 879 815 l 851 726 b 821 756 847 726 853 756 b 639 628 747 756 660 628 z m 642 704 l 651 704 l 672 735 l 663 735 z m 649 407 l 658 407 l 718 482 l 707 482 z m 693 783 l 704 783 l 781 897 l 769 897 z m 746 1014 l 982 1014 l 1011 1079 l 775 1079 z m 782 840 l 835 915 l 1003 915 l 999 908 b 782 840 942 897 857 872 z m 786 1040 l 792 1053 l 836 1053 l 831 1040 z m 857 1040 l 863 1053 l 971 1053 l 965 1040 z "},"Ỳ":{"ha":688,"x_min":0,"x_max":0,"o":"m 239 31 l 472 31 l 560 225 l 1122 942 l 889 942 l 579 476 l 549 478 l 658 942 l 415 942 l 332 232 z m 276 160 l 286 160 l 314 217 l 304 217 z m 281 57 l 347 201 b 363 256 360 229 360 226 l 372 357 b 443 318 378 357 379 318 b 688 433 593 318 672 435 l 561 269 b 518 297 557 269 563 297 b 390 253 442 297 408 281 b 356 174 382 242 374 213 b 322 99 344 149 322 113 b 368 74 322 78 340 74 b 453 57 419 74 453 65 z m 307 10 l 408 10 l 414 21 l 313 21 z m 325 351 l 336 351 l 357 542 l 346 542 z m 351 576 l 361 576 l 369 644 l 358 644 z m 375 783 l 386 783 l 400 897 l 389 897 z m 390 549 l 410 701 b 592 771 464 717 533 743 l 571 675 b 543 686 569 675 567 686 b 390 549 440 686 397 549 z m 418 758 l 436 915 l 546 915 b 457 849 550 911 450 888 b 483 832 458 836 471 832 b 619 906 524 832 592 874 l 601 831 b 418 758 556 821 467 786 z m 429 10 l 456 10 l 461 21 l 435 21 z m 506 81 l 517 81 l 532 113 l 521 113 z m 593 625 l 601 625 l 611 664 l 603 664 z m 685 1113 l 750 996 l 813 996 l 794 1113 z m 707 628 l 815 781 b 1017 850 890 796 947 815 l 919 726 b 889 756 915 726 921 756 b 707 628 815 756 728 628 z m 710 704 l 719 704 l 740 735 l 731 735 z m 717 407 l 726 407 l 786 482 l 775 482 z m 738 1086 l 764 1086 l 775 1025 l 771 1025 z m 761 783 l 772 783 l 849 897 l 838 897 z m 850 840 l 903 915 l 1071 915 l 1067 908 b 850 840 1010 897 925 872 z "},"Z":{"ha":614,"x_min":0,"x_max":0,"o":"m 82 32 l 594 32 l 690 242 l 481 242 l 978 942 l 464 942 l 368 732 l 579 732 z m 133 57 l 372 390 b 403 332 375 390 351 332 b 576 425 490 332 564 425 l 472 278 b 440 304 468 278 478 304 b 210 115 358 304 210 174 b 279 74 210 85 222 74 l 439 74 b 578 57 490 74 568 71 z m 190 219 l 201 219 l 276 324 l 265 324 z m 271 10 l 474 10 l 481 21 l 279 21 z m 322 406 l 333 406 l 460 582 l 449 582 z m 372 789 l 385 789 l 435 899 l 422 899 z m 403 753 b 476 914 440 824 476 914 l 729 914 b 465 828 729 910 465 868 b 506 813 465 815 486 813 b 822 914 589 813 754 872 l 919 914 l 892 878 b 456 753 793 861 603 810 z m 404 710 l 504 710 l 511 721 l 411 721 z m 472 615 l 485 615 l 510 651 l 497 651 z m 513 10 l 557 10 l 563 21 l 518 21 z m 524 597 l 628 746 b 860 824 710 765 788 789 l 760 694 b 724 726 756 694 764 726 b 524 597 639 726 531 597 z m 628 433 l 642 433 l 664 465 l 650 465 z "},"Ź":{"ha":614,"x_min":0,"x_max":0,"o":"m 82 32 l 594 32 l 690 242 l 481 242 l 978 942 l 464 942 l 368 732 l 579 732 z m 133 57 l 372 390 b 403 332 375 390 351 332 b 576 425 490 332 564 425 l 472 278 b 440 304 468 278 478 304 b 210 115 358 304 210 174 b 279 74 210 85 222 74 l 439 74 b 578 57 490 74 568 71 z m 190 219 l 201 219 l 276 324 l 265 324 z m 271 10 l 474 10 l 481 21 l 279 21 z m 322 406 l 333 406 l 460 582 l 449 582 z m 372 789 l 385 789 l 435 899 l 422 899 z m 403 753 b 476 914 440 824 476 914 l 729 914 b 465 828 729 910 465 868 b 506 813 465 815 486 813 b 822 914 589 813 754 872 l 919 914 l 892 878 b 456 753 793 861 603 810 z m 404 710 l 504 710 l 511 721 l 411 721 z m 472 615 l 485 615 l 510 651 l 497 651 z m 513 10 l 557 10 l 563 21 l 518 21 z m 524 597 l 628 746 b 860 824 710 765 788 789 l 736 654 b 704 703 732 654 744 703 b 524 597 619 703 531 597 z m 628 433 l 642 433 l 664 465 l 650 465 z m 694 996 l 757 996 l 886 1113 l 776 1113 z m 747 1025 l 792 1086 l 818 1086 l 751 1025 z "},"Ž":{"ha":614,"x_min":0,"x_max":0,"o":"m 82 32 l 594 32 l 690 242 l 481 242 l 978 942 l 464 942 l 368 732 l 579 732 z m 133 57 l 372 390 b 403 332 375 390 351 332 b 576 425 490 332 564 425 l 472 278 b 440 304 468 278 478 304 b 210 115 358 304 210 174 b 279 74 210 85 222 74 l 439 74 b 578 57 490 74 568 71 z m 190 219 l 201 219 l 276 324 l 265 324 z m 271 10 l 474 10 l 481 21 l 279 21 z m 322 406 l 333 406 l 460 582 l 449 582 z m 372 789 l 385 789 l 435 899 l 422 899 z m 403 753 b 476 914 440 824 476 914 l 729 914 b 465 828 729 910 465 868 b 506 813 465 815 486 813 b 822 914 589 813 754 872 l 919 914 l 892 878 b 456 753 793 861 603 810 z m 404 710 l 504 710 l 511 721 l 411 721 z m 472 615 l 485 615 l 510 651 l 497 651 z m 513 10 l 557 10 l 563 21 l 518 21 z m 524 597 l 628 746 b 860 824 710 765 788 789 l 736 654 b 704 703 732 654 744 703 b 524 597 619 703 531 597 z m 628 433 l 642 433 l 664 465 l 650 465 z m 629 1113 l 708 996 l 776 996 l 939 1113 l 826 1113 l 754 1038 l 728 1113 z m 681 1089 l 703 1089 l 726 1032 l 721 1032 b 681 1089 710 1042 694 1069 z m 811 1064 l 838 1089 l 860 1089 l 825 1063 z "},"Æ":{"ha":1010,"x_min":0,"x_max":0,"o":"m 7 32 l 296 32 l 376 161 l 544 161 l 485 32 l 969 32 l 1064 243 l 796 243 l 864 389 l 1083 389 l 1178 600 l 958 600 l 1021 732 l 1292 732 l 1386 943 l 608 943 z m 64 57 l 269 369 b 294 318 275 369 247 318 b 488 440 363 318 481 440 l 425 342 b 438 315 414 324 415 315 l 617 315 b 667 344 649 315 654 321 l 678 365 b 717 319 683 365 669 319 b 857 439 793 319 846 439 l 775 260 b 739 288 772 260 776 288 b 611 226 697 288 649 254 l 628 263 b 599 294 636 282 636 294 l 476 294 b 132 97 306 294 132 194 b 275 57 131 54 268 79 z m 104 11 l 272 11 l 279 21 l 111 21 z m 111 224 l 122 224 l 194 335 l 183 335 z m 233 413 l 246 413 l 268 447 l 256 447 z m 365 525 l 469 678 b 715 742 518 686 653 714 l 656 661 l 629 619 b 592 644 625 619 622 644 b 365 525 478 644 379 525 z m 399 138 l 493 138 l 499 147 l 404 147 z m 426 708 l 439 708 l 564 899 l 551 899 z m 474 346 l 675 639 l 763 756 l 815 756 l 628 346 z m 510 742 l 628 917 l 1032 918 b 847 896 1029 908 900 901 b 615 817 660 878 615 844 b 686 794 615 803 642 800 b 510 742 643 779 551 761 z m 522 393 l 533 393 l 556 425 l 544 425 z m 536 58 l 582 164 b 586 104 603 164 586 143 b 668 75 586 72 628 75 l 849 75 b 947 58 889 75 947 71 z m 650 447 l 661 447 l 693 518 l 682 518 z m 660 11 l 710 11 l 713 21 l 664 21 z m 697 553 l 708 553 l 772 694 l 765 694 z m 750 11 l 956 13 l 960 22 l 751 21 z m 760 547 l 814 683 b 996 754 875 703 931 731 l 957 665 b 931 676 954 665 950 676 b 760 547 874 676 796 589 z m 799 782 b 1226 917 942 811 1138 882 l 1340 917 l 1332 900 b 842 750 1236 882 1039 822 b 844 769 842 753 844 761 b 799 782 844 785 799 776 z m 833 299 l 843 299 l 865 346 l 856 346 z m 883 413 b 1026 442 890 422 986 425 b 1096 483 1072 461 1090 483 l 1065 413 z m 949 365 l 1068 365 l 1072 375 l 953 375 z m 988 636 l 997 636 l 1025 693 l 1015 693 z m 1022 758 b 1313 849 1104 778 1226 808 l 1271 758 z m 1096 708 l 1143 708 l 1147 718 l 1100 718 z m 1161 708 l 1275 708 l 1281 718 l 1167 718 z "},"Ĳ":{"ha":821,"x_min":0,"x_max":0,"o":"m 72 33 l 304 33 l 719 944 l 486 944 z m 111 57 l 264 390 b 299 332 267 390 256 332 b 472 476 379 332 464 476 l 382 278 b 349 304 378 278 386 304 b 160 107 261 304 160 171 b 278 57 160 49 278 90 z m 129 208 l 140 208 l 199 338 l 188 338 z m 153 10 l 293 10 l 297 21 l 157 21 z m 217 403 l 228 403 l 247 443 l 236 443 z m 288 557 l 299 557 l 360 690 l 349 690 z m 333 549 l 406 701 b 611 769 465 717 544 742 l 567 675 b 536 686 564 675 564 686 b 333 549 428 686 339 547 z m 428 864 l 439 864 l 465 922 l 454 922 z m 433 758 l 504 915 l 614 915 b 501 846 614 911 501 886 b 671 903 501 804 622 861 l 636 829 b 433 758 589 819 488 785 z m 476 31 b 871 238 719 32 813 106 l 1196 942 l 963 942 l 676 319 b 486 239 646 250 572 243 z m 506 58 l 511 188 b 579 83 518 188 511 83 b 783 153 692 83 774 153 b 506 58 726 94 643 63 z m 522 213 b 700 308 611 218 675 246 l 739 397 b 781 339 742 397 731 339 b 953 483 858 339 944 483 l 863 285 b 829 311 858 285 867 311 b 544 207 728 311 672 207 b 522 213 538 207 526 210 z m 543 14 b 711 50 633 18 682 38 l 713 60 b 544 22 679 46 640 28 z m 660 333 l 671 333 l 765 531 l 753 531 z m 776 581 l 788 581 l 804 617 l 793 617 z m 811 549 l 883 701 b 1089 769 943 717 1022 742 l 1044 675 b 1014 686 1042 675 1042 686 b 811 549 907 686 818 549 z m 889 829 l 901 829 l 943 922 l 932 922 z m 911 758 l 982 915 l 1092 915 b 979 846 1092 911 979 886 b 1149 903 979 804 1100 861 l 1113 829 b 911 758 1065 819 965 785 z "},"Œ":{"ha":1047,"x_min":0,"x_max":0,"o":"m 424 31 l 997 31 l 1092 242 l 824 242 l 892 388 l 1111 388 l 1206 599 l 986 599 l 1049 731 l 1319 731 l 1414 942 l 882 942 l 764 943 b 310 571 536 943 429 807 b 207 247 238 426 208 328 b 424 31 206 106 278 31 z m 189 310 l 201 310 b 211 356 203 324 206 339 l 199 356 b 189 310 193 339 190 324 z m 236 244 b 249 344 235 293 242 318 b 300 306 254 344 244 306 b 454 435 386 306 440 436 b 403 257 418 363 404 299 b 365 276 399 257 394 276 b 269 186 310 276 268 244 b 432 75 271 124 328 75 l 876 74 b 979 57 917 74 979 69 l 424 57 b 236 244 289 57 239 119 z m 243 492 l 254 492 b 296 576 275 538 293 572 b 364 697 319 619 340 661 l 350 697 b 288 582 332 668 301 610 b 243 492 283 575 263 536 z m 315 532 b 381 650 340 575 365 622 b 622 739 453 672 542 707 b 550 636 608 731 581 688 b 511 647 544 642 528 647 b 315 532 385 647 328 532 z m 411 785 l 424 785 b 526 886 457 826 485 854 l 511 886 b 411 785 467 851 443 826 z m 421 718 b 528 833 458 769 494 806 b 758 918 592 888 665 918 b 593 839 758 915 593 886 b 421 718 593 774 508 767 z m 432 258 b 522 518 432 293 444 353 b 754 760 629 744 661 760 l 828 760 l 571 197 l 506 197 b 432 258 461 197 432 215 z m 457 328 l 468 328 b 483 371 472 340 476 354 l 472 371 b 457 328 465 354 461 340 z m 486 10 l 554 10 l 560 21 l 490 21 z m 572 251 l 586 251 l 633 363 l 622 363 z m 600 196 l 679 369 b 714 317 683 369 674 317 b 885 438 807 317 876 438 l 803 258 b 763 286 800 258 800 286 b 600 196 657 286 622 196 z m 607 10 l 644 10 l 649 21 l 611 21 z m 667 453 l 678 453 l 733 576 l 722 576 z m 713 10 l 950 10 l 956 21 l 715 21 z m 738 788 b 903 876 793 806 903 836 b 851 915 903 908 851 913 l 1117 917 b 925 832 1117 913 925 883 b 1243 915 925 796 1175 874 l 1371 915 l 1360 894 b 853 749 1254 879 1026 815 b 818 788 865 779 865 788 z m 747 631 l 758 631 l 781 679 l 769 679 z m 754 538 l 826 690 b 1025 753 886 706 958 729 l 986 664 b 960 675 983 664 979 675 b 754 538 853 675 761 538 z m 865 310 l 876 310 l 899 357 l 888 357 z m 911 411 b 1054 440 918 421 1014 424 b 1124 482 1100 460 1118 482 l 1093 411 z m 953 365 l 1099 365 l 1104 376 l 958 376 z m 1050 757 b 1340 847 1132 776 1254 807 l 1299 757 z m 1140 708 l 1181 708 l 1186 719 l 1146 719 z m 1160 475 l 1172 475 l 1199 532 l 1186 532 z m 1215 708 l 1310 708 l 1314 719 l 1219 719 z "},"a":{"ha":707,"x_min":0,"x_max":0,"o":"m 219 17 b 513 218 322 17 450 151 l 500 175 l 464 31 l 661 31 l 1019 817 l 786 817 l 746 726 b 583 831 682 800 644 831 b 429 758 524 831 478 808 b 243 443 374 700 315 600 b 172 258 213 375 188 313 b 151 175 163 228 156 200 b 160 44 138 99 149 61 b 219 17 171 26 192 17 z m 160 286 l 168 286 b 211 397 181 319 194 356 l 201 397 b 160 286 185 356 171 319 z m 171 113 b 176 169 171 128 172 146 b 249 390 186 225 217 324 b 283 332 251 390 240 332 b 431 403 375 332 426 407 b 383 281 408 357 392 321 b 338 304 378 281 368 304 b 188 115 263 304 188 222 b 226 61 188 75 203 61 b 310 81 271 61 304 81 b 225 43 275 53 250 43 b 171 113 197 43 171 58 z m 188 1 b 219 -3 197 -1 208 -3 b 272 7 239 -3 256 0 l 272 17 b 219 7 256 11 239 7 b 188 11 208 7 197 8 z m 233 471 l 244 471 b 272 529 254 492 263 510 l 261 529 b 233 471 253 510 243 492 z m 318 529 b 383 643 340 575 372 628 b 693 742 486 668 607 708 l 724 708 l 700 656 b 626 679 696 656 689 679 b 318 529 563 679 422 624 z m 336 667 l 347 667 b 439 783 381 719 410 757 l 426 783 b 336 667 397 756 368 718 z m 408 247 b 471 431 408 288 443 369 b 560 603 508 515 538 571 b 625 643 582 631 601 643 b 664 624 649 643 660 631 b 593 397 683 593 665 551 b 540 293 565 339 558 319 b 439 214 519 263 467 214 b 408 247 417 214 408 224 z m 419 704 b 586 804 461 757 510 804 b 656 779 615 804 649 788 b 419 704 599 768 489 733 z m 435 317 l 444 317 b 460 351 450 329 454 340 l 450 351 b 435 317 444 340 440 329 z m 454 76 l 464 76 l 482 149 l 468 135 z m 488 11 l 651 11 l 656 21 l 490 21 z m 496 57 l 529 192 b 549 242 533 208 539 221 l 622 390 b 668 331 625 390 617 331 b 815 425 747 331 807 426 l 746 278 b 713 304 742 278 750 304 b 549 206 661 306 586 258 b 531 104 542 179 531 131 b 593 69 531 74 563 71 b 649 57 621 68 649 74 z m 569 393 l 579 393 l 583 401 b 601 440 590 415 596 428 l 592 440 l 575 406 b 569 393 574 401 571 397 z m 618 500 l 629 500 b 660 583 646 540 656 565 l 649 583 b 618 500 646 567 636 542 z m 703 549 l 757 672 b 954 735 829 692 901 713 l 910 640 b 875 651 907 640 903 651 b 703 549 768 651 710 549 z m 775 725 l 804 790 l 974 790 l 971 785 b 775 725 918 778 814 747 z "},"á":{"ha":707,"x_min":0,"x_max":0,"o":"m 219 17 b 513 218 322 17 450 151 l 500 175 l 464 31 l 661 31 l 1019 817 l 786 817 l 746 726 b 583 831 682 800 644 831 b 429 758 524 831 478 808 b 243 443 374 700 315 600 b 172 258 213 375 188 313 b 151 175 163 228 156 200 b 160 44 138 99 149 61 b 219 17 171 26 192 17 z m 160 286 l 168 286 b 211 397 181 319 194 356 l 201 397 b 160 286 185 356 171 319 z m 171 113 b 176 169 171 128 172 146 b 249 390 186 225 217 324 b 283 332 251 390 240 332 b 431 403 375 332 426 407 b 383 281 408 357 392 321 b 338 304 378 281 368 304 b 188 115 263 304 188 222 b 226 61 188 75 203 61 b 310 81 271 61 304 81 b 225 43 275 53 250 43 b 171 113 197 43 171 58 z m 188 1 b 219 -3 197 -1 208 -3 b 272 7 239 -3 256 0 l 272 17 b 219 7 256 11 239 7 b 188 11 208 7 197 8 z m 233 471 l 244 471 b 272 529 254 492 263 510 l 261 529 b 233 471 253 510 243 492 z m 318 529 b 383 643 340 575 372 628 b 693 742 486 668 607 708 l 724 708 l 700 656 b 626 679 696 656 689 679 b 318 529 563 679 422 624 z m 336 667 l 347 667 b 439 783 381 719 410 757 l 426 783 b 336 667 397 756 368 718 z m 408 247 b 471 431 408 288 443 369 b 560 603 508 515 538 571 b 625 643 582 631 601 643 b 664 624 649 643 660 631 b 593 397 683 593 665 551 b 540 293 565 339 558 319 b 439 214 519 263 467 214 b 408 247 417 214 408 224 z m 419 704 b 586 804 461 757 510 804 b 656 779 615 804 649 788 b 419 704 599 768 489 733 z m 435 317 l 444 317 b 460 351 450 329 454 340 l 450 351 b 435 317 444 340 440 329 z m 454 76 l 464 76 l 482 149 l 468 135 z m 488 11 l 651 11 l 656 21 l 490 21 z m 496 57 l 529 192 b 549 242 533 208 539 221 l 622 390 b 668 331 625 390 617 331 b 815 425 747 331 807 426 l 746 278 b 713 304 742 278 750 304 b 549 206 661 306 586 258 b 531 104 542 179 531 131 b 593 69 531 74 563 71 b 649 57 621 68 649 74 z m 569 393 l 579 393 l 583 401 b 601 440 590 415 596 428 l 592 440 l 575 406 b 569 393 574 401 571 397 z m 618 500 l 629 500 b 660 583 646 540 656 565 l 649 583 b 618 500 646 567 636 542 z m 701 882 l 764 882 l 893 999 l 783 999 z m 703 549 l 757 672 b 954 735 829 692 901 713 l 910 640 b 875 651 907 640 903 651 b 703 549 768 651 710 549 z m 754 911 l 799 972 l 825 972 l 758 911 z m 775 725 l 804 790 l 974 790 l 971 785 b 775 725 918 778 814 747 z "},"â":{"ha":692,"x_min":0,"x_max":0,"o":"m 219 17 b 513 218 322 17 450 151 l 500 175 l 464 31 l 661 31 l 1019 817 l 786 817 l 746 726 b 583 831 682 800 644 831 b 429 758 524 831 478 808 b 243 443 374 700 315 600 b 172 258 213 375 188 313 b 151 175 163 228 156 200 b 160 44 138 99 149 61 b 219 17 171 26 192 17 z m 160 286 l 168 286 b 211 397 181 319 194 356 l 201 397 b 160 286 185 356 171 319 z m 171 113 b 176 169 171 128 172 146 b 249 390 186 225 217 324 b 283 332 251 390 240 332 b 431 403 375 332 426 407 b 383 281 408 357 392 321 b 338 304 378 281 368 304 b 188 115 263 304 188 222 b 226 61 188 75 203 61 b 310 81 271 61 304 81 b 225 43 275 53 250 43 b 171 113 197 43 171 58 z m 188 1 b 219 -3 197 -1 208 -3 b 272 7 239 -3 256 0 l 272 17 b 219 7 256 11 239 7 b 188 11 208 7 197 8 z m 233 471 l 244 471 b 272 529 254 492 263 510 l 261 529 b 233 471 253 510 243 492 z m 318 529 b 383 643 340 575 372 628 b 693 742 486 668 607 708 l 724 708 l 700 656 b 626 679 696 656 689 679 b 318 529 563 679 422 624 z m 336 667 l 347 667 b 439 783 381 719 410 757 l 426 783 b 336 667 397 756 368 718 z m 408 247 b 471 431 408 288 443 369 b 560 603 508 515 538 571 b 625 643 582 631 601 643 b 664 624 649 643 660 631 b 593 397 683 593 665 551 b 540 293 565 339 558 319 b 439 214 519 263 467 214 b 408 247 417 214 408 224 z m 419 704 b 586 804 461 757 510 804 b 656 779 615 804 649 788 b 419 704 599 768 489 733 z m 435 317 l 444 317 b 460 351 450 329 454 340 l 450 351 b 435 317 444 340 440 329 z m 454 76 l 464 76 l 482 149 l 468 135 z m 488 11 l 651 11 l 656 21 l 490 21 z m 496 57 l 529 192 b 549 242 533 208 539 221 l 622 390 b 668 331 625 390 617 331 b 815 425 747 331 807 426 l 746 278 b 713 304 742 278 750 304 b 549 206 661 306 586 258 b 531 104 542 179 531 131 b 593 69 531 74 563 71 b 649 57 621 68 649 74 z m 569 393 l 579 393 l 583 401 b 601 440 590 415 596 428 l 592 440 l 575 406 b 569 393 574 401 571 397 z m 618 500 l 629 500 b 660 583 646 540 656 565 l 649 583 b 618 500 646 567 636 542 z m 622 889 l 743 889 l 813 969 l 842 889 l 932 889 l 853 1006 l 785 1006 z m 701 913 b 775 969 725 932 756 960 l 781 969 l 724 913 z m 703 549 l 757 672 b 954 735 829 692 901 713 l 910 640 b 875 651 907 640 903 651 b 703 549 768 651 710 549 z m 775 725 l 804 790 l 974 790 l 971 785 b 775 725 918 778 814 747 z m 850 938 l 865 939 b 885 913 872 929 879 921 l 863 913 z "},"ä":{"ha":692,"x_min":0,"x_max":0,"o":"m 219 17 b 513 218 322 17 450 151 l 500 175 l 464 31 l 661 31 l 1019 817 l 786 817 l 746 726 b 583 831 682 800 644 831 b 429 758 524 831 478 808 b 243 443 374 700 315 600 b 172 258 213 375 188 313 b 151 175 163 228 156 200 b 160 44 138 99 149 61 b 219 17 171 26 192 17 z m 160 286 l 168 286 b 211 397 181 319 194 356 l 201 397 b 160 286 185 356 171 319 z m 171 113 b 176 169 171 128 172 146 b 249 390 186 225 217 324 b 283 332 251 390 240 332 b 431 403 375 332 426 407 b 383 281 408 357 392 321 b 338 304 378 281 368 304 b 188 115 263 304 188 222 b 226 61 188 75 203 61 b 310 81 271 61 304 81 b 225 43 275 53 250 43 b 171 113 197 43 171 58 z m 188 1 b 219 -3 197 -1 208 -3 b 272 7 239 -3 256 0 l 272 17 b 219 7 256 11 239 7 b 188 11 208 7 197 8 z m 233 471 l 244 471 b 272 529 254 492 263 510 l 261 529 b 233 471 253 510 243 492 z m 318 529 b 383 643 340 575 372 628 b 693 742 486 668 607 708 l 724 708 l 700 656 b 626 679 696 656 689 679 b 318 529 563 679 422 624 z m 336 667 l 347 667 b 439 783 381 719 410 757 l 426 783 b 336 667 397 756 368 718 z m 408 247 b 471 431 408 288 443 369 b 560 603 508 515 538 571 b 625 643 582 631 601 643 b 664 624 649 643 660 631 b 593 397 683 593 665 551 b 540 293 565 339 558 319 b 439 214 519 263 467 214 b 408 247 417 214 408 224 z m 419 704 b 586 804 461 757 510 804 b 656 779 615 804 649 788 b 419 704 599 768 489 733 z m 435 317 l 444 317 b 460 351 450 329 454 340 l 450 351 b 435 317 444 340 440 329 z m 454 76 l 464 76 l 482 149 l 468 135 z m 476 889 l 713 889 l 742 954 l 506 954 z m 488 11 l 651 11 l 656 21 l 490 21 z m 496 57 l 529 192 b 549 242 533 208 539 221 l 622 390 b 668 331 625 390 617 331 b 815 425 747 331 807 426 l 746 278 b 713 304 742 278 750 304 b 549 206 661 306 586 258 b 531 104 542 179 531 131 b 593 69 531 74 563 71 b 649 57 621 68 649 74 z m 517 915 l 522 928 l 567 928 l 561 915 z m 569 393 l 579 393 l 583 401 b 601 440 590 415 596 428 l 592 440 l 575 406 b 569 393 574 401 571 397 z m 588 915 l 593 928 l 701 928 l 696 915 z m 618 500 l 629 500 b 660 583 646 540 656 565 l 649 583 b 618 500 646 567 636 542 z m 703 549 l 757 672 b 954 735 829 692 901 713 l 910 640 b 875 651 907 640 903 651 b 703 549 768 651 710 549 z m 768 889 l 1004 889 l 1033 954 l 797 954 z m 775 725 l 804 790 l 974 790 l 971 785 b 775 725 918 778 814 747 z m 808 915 l 814 928 l 993 928 l 988 915 z "},"à":{"ha":692,"x_min":0,"x_max":0,"o":"m 219 17 b 513 218 322 17 450 151 l 500 175 l 464 31 l 661 31 l 1019 817 l 786 817 l 746 726 b 583 831 682 800 644 831 b 429 758 524 831 478 808 b 243 443 374 700 315 600 b 172 258 213 375 188 313 b 151 175 163 228 156 200 b 160 44 138 99 149 61 b 219 17 171 26 192 17 z m 160 286 l 168 286 b 211 397 181 319 194 356 l 201 397 b 160 286 185 356 171 319 z m 171 113 b 176 169 171 128 172 146 b 249 390 186 225 217 324 b 283 332 251 390 240 332 b 431 403 375 332 426 407 b 383 281 408 357 392 321 b 338 304 378 281 368 304 b 188 115 263 304 188 222 b 226 61 188 75 203 61 b 310 81 271 61 304 81 b 225 43 275 53 250 43 b 171 113 197 43 171 58 z m 188 1 b 219 -3 197 -1 208 -3 b 272 7 239 -3 256 0 l 272 17 b 219 7 256 11 239 7 b 188 11 208 7 197 8 z m 233 471 l 244 471 b 272 529 254 492 263 510 l 261 529 b 233 471 253 510 243 492 z m 318 529 b 383 643 340 575 372 628 b 693 742 486 668 607 708 l 724 708 l 700 656 b 626 679 696 656 689 679 b 318 529 563 679 422 624 z m 336 667 l 347 667 b 439 783 381 719 410 757 l 426 783 b 336 667 397 756 368 718 z m 408 247 b 471 431 408 288 443 369 b 560 603 508 515 538 571 b 625 643 582 631 601 643 b 664 624 649 643 660 631 b 593 397 683 593 665 551 b 540 293 565 339 558 319 b 439 214 519 263 467 214 b 408 247 417 214 408 224 z m 419 704 b 586 804 461 757 510 804 b 656 779 615 804 649 788 b 419 704 599 768 489 733 z m 435 317 l 444 317 b 460 351 450 329 454 340 l 450 351 b 435 317 444 340 440 329 z m 454 76 l 464 76 l 482 149 l 468 135 z m 488 11 l 651 11 l 656 21 l 490 21 z m 496 57 l 529 192 b 549 242 533 208 539 221 l 622 390 b 668 331 625 390 617 331 b 815 425 747 331 807 426 l 746 278 b 713 304 742 278 750 304 b 549 206 661 306 586 258 b 531 104 542 179 531 131 b 593 69 531 74 563 71 b 649 57 621 68 649 74 z m 569 393 l 579 393 l 583 401 b 601 440 590 415 596 428 l 592 440 l 575 406 b 569 393 574 401 571 397 z m 618 500 l 629 500 b 660 583 646 540 656 565 l 649 583 b 618 500 646 567 636 542 z m 700 1006 l 765 889 l 828 889 l 810 1006 z m 703 549 l 757 672 b 954 735 829 692 901 713 l 910 640 b 875 651 907 640 903 651 b 703 549 768 651 710 549 z m 753 979 l 779 979 l 790 918 l 786 918 z m 775 725 l 804 790 l 974 790 l 971 785 b 775 725 918 778 814 747 z "},"å":{"ha":692,"x_min":0,"x_max":0,"o":"m 219 17 b 513 218 322 17 450 151 l 500 175 l 464 31 l 661 31 l 1019 817 l 786 817 l 746 726 b 583 831 682 800 644 831 b 429 758 524 831 478 808 b 243 443 374 700 315 600 b 172 258 213 375 188 313 b 151 175 163 228 156 200 b 160 44 138 99 149 61 b 219 17 171 26 192 17 z m 160 286 l 168 286 b 211 397 181 319 194 356 l 201 397 b 160 286 185 356 171 319 z m 171 113 b 176 169 171 128 172 146 b 249 390 186 225 217 324 b 283 332 251 390 240 332 b 431 403 375 332 426 407 b 383 281 408 357 392 321 b 338 304 378 281 368 304 b 188 115 263 304 188 222 b 226 61 188 75 203 61 b 310 81 271 61 304 81 b 225 43 275 53 250 43 b 171 113 197 43 171 58 z m 188 1 b 219 -3 197 -1 208 -3 b 272 7 239 -3 256 0 l 272 17 b 219 7 256 11 239 7 b 188 11 208 7 197 8 z m 233 471 l 244 471 b 272 529 254 492 263 510 l 261 529 b 233 471 253 510 243 492 z m 318 529 b 383 643 340 575 372 628 b 693 742 486 668 607 708 l 724 708 l 700 656 b 626 679 696 656 689 679 b 318 529 563 679 422 624 z m 336 667 l 347 667 b 439 783 381 719 410 757 l 426 783 b 336 667 397 756 368 718 z m 408 247 b 471 431 408 288 443 369 b 560 603 508 515 538 571 b 625 643 582 631 601 643 b 664 624 649 643 660 631 b 593 397 683 593 665 551 b 540 293 565 339 558 319 b 439 214 519 263 467 214 b 408 247 417 214 408 224 z m 419 704 b 586 804 461 757 510 804 b 656 779 615 804 649 788 b 419 704 599 768 489 733 z m 435 317 l 444 317 b 460 351 450 329 454 340 l 450 351 b 435 317 444 340 440 329 z m 454 76 l 464 76 l 482 149 l 468 135 z m 488 11 l 651 11 l 656 21 l 490 21 z m 496 57 l 529 192 b 549 242 533 208 539 221 l 622 390 b 668 331 625 390 617 331 b 815 425 747 331 807 426 l 746 278 b 713 304 742 278 750 304 b 549 206 661 306 586 258 b 531 104 542 179 531 131 b 593 69 531 74 563 71 b 649 57 621 68 649 74 z m 569 393 l 579 393 l 583 401 b 601 440 590 415 596 428 l 592 440 l 575 406 b 569 393 574 401 571 397 z m 618 500 l 629 500 b 660 583 646 540 656 565 l 649 583 b 618 500 646 567 636 542 z m 658 943 b 776 885 658 904 701 885 b 906 951 840 885 904 900 b 797 1013 907 993 868 1013 b 658 943 733 1014 658 999 z m 674 943 b 679 964 674 951 675 957 l 690 964 b 683 943 686 958 683 951 b 686 932 683 939 685 935 l 675 932 b 674 943 674 935 674 939 z m 697 944 b 797 976 697 969 736 976 b 868 953 851 976 868 967 b 776 921 868 932 835 921 b 697 944 717 921 697 929 z m 703 549 l 757 672 b 954 735 829 692 901 713 l 910 640 b 875 651 907 640 903 651 b 703 549 768 651 710 549 z m 717 904 l 721 913 b 776 908 735 910 753 908 b 838 914 800 908 821 910 l 833 903 b 776 899 817 900 797 899 b 717 904 753 899 733 900 z m 775 725 l 804 790 l 974 790 l 971 785 b 775 725 918 778 814 747 z "},"ã":{"ha":692,"x_min":0,"x_max":0,"o":"m 219 17 b 513 218 322 17 450 151 l 500 175 l 464 31 l 661 31 l 1019 817 l 786 817 l 746 726 b 583 831 682 800 644 831 b 429 758 524 831 478 808 b 243 443 374 700 315 600 b 172 258 213 375 188 313 b 151 175 163 228 156 200 b 160 44 138 99 149 61 b 219 17 171 26 192 17 z m 160 286 l 168 286 b 211 397 181 319 194 356 l 201 397 b 160 286 185 356 171 319 z m 171 113 b 176 169 171 128 172 146 b 249 390 186 225 217 324 b 283 332 251 390 240 332 b 431 403 375 332 426 407 b 383 281 408 357 392 321 b 338 304 378 281 368 304 b 188 115 263 304 188 222 b 226 61 188 75 203 61 b 310 81 271 61 304 81 b 225 43 275 53 250 43 b 171 113 197 43 171 58 z m 188 1 b 219 -3 197 -1 208 -3 b 272 7 239 -3 256 0 l 272 17 b 219 7 256 11 239 7 b 188 11 208 7 197 8 z m 233 471 l 244 471 b 272 529 254 492 263 510 l 261 529 b 233 471 253 510 243 492 z m 318 529 b 383 643 340 575 372 628 b 693 742 486 668 607 708 l 724 708 l 700 656 b 626 679 696 656 689 679 b 318 529 563 679 422 624 z m 336 667 l 347 667 b 439 783 381 719 410 757 l 426 783 b 336 667 397 756 368 718 z m 408 247 b 471 431 408 288 443 369 b 560 603 508 515 538 571 b 625 643 582 631 601 643 b 664 624 649 643 660 631 b 593 397 683 593 665 551 b 540 293 565 339 558 319 b 439 214 519 263 467 214 b 408 247 417 214 408 224 z m 419 704 b 586 804 461 757 510 804 b 656 779 615 804 649 788 b 419 704 599 768 489 733 z m 435 317 l 444 317 b 460 351 450 329 454 340 l 450 351 b 435 317 444 340 440 329 z m 454 76 l 464 76 l 482 149 l 468 135 z m 488 11 l 651 11 l 656 21 l 490 21 z m 496 57 l 529 192 b 549 242 533 208 539 221 l 622 390 b 668 331 625 390 617 331 b 815 425 747 331 807 426 l 746 278 b 713 304 742 278 750 304 b 549 206 661 306 586 258 b 531 104 542 179 531 131 b 593 69 531 74 563 71 b 649 57 621 68 649 74 z m 569 393 l 579 393 l 583 401 b 601 440 590 415 596 428 l 592 440 l 575 406 b 569 393 574 401 571 397 z m 618 500 l 629 500 b 660 583 646 540 656 565 l 649 583 b 618 500 646 567 636 542 z m 639 889 l 713 889 l 753 957 l 776 917 b 831 889 786 900 801 889 b 903 926 864 889 882 900 l 965 1006 l 892 1006 l 844 929 l 819 971 b 771 1006 804 996 793 1006 b 703 969 743 1006 725 999 z m 682 910 l 707 942 l 717 940 l 700 910 z m 703 549 l 757 672 b 954 735 829 692 901 713 l 910 640 b 875 651 907 640 903 651 b 703 549 768 651 710 549 z m 767 979 l 785 979 l 822 915 l 811 915 z m 775 725 l 804 790 l 974 790 l 971 785 b 775 725 918 778 814 747 z m 875 944 l 904 988 l 924 988 l 889 944 z "},"b":{"ha":708,"x_min":0,"x_max":0,"o":"m 514 17 b 656 82 551 17 599 25 b 849 404 714 142 776 247 b 942 672 897 511 929 601 b 932 803 954 749 943 785 b 872 831 921 821 901 831 b 578 626 768 831 638 692 l 593 663 l 721 942 l 488 942 l 74 31 l 306 31 l 378 182 l 404 117 b 514 17 438 33 472 17 z m 111 57 l 264 390 b 306 331 267 390 254 331 b 442 403 365 331 436 403 l 382 278 b 349 304 378 278 386 304 b 160 108 263 304 160 172 b 278 57 160 53 278 86 z m 132 213 l 143 213 l 174 278 l 163 278 z m 185 11 l 296 11 l 301 21 l 190 21 z m 217 399 l 228 399 l 244 435 l 233 435 z m 263 497 l 274 497 l 333 628 l 322 628 z m 335 549 l 407 701 b 608 769 467 717 542 742 l 565 675 b 535 686 563 675 563 686 b 335 549 429 686 342 550 z m 390 217 l 539 544 b 653 633 554 578 619 633 b 683 600 675 633 683 624 b 608 385 683 568 661 500 b 458 203 543 239 519 203 b 390 217 415 203 390 217 z m 419 843 l 431 843 l 467 921 l 456 921 z m 435 758 l 506 915 l 615 915 b 497 838 615 914 497 876 b 513 828 497 832 503 828 b 671 903 560 828 635 871 l 635 829 b 435 758 588 819 489 785 z m 438 24 b 513 -3 458 6 482 -3 b 599 17 542 -3 571 3 l 604 29 b 513 7 574 11 543 7 b 443 31 483 7 463 15 z m 438 294 l 447 294 l 460 324 l 450 324 z m 456 78 b 518 58 463 78 478 58 b 639 100 576 58 626 100 b 517 43 589 50 550 43 b 456 78 497 43 476 46 z m 558 222 b 643 390 594 275 608 304 b 688 332 646 390 636 332 b 825 425 760 332 819 426 b 756 278 797 361 788 339 b 722 304 751 278 760 304 b 558 222 640 304 565 221 z m 585 383 l 594 383 l 608 413 l 599 413 z m 624 475 l 635 475 b 667 581 654 522 664 557 l 657 581 b 624 475 654 558 644 524 z m 647 731 l 663 731 b 769 811 703 767 738 793 l 751 811 b 647 731 721 792 686 765 z m 693 650 b 922 721 769 667 886 701 b 904 618 922 706 915 660 b 847 650 900 618 899 650 b 707 582 801 650 732 611 b 693 650 713 618 706 644 z m 697 701 b 868 800 758 761 824 800 b 915 769 896 800 913 788 b 697 701 856 757 788 739 z m 956 767 b 957 717 958 753 958 736 l 965 717 b 964 767 967 735 965 751 z "},"c":{"ha":672,"x_min":0,"x_max":0,"o":"m 397 17 b 786 356 604 17 710 164 l 586 356 b 443 171 508 197 479 171 b 399 222 425 171 399 182 b 482 449 400 263 428 340 b 640 661 571 628 604 661 b 685 611 669 661 688 640 b 639 469 685 583 675 547 l 836 469 b 896 661 872 535 894 603 b 676 831 903 792 804 831 b 276 522 471 831 367 704 b 196 332 243 461 214 394 b 167 192 179 278 168 226 b 397 17 164 53 261 17 z m 149 211 l 158 211 b 179 310 161 238 168 272 l 169 310 b 149 211 158 272 151 239 z m 193 192 b 236 381 194 217 204 289 b 296 332 239 381 239 332 b 436 407 376 332 431 407 b 382 269 419 369 390 304 b 336 304 378 269 381 304 b 213 182 289 304 213 281 b 396 58 213 96 268 58 b 624 135 539 58 601 135 b 399 40 560 68 475 40 b 193 192 276 40 190 69 z m 199 397 l 207 397 b 260 514 222 435 239 474 l 250 514 b 199 397 229 474 213 435 z m 283 8 b 396 -3 317 0 354 -3 b 482 6 426 -3 456 0 l 483 17 b 396 7 457 10 428 7 b 288 17 356 7 319 10 z m 288 586 l 299 586 l 318 618 l 307 618 b 288 586 300 608 294 597 z m 322 547 b 381 638 339 579 363 615 b 825 764 469 665 738 736 b 868 682 850 751 869 711 b 826 711 865 682 860 711 b 713 633 760 711 717 633 b 651 692 707 671 683 692 b 532 603 585 692 556 649 b 490 625 531 603 526 625 b 322 547 385 625 329 547 z m 349 679 l 360 679 b 465 782 393 722 426 756 l 449 782 b 349 679 413 756 379 721 z m 418 267 l 428 267 b 439 301 431 278 435 289 l 429 301 b 418 267 425 289 421 278 z m 424 697 b 679 804 451 722 551 804 b 767 794 732 804 758 797 b 424 697 689 779 551 750 z m 510 257 l 521 257 b 569 344 535 279 550 308 l 558 344 b 510 257 539 307 524 278 z m 511 14 b 547 28 524 18 536 22 l 550 40 b 513 25 538 35 525 29 z m 535 207 b 546 226 540 215 543 222 l 603 329 l 749 329 l 728 281 b 692 304 725 281 722 304 b 535 207 603 304 551 207 z m 625 485 l 636 485 b 658 542 649 513 653 524 l 649 542 b 625 485 642 524 638 513 z m 660 574 l 671 574 b 675 607 674 588 675 599 l 665 607 b 660 574 665 597 664 588 z m 674 450 l 821 450 l 825 460 l 679 460 z m 893 746 b 904 704 899 733 901 719 l 914 704 b 903 746 911 719 908 733 z "},"ć":{"ha":672,"x_min":0,"x_max":0,"o":"m 397 17 b 786 356 604 17 710 164 l 586 356 b 443 171 508 197 479 171 b 399 222 425 171 399 182 b 482 449 400 263 428 340 b 640 661 571 628 604 661 b 685 611 669 661 688 640 b 639 469 685 583 675 547 l 836 469 b 896 661 872 535 894 603 b 676 831 903 792 804 831 b 276 522 471 831 367 704 b 196 332 243 461 214 394 b 167 192 179 278 168 226 b 397 17 164 53 261 17 z m 149 211 l 158 211 b 179 310 161 238 168 272 l 169 310 b 149 211 158 272 151 239 z m 193 192 b 236 381 194 217 204 289 b 296 332 239 381 239 332 b 436 407 376 332 431 407 b 382 269 419 369 390 304 b 336 304 378 269 381 304 b 213 182 289 304 213 281 b 396 58 213 96 268 58 b 624 135 539 58 601 135 b 399 40 560 68 475 40 b 193 192 276 40 190 69 z m 199 397 l 207 397 b 260 514 222 435 239 474 l 250 514 b 199 397 229 474 213 435 z m 283 8 b 396 -3 317 0 354 -3 b 482 6 426 -3 456 0 l 483 17 b 396 7 457 10 428 7 b 288 17 356 7 319 10 z m 288 586 l 299 586 l 318 618 l 307 618 b 288 586 300 608 294 597 z m 322 547 b 381 638 339 579 363 615 b 825 764 469 665 738 736 b 868 682 850 751 869 711 b 826 711 865 682 860 711 b 713 633 760 711 717 633 b 651 692 707 671 683 692 b 532 603 585 692 556 649 b 490 625 531 603 526 625 b 322 547 385 625 329 547 z m 349 679 l 360 679 b 465 782 393 722 426 756 l 449 782 b 349 679 413 756 379 721 z m 418 267 l 428 267 b 439 301 431 278 435 289 l 429 301 b 418 267 425 289 421 278 z m 424 697 b 679 804 451 722 551 804 b 767 794 732 804 758 797 b 424 697 689 779 551 750 z m 510 257 l 521 257 b 569 344 535 279 550 308 l 558 344 b 510 257 539 307 524 278 z m 511 14 b 547 28 524 18 536 22 l 550 40 b 513 25 538 35 525 29 z m 535 207 b 546 226 540 215 543 222 l 603 329 l 749 329 l 728 281 b 692 304 725 281 722 304 b 535 207 603 304 551 207 z m 625 485 l 636 485 b 658 542 649 513 653 524 l 649 542 b 625 485 642 524 638 513 z m 660 574 l 671 574 b 675 607 674 588 675 599 l 665 607 b 660 574 665 597 664 588 z m 669 882 l 732 882 l 861 999 l 751 999 z m 674 450 l 821 450 l 825 460 l 679 460 z m 722 911 l 767 972 l 793 972 l 726 911 z m 893 746 b 904 704 899 733 901 719 l 914 704 b 903 746 911 719 908 733 z "},"č":{"ha":672,"x_min":0,"x_max":0,"o":"m 397 17 b 786 356 604 17 710 164 l 586 356 b 443 171 508 197 479 171 b 399 222 425 171 399 182 b 482 449 400 263 428 340 b 640 661 571 628 604 661 b 685 611 669 661 688 640 b 639 469 685 583 675 547 l 836 469 b 896 661 872 535 894 603 b 676 831 903 792 804 831 b 276 522 471 831 367 704 b 196 332 243 461 214 394 b 167 192 179 278 168 226 b 397 17 164 53 261 17 z m 149 211 l 158 211 b 179 310 161 238 168 272 l 169 310 b 149 211 158 272 151 239 z m 193 192 b 236 381 194 217 204 289 b 296 332 239 381 239 332 b 436 407 376 332 431 407 b 382 269 419 369 390 304 b 336 304 378 269 381 304 b 213 182 289 304 213 281 b 396 58 213 96 268 58 b 624 135 539 58 601 135 b 399 40 560 68 475 40 b 193 192 276 40 190 69 z m 199 397 l 207 397 b 260 514 222 435 239 474 l 250 514 b 199 397 229 474 213 435 z m 283 8 b 396 -3 317 0 354 -3 b 482 6 426 -3 456 0 l 483 17 b 396 7 457 10 428 7 b 288 17 356 7 319 10 z m 288 586 l 299 586 l 318 618 l 307 618 b 288 586 300 608 294 597 z m 322 547 b 381 638 339 579 363 615 b 825 764 469 665 738 736 b 868 682 850 751 869 711 b 826 711 865 682 860 711 b 713 633 760 711 717 633 b 651 692 707 671 683 692 b 532 603 585 692 556 649 b 490 625 531 603 526 625 b 322 547 385 625 329 547 z m 349 679 l 360 679 b 465 782 393 722 426 756 l 449 782 b 349 679 413 756 379 721 z m 418 267 l 428 267 b 439 301 431 278 435 289 l 429 301 b 418 267 425 289 421 278 z m 424 697 b 679 804 451 722 551 804 b 767 794 732 804 758 797 b 424 697 689 779 551 750 z m 510 257 l 521 257 b 569 344 535 279 550 308 l 558 344 b 510 257 539 307 524 278 z m 511 14 b 547 28 524 18 536 22 l 550 40 b 513 25 538 35 525 29 z m 535 207 b 546 226 540 215 543 222 l 603 329 l 749 329 l 728 281 b 692 304 725 281 722 304 b 535 207 603 304 551 207 z m 586 999 l 665 882 l 733 882 l 896 999 l 783 999 l 711 924 l 685 999 z m 625 485 l 636 485 b 658 542 649 513 653 524 l 649 542 b 625 485 642 524 638 513 z m 638 975 l 660 975 l 683 918 l 678 918 b 638 975 667 928 651 956 z m 660 574 l 671 574 b 675 607 674 588 675 599 l 665 607 b 660 574 665 597 664 588 z m 674 450 l 821 450 l 825 460 l 679 460 z m 768 950 l 794 975 l 817 975 l 782 949 z m 893 746 b 904 704 899 733 901 719 l 914 704 b 903 746 911 719 908 733 z "},"ç":{"ha":628,"x_min":0,"x_max":0,"o":"m 372 17 b 761 356 579 17 685 164 l 561 356 b 418 171 483 197 454 171 b 374 222 400 171 374 182 b 457 449 375 263 403 340 b 615 661 546 628 579 661 b 660 611 644 661 663 640 b 614 469 660 583 650 547 l 811 469 b 871 661 847 535 869 603 b 651 831 878 792 779 831 b 251 522 446 831 342 704 b 171 332 218 461 189 394 b 142 192 154 278 143 226 b 288 22 139 83 197 38 l 232 -85 l 278 -97 b 333 -85 297 -87 314 -85 b 307 -137 376 -85 367 -137 b 206 -104 265 -137 231 -121 l 178 -168 b 286 -193 224 -189 250 -193 b 418 -99 376 -193 418 -150 b 347 -37 418 -51 381 -37 b 289 -49 325 -37 306 -42 l 325 18 b 372 17 340 17 356 17 z m 124 211 l 133 211 b 154 310 136 238 143 272 l 144 310 b 124 211 133 272 126 239 z m 168 192 b 211 381 169 217 179 289 b 271 332 214 381 214 332 b 411 407 351 332 406 407 b 357 269 394 369 365 304 b 311 304 353 269 356 304 b 188 182 264 304 188 281 b 371 58 188 96 243 58 b 599 135 514 58 576 135 b 374 40 535 68 450 40 b 168 192 251 40 165 69 z m 174 397 l 182 397 b 235 514 197 435 214 474 l 225 514 b 174 397 204 474 188 435 z m 208 -162 l 214 -150 b 253 -161 225 -154 238 -158 l 246 -174 b 208 -162 233 -171 221 -168 z m 263 586 l 274 586 l 293 618 l 282 618 b 263 586 275 608 269 597 z m 276 -176 l 282 -164 l 301 -164 b 397 -125 374 -164 389 -124 b 294 -176 385 -156 351 -176 z m 278 -79 b 338 -58 282 -71 297 -58 b 376 -112 383 -58 396 -97 b 333 -68 382 -87 367 -68 b 278 -79 314 -68 297 -71 z m 297 547 b 356 638 314 579 338 615 b 800 764 444 665 713 736 b 843 682 825 751 844 711 b 801 711 840 682 835 711 b 688 633 735 711 692 633 b 626 692 682 671 658 692 b 507 603 560 692 531 649 b 465 625 506 603 501 625 b 297 547 360 625 304 547 z m 324 679 l 335 679 b 440 782 368 722 401 756 l 424 782 b 324 679 388 756 354 721 z m 339 -3 l 371 -3 b 457 6 401 -3 431 0 l 458 17 b 371 7 432 10 403 7 l 343 7 z m 393 267 l 403 267 b 414 301 406 278 410 289 l 404 301 b 393 267 400 289 396 278 z m 399 697 b 654 804 426 722 526 804 b 742 794 707 804 733 797 b 399 697 664 779 526 750 z m 485 257 l 496 257 b 544 344 510 279 525 308 l 533 344 b 485 257 514 307 499 278 z m 486 14 b 522 28 499 18 511 22 l 525 40 b 488 25 513 35 500 29 z m 510 207 b 521 226 515 215 518 222 l 578 329 l 724 329 l 703 281 b 667 304 700 281 697 304 b 510 207 578 304 526 207 z m 600 485 l 611 485 b 633 542 624 513 628 524 l 624 542 b 600 485 617 524 613 513 z m 635 574 l 646 574 b 650 607 649 588 650 599 l 640 607 b 635 574 640 597 639 588 z m 649 450 l 796 450 l 800 460 l 654 460 z m 868 746 b 879 704 874 733 876 719 l 889 704 b 878 746 886 719 883 733 z "},"d":{"ha":700,"x_min":0,"x_max":0,"o":"m 213 17 b 517 222 324 17 457 158 l 457 31 l 654 31 l 1069 942 l 836 942 l 739 726 b 576 831 739 726 679 831 b 422 758 517 831 471 808 b 236 443 367 700 308 599 b 144 175 188 336 157 246 b 213 17 129 88 135 17 z m 131 213 l 139 213 b 150 251 142 225 146 238 l 142 251 b 131 213 138 238 133 225 z m 164 113 b 169 169 164 128 165 146 b 242 390 179 225 210 324 b 289 331 244 390 239 331 b 424 403 365 331 418 403 b 376 281 401 357 385 321 b 331 304 371 281 361 304 b 181 115 256 304 181 222 b 219 61 181 75 196 61 b 303 81 264 61 297 81 b 218 43 268 53 243 43 b 164 113 190 43 164 58 z m 171 4 b 213 -3 183 0 197 -3 b 275 10 235 -3 256 1 l 276 21 b 213 7 257 13 235 7 b 175 13 199 7 186 10 z m 210 433 l 219 433 b 226 447 222 438 224 443 b 238 469 231 454 233 463 l 226 469 b 218 451 224 464 221 457 z m 269 558 l 279 558 b 344 675 303 603 324 642 l 335 675 b 269 558 314 642 293 603 z m 308 529 b 374 643 331 575 363 628 b 686 742 476 668 600 708 l 717 708 l 693 656 b 619 679 689 656 682 679 b 308 529 556 679 413 624 z m 360 714 l 371 714 b 429 781 392 740 410 763 l 415 781 b 360 714 397 763 379 740 z m 408 247 b 464 431 408 281 436 369 b 553 603 501 515 531 571 b 618 643 575 631 594 643 b 664 597 646 643 664 625 b 586 397 664 565 640 513 b 532 290 553 328 547 317 b 439 214 513 258 467 214 b 408 247 417 214 408 224 z m 413 704 b 579 804 454 757 503 804 b 649 779 608 804 642 788 b 413 704 592 768 482 733 z m 431 317 l 440 317 l 453 351 l 443 351 z m 454 93 l 464 93 l 481 147 l 467 133 z m 483 11 l 644 11 l 650 21 l 489 21 z m 493 57 l 539 233 l 614 390 b 660 332 621 390 600 332 b 807 425 744 332 799 425 l 739 278 b 706 304 735 278 743 304 b 551 222 654 304 589 274 b 528 104 544 196 528 131 b 586 69 528 74 560 71 b 635 57 607 68 635 74 z m 544 356 l 554 356 l 576 401 b 582 414 579 406 581 410 l 572 414 b 568 406 571 411 569 408 z m 588 449 l 599 449 b 640 546 617 489 631 521 l 631 546 b 588 449 621 522 607 489 z m 686 549 l 758 701 b 961 769 818 717 894 742 l 918 675 b 888 686 915 675 915 686 b 686 549 782 686 693 550 z m 768 839 l 779 839 l 817 921 l 806 921 z m 786 758 l 857 915 l 967 915 b 849 838 967 914 849 876 b 864 828 849 832 854 828 b 1022 903 911 828 986 871 l 986 829 b 786 758 939 819 840 785 z "},"ð":{"ha":682,"x_min":0,"x_max":0,"o":"m 367 17 b 779 326 551 17 664 118 b 890 676 854 457 890 560 b 804 928 890 786 850 868 l 800 933 l 901 960 l 893 1000 l 765 967 b 721 1011 746 988 725 1007 l 531 1011 b 607 928 554 989 582 960 l 508 901 l 517 861 l 632 893 b 685 786 653 867 676 822 b 249 521 493 797 371 743 b 143 228 175 392 149 297 b 367 17 133 78 208 17 z m 122 211 l 132 211 b 133 228 133 217 133 222 b 171 379 138 271 147 319 l 160 379 b 124 229 138 321 128 271 b 122 211 124 224 124 218 z m 171 229 b 207 381 172 288 188 343 b 265 332 210 381 208 332 b 403 407 340 332 397 407 b 343 269 385 369 353 304 b 296 304 339 269 340 304 b 194 203 229 304 196 249 b 369 58 190 110 261 58 b 608 135 499 58 586 133 b 372 40 543 68 435 40 b 171 229 256 40 165 88 z m 204 478 l 215 478 b 235 515 221 490 228 503 l 224 515 b 204 478 217 503 210 490 z m 269 8 b 367 -3 297 1 331 -3 b 528 29 426 -3 481 10 l 529 40 b 367 7 481 18 428 7 b 272 17 332 7 300 10 z m 283 532 b 622 761 325 608 426 761 b 433 663 556 744 432 700 b 449 649 433 654 439 649 b 588 694 485 649 535 686 b 500 597 538 663 515 625 b 461 619 496 597 499 619 b 283 532 372 619 290 532 z m 356 699 l 368 699 b 433 747 389 718 411 735 l 415 747 b 356 699 394 733 375 718 z m 361 218 b 453 449 364 261 393 336 b 556 624 496 531 529 589 b 624 668 575 646 594 668 b 578 396 715 668 647 524 b 469 217 531 310 496 251 b 403 171 450 193 431 171 b 361 218 374 171 358 194 z m 406 328 l 417 328 b 438 375 422 342 429 358 l 426 375 b 406 328 418 358 411 342 z m 503 222 b 601 390 543 275 560 304 b 642 332 604 390 590 332 b 801 425 714 332 796 426 b 719 278 769 361 756 339 b 688 304 715 278 725 304 b 503 222 606 304 510 221 z m 510 1004 b 564 950 528 988 546 969 l 574 953 b 522 1004 557 971 539 989 z m 540 368 l 551 368 b 568 399 557 378 563 388 b 585 431 574 410 579 421 l 575 431 b 560 403 569 422 565 413 b 540 368 553 390 547 379 z m 600 978 b 692 954 619 979 642 961 l 632 939 b 600 978 621 953 610 965 z m 606 496 l 615 496 b 654 603 639 546 650 581 l 644 603 b 606 496 640 581 629 546 z m 626 869 b 651 825 636 854 644 839 l 661 825 b 636 872 654 840 646 856 z m 638 703 l 638 704 b 853 768 719 724 778 744 b 864 671 861 738 863 700 b 810 697 861 671 843 697 b 699 622 743 697 703 622 b 638 703 704 665 686 700 z m 660 900 l 765 929 b 704 883 769 919 704 904 b 757 853 704 861 732 851 b 810 872 775 854 793 863 l 832 831 b 711 796 793 819 747 806 b 660 900 693 842 679 871 z m 869 836 b 883 796 875 824 879 810 l 893 799 b 878 840 888 814 883 826 z "},"đ":{"ha":701,"x_min":0,"x_max":0,"o":"m 210 17 b 517 222 324 17 457 158 l 457 31 l 651 31 l 1024 847 l 1056 847 l 1074 885 l 1042 885 l 1067 942 l 833 942 l 807 885 l 765 885 l 749 850 l 790 850 l 736 726 b 574 831 736 726 676 831 b 419 758 514 831 468 808 b 233 443 364 700 306 599 b 142 175 185 336 154 246 b 210 17 126 88 132 17 z m 128 213 l 136 213 b 147 251 139 225 143 238 l 139 251 b 128 213 135 238 131 225 z m 161 113 b 167 169 161 128 163 146 b 239 390 176 225 207 324 b 286 331 242 390 236 331 b 421 403 363 331 415 403 b 374 281 399 357 382 321 b 328 304 368 281 358 304 b 178 115 253 304 178 222 b 217 61 178 75 193 61 b 300 81 261 61 294 81 b 215 43 265 53 240 43 b 161 113 188 43 161 58 z m 168 4 b 210 -3 181 0 194 -3 b 272 10 232 -3 253 1 l 274 21 b 210 7 254 13 232 7 b 172 13 196 7 183 10 z m 207 433 l 217 433 b 224 447 219 438 221 443 b 235 469 228 454 231 463 l 224 469 b 215 451 221 464 218 457 z m 267 558 l 276 558 b 342 675 300 603 321 642 l 332 675 b 267 558 311 642 290 603 z m 293 21 l 314 35 l 314 46 b 293 32 307 40 300 36 z m 306 529 b 371 643 328 575 360 628 b 683 742 474 668 597 708 l 714 708 l 690 656 b 617 679 686 656 679 679 b 306 529 553 679 410 624 z m 357 714 l 368 714 b 426 781 389 740 407 763 l 413 781 b 357 714 394 763 376 740 z m 399 247 b 461 431 399 289 433 369 b 550 603 499 515 528 571 b 615 643 572 631 592 643 b 661 597 643 643 661 625 b 583 397 661 565 636 513 b 532 290 551 328 547 318 b 429 214 514 257 467 214 b 399 247 407 214 399 224 z m 410 704 b 576 804 451 757 500 804 b 646 779 606 804 639 788 b 410 704 589 768 479 733 z m 424 317 l 433 317 b 449 351 439 329 443 340 l 439 351 b 424 317 433 340 429 329 z m 457 93 l 465 93 l 488 163 l 486 163 l 475 149 z m 481 11 l 642 11 l 647 21 l 486 21 z m 490 57 l 536 233 l 611 390 b 657 332 618 390 597 332 b 804 425 742 332 796 425 l 736 278 b 703 304 732 278 740 304 b 549 222 651 304 586 274 b 525 104 542 196 525 131 b 583 69 525 74 557 71 b 632 57 604 68 632 74 z m 542 356 l 551 356 l 574 401 b 579 414 576 406 578 410 l 569 414 b 565 406 568 411 567 408 z m 585 449 l 596 449 b 638 546 614 489 628 521 l 628 546 b 585 449 618 522 604 489 z m 683 549 l 756 701 b 958 769 815 717 892 742 l 915 675 b 885 686 913 675 913 686 b 683 549 779 686 690 550 z m 783 758 l 854 915 l 964 915 b 846 838 964 914 846 876 b 861 828 846 832 851 828 b 1019 903 908 828 983 871 l 983 829 b 783 758 936 819 838 785 z "},"e":{"ha":632,"x_min":0,"x_max":0,"o":"m 389 18 b 771 353 561 18 669 113 l 565 353 b 432 171 504 201 469 171 b 385 222 404 171 383 192 b 467 443 386 258 403 306 l 475 461 l 822 461 b 888 663 854 515 886 594 b 839 783 890 714 875 756 b 676 831 804 814 747 831 b 443 756 582 831 508 807 b 268 524 381 708 326 635 l 268 522 b 172 228 192 382 175 285 b 226 68 171 157 188 104 b 389 18 263 35 318 18 z m 151 213 l 161 213 l 161 228 b 164 256 161 236 163 246 l 154 256 b 151 228 153 246 151 236 z m 158 290 l 168 290 b 207 417 175 326 188 368 l 197 417 b 158 290 178 368 165 326 z m 197 228 b 226 381 197 278 217 347 b 283 331 229 381 231 331 b 424 407 361 331 411 396 b 369 269 397 344 371 297 b 315 304 365 269 365 304 b 226 201 249 304 226 256 b 390 58 226 101 292 58 b 611 135 526 58 589 133 b 388 40 547 68 464 40 b 244 88 321 40 276 58 b 197 228 211 118 197 165 z m 228 486 l 239 486 b 258 526 244 500 251 513 b 283 572 267 543 275 558 l 272 572 b 250 531 265 560 257 546 b 228 486 242 515 235 501 z m 292 8 b 388 -3 321 1 353 -3 b 476 7 419 -3 449 1 l 478 17 b 388 7 450 11 419 7 b 297 18 354 7 324 11 z m 303 529 b 369 638 318 560 361 625 b 581 697 407 647 483 669 b 519 603 556 669 533 631 b 482 625 515 603 513 625 b 303 529 376 625 308 529 z m 368 714 l 381 714 b 460 782 406 740 432 764 l 443 782 b 368 714 417 763 392 740 z m 410 286 l 419 286 b 431 314 422 294 426 304 l 421 314 b 410 286 417 304 413 294 z m 424 703 b 675 804 444 722 547 804 b 763 794 710 804 754 796 b 424 703 686 782 546 749 z m 493 500 l 515 544 b 586 664 546 606 569 642 b 643 697 610 694 629 697 b 689 650 669 697 690 678 b 640 519 688 629 681 601 l 631 500 z m 508 275 l 519 275 b 550 342 529 293 539 315 l 539 342 b 508 275 528 315 518 293 z m 510 15 b 546 31 522 19 533 25 l 547 42 b 513 28 536 36 525 32 z m 524 207 b 535 226 529 215 532 222 l 585 329 l 736 329 l 715 281 b 679 304 713 281 710 304 b 524 207 583 304 538 207 z m 538 442 l 599 442 l 604 451 l 543 451 z m 538 563 l 547 563 b 561 586 551 571 557 579 l 550 586 b 538 563 546 579 542 571 z m 647 585 l 658 585 b 678 646 672 617 676 633 l 668 646 b 647 585 667 635 661 618 z m 651 442 l 810 442 l 815 451 l 656 451 z m 660 718 b 815 767 719 736 781 753 b 863 682 846 756 864 711 b 818 711 860 682 854 711 b 710 633 751 711 714 633 b 660 718 717 669 710 710 z m 882 746 b 896 699 889 732 893 717 l 906 699 b 893 746 903 717 899 732 z "},"é":{"ha":668,"x_min":0,"x_max":0,"o":"m 397 18 b 779 353 569 18 678 113 l 574 353 b 440 171 513 201 478 171 b 393 222 413 171 392 192 b 475 443 394 258 411 306 l 483 461 l 831 461 b 896 663 863 515 894 594 b 847 783 899 714 883 756 b 685 831 813 814 756 831 b 451 756 590 831 517 807 b 276 524 389 708 335 635 l 276 522 b 181 228 200 382 183 285 b 235 68 179 157 196 104 b 397 18 271 35 326 18 z m 160 213 l 169 213 l 169 228 b 172 256 169 236 171 246 l 163 256 b 160 228 161 246 160 236 z m 167 290 l 176 290 b 215 417 183 326 196 368 l 206 417 b 167 290 186 368 174 326 z m 206 228 b 235 381 206 278 225 347 b 292 331 238 381 239 331 b 432 407 369 331 419 396 b 378 269 406 344 379 297 b 324 304 374 269 374 304 b 235 201 257 304 235 256 b 399 58 235 101 300 58 b 619 135 535 58 597 133 b 396 40 556 68 472 40 b 253 88 329 40 285 58 b 206 228 219 118 206 165 z m 236 486 l 247 486 b 267 526 253 500 260 513 b 292 572 275 543 283 558 l 281 572 b 258 531 274 560 265 546 b 236 486 250 515 243 501 z m 300 8 b 396 -3 329 1 361 -3 b 485 7 428 -3 457 1 l 486 17 b 396 7 458 11 428 7 b 306 18 363 7 332 11 z m 311 529 b 378 638 326 560 369 625 b 589 697 415 647 492 669 b 528 603 564 669 542 631 b 490 625 524 603 521 625 b 311 529 385 625 317 529 z m 376 714 l 389 714 b 468 782 414 740 440 764 l 451 782 b 376 714 425 763 400 740 z m 418 286 l 428 286 b 439 314 431 294 435 304 l 429 314 b 418 286 425 304 421 294 z m 432 703 b 683 804 453 722 556 804 b 771 794 718 804 763 796 b 432 703 694 782 554 749 z m 501 500 l 524 544 b 594 664 554 606 578 642 b 651 697 618 694 638 697 b 697 650 678 697 699 678 b 649 519 696 629 689 601 l 639 500 z m 517 275 l 528 275 b 558 342 538 293 547 315 l 547 342 b 517 275 536 315 526 293 z m 518 15 b 554 31 531 19 542 25 l 556 42 b 521 28 544 36 533 32 z m 532 207 b 543 226 538 215 540 222 l 593 329 l 744 329 l 724 281 b 688 304 721 281 718 304 b 532 207 593 304 549 207 z m 546 442 l 607 442 l 613 451 l 551 451 z m 546 563 l 556 563 b 569 586 560 571 565 579 l 558 586 b 546 563 554 579 550 571 z m 656 585 l 667 585 b 686 646 681 617 685 633 l 676 646 b 656 585 675 635 669 618 z m 660 442 l 818 442 l 824 451 l 664 451 z m 663 882 l 725 882 l 854 999 l 744 999 z m 668 718 b 824 767 726 735 788 751 b 871 682 854 756 872 711 b 826 711 868 682 863 711 b 718 633 760 711 722 633 b 668 718 725 669 718 710 z m 715 911 l 760 972 l 786 972 l 719 911 z m 890 746 b 904 699 897 732 901 717 l 914 699 b 901 746 911 717 907 732 z "},"ě":{"ha":668,"x_min":0,"x_max":0,"o":"m 397 18 b 779 353 569 18 678 113 l 574 353 b 440 171 513 201 478 171 b 393 222 413 171 392 192 b 475 443 394 258 411 306 l 483 461 l 831 461 b 896 663 863 515 894 594 b 847 783 899 714 883 756 b 685 831 813 814 756 831 b 451 756 590 831 517 807 b 276 524 389 708 335 635 l 276 522 b 181 228 200 382 183 285 b 235 68 179 157 196 104 b 397 18 271 35 326 18 z m 160 213 l 169 213 l 169 228 b 172 256 169 236 171 246 l 163 256 b 160 228 161 246 160 236 z m 167 290 l 176 290 b 215 417 183 326 196 368 l 206 417 b 167 290 186 368 174 326 z m 206 228 b 235 381 206 278 225 347 b 292 331 238 381 239 331 b 432 407 369 331 419 396 b 378 269 406 344 379 297 b 324 304 374 269 374 304 b 235 201 257 304 235 256 b 399 58 235 101 300 58 b 619 135 535 58 597 133 b 396 40 556 68 472 40 b 253 88 329 40 285 58 b 206 228 219 118 206 165 z m 236 486 l 247 486 b 267 526 253 500 260 513 b 292 572 275 543 283 558 l 281 572 b 258 531 274 560 265 546 b 236 486 250 515 243 501 z m 300 8 b 396 -3 329 1 361 -3 b 485 7 428 -3 457 1 l 486 17 b 396 7 458 11 428 7 b 306 18 363 7 332 11 z m 311 529 b 378 638 326 560 369 625 b 589 697 415 647 492 669 b 528 603 564 669 542 631 b 490 625 524 603 521 625 b 311 529 385 625 317 529 z m 376 714 l 389 714 b 468 782 414 740 440 764 l 451 782 b 376 714 425 763 400 740 z m 418 286 l 428 286 b 439 314 431 294 435 304 l 429 314 b 418 286 425 304 421 294 z m 432 703 b 683 804 453 722 556 804 b 771 794 718 804 763 796 b 432 703 694 782 554 749 z m 501 500 l 524 544 b 594 664 554 606 578 642 b 651 697 618 694 638 697 b 697 650 678 697 699 678 b 649 519 696 629 689 601 l 639 500 z m 517 275 l 528 275 b 558 342 538 293 547 315 l 547 342 b 517 275 536 315 526 293 z m 518 15 b 554 31 531 19 542 25 l 556 42 b 521 28 544 36 533 32 z m 532 207 b 543 226 538 215 540 222 l 593 329 l 744 329 l 724 281 b 688 304 721 281 718 304 b 532 207 593 304 549 207 z m 546 442 l 607 442 l 613 451 l 551 451 z m 546 563 l 556 563 b 569 586 560 571 565 579 l 558 586 b 546 563 554 579 550 571 z m 607 999 l 686 882 l 754 882 l 917 999 l 804 999 l 732 924 l 706 999 z m 656 585 l 667 585 b 686 646 681 617 685 633 l 676 646 b 656 585 675 635 669 618 z m 658 975 l 681 975 l 704 918 l 699 918 b 658 975 688 928 672 956 z m 660 442 l 818 442 l 824 451 l 664 451 z m 668 718 b 824 767 726 735 788 751 b 871 682 854 756 872 711 b 826 711 868 682 863 711 b 718 633 760 711 722 633 b 668 718 725 669 718 710 z m 789 950 l 815 975 l 838 975 l 803 949 z m 890 746 b 904 699 897 732 901 717 l 914 699 b 901 746 911 717 907 732 z "},"ê":{"ha":624,"x_min":0,"x_max":0,"o":"m 372 18 b 754 353 544 18 653 113 l 549 353 b 415 171 488 201 453 171 b 368 222 388 171 367 192 b 450 443 369 258 386 306 l 458 461 l 806 461 b 871 663 838 515 869 594 b 822 783 874 714 858 756 b 660 831 788 814 731 831 b 426 756 565 831 492 807 b 251 524 364 708 310 635 l 251 522 b 156 228 175 382 158 285 b 210 68 154 157 171 104 b 372 18 246 35 301 18 z m 135 213 l 144 213 l 144 228 b 147 256 144 236 146 246 l 138 256 b 135 228 136 246 135 236 z m 142 290 l 151 290 b 190 417 158 326 171 368 l 181 417 b 142 290 161 368 149 326 z m 181 228 b 210 381 181 278 200 347 b 267 331 213 381 214 331 b 407 407 344 331 394 396 b 353 269 381 344 354 297 b 299 304 349 269 349 304 b 210 201 232 304 210 256 b 374 58 210 101 275 58 b 594 135 510 58 572 133 b 371 40 531 68 447 40 b 228 88 304 40 260 58 b 181 228 194 118 181 165 z m 211 486 l 222 486 b 242 526 228 500 235 513 b 267 572 250 543 258 558 l 256 572 b 233 531 249 560 240 546 b 211 486 225 515 218 501 z m 275 8 b 371 -3 304 1 336 -3 b 460 7 403 -3 432 1 l 461 17 b 371 7 433 11 403 7 b 281 18 338 7 307 11 z m 286 529 b 353 638 301 560 344 625 b 564 697 390 647 467 669 b 503 603 539 669 517 631 b 465 625 499 603 496 625 b 286 529 360 625 292 529 z m 351 714 l 364 714 b 443 782 389 740 415 764 l 426 782 b 351 714 400 763 375 740 z m 393 286 l 403 286 b 414 314 406 294 410 304 l 404 314 b 393 286 400 304 396 294 z m 407 703 b 658 804 428 722 531 804 b 746 794 693 804 738 796 b 407 703 669 782 529 749 z m 476 500 l 499 544 b 569 664 529 606 553 642 b 626 697 593 694 613 697 b 672 650 653 697 674 678 b 624 519 671 629 664 601 l 614 500 z m 492 275 l 503 275 b 533 342 513 293 522 315 l 522 342 b 492 275 511 315 501 293 z m 493 15 b 529 31 506 19 517 25 l 531 42 b 496 28 519 36 508 32 z m 507 207 b 518 226 513 215 515 222 l 568 329 l 719 329 l 699 281 b 663 304 696 281 693 304 b 507 207 568 304 524 207 z m 521 442 l 582 442 l 588 451 l 526 451 z m 521 563 l 531 563 b 544 586 535 571 540 579 l 533 586 b 521 563 529 579 525 571 z m 539 889 l 660 889 l 729 969 l 758 889 l 849 889 l 769 1006 l 701 1006 z m 618 913 b 692 969 642 932 672 960 l 697 969 l 640 913 z m 631 585 l 642 585 b 661 646 656 617 660 633 l 651 646 b 631 585 650 635 644 618 z m 635 442 l 793 442 l 799 451 l 639 451 z m 643 718 b 799 767 701 735 763 751 b 846 682 829 756 847 711 b 801 711 843 682 838 711 b 693 633 735 711 697 633 b 643 718 700 669 693 710 z m 767 938 l 782 939 b 801 913 789 929 796 921 l 779 913 z m 865 746 b 879 699 872 732 876 717 l 889 699 b 876 746 886 717 882 732 z "},"ë":{"ha":628,"x_min":0,"x_max":0,"o":"m 371 18 b 753 353 543 18 651 113 l 547 353 b 414 171 486 201 451 171 b 367 222 386 171 365 192 b 449 443 368 258 385 306 l 457 461 l 804 461 b 869 663 836 515 868 594 b 821 783 872 714 857 756 b 658 831 786 814 729 831 b 425 756 564 831 490 807 b 250 524 363 708 308 635 l 250 522 b 154 228 174 382 157 285 b 208 68 153 157 169 104 b 371 18 244 35 300 18 z m 133 213 l 143 213 l 143 228 b 146 256 143 236 144 246 l 136 256 b 133 228 135 246 133 236 z m 140 290 l 150 290 b 189 417 157 326 169 368 l 179 417 b 140 290 160 368 147 326 z m 179 228 b 208 381 179 278 199 347 b 265 331 211 381 213 331 b 406 407 343 331 393 396 b 351 269 379 344 353 297 b 297 304 347 269 347 304 b 208 201 231 304 208 256 b 372 58 208 101 274 58 b 593 135 508 58 571 133 b 369 40 529 68 446 40 b 226 88 303 40 258 58 b 179 228 193 118 179 165 z m 210 486 l 221 486 b 240 526 226 500 233 513 b 265 572 249 543 257 558 l 254 572 b 232 531 247 560 239 546 b 210 486 224 515 217 501 z m 274 8 b 369 -3 303 1 335 -3 b 458 7 401 -3 431 1 l 460 17 b 369 7 432 11 401 7 b 279 18 336 7 306 11 z m 285 529 b 351 638 300 560 343 625 b 563 697 389 647 465 669 b 501 603 538 669 515 631 b 464 625 497 603 494 625 b 285 529 358 625 290 529 z m 350 714 l 363 714 b 442 782 388 740 414 764 l 425 782 b 350 714 399 763 374 740 z m 392 286 l 401 286 b 413 314 404 294 408 304 l 403 314 b 392 286 399 304 394 294 z m 406 703 b 657 804 426 722 529 804 b 744 794 692 804 736 796 b 406 703 668 782 528 749 z m 407 889 l 643 889 l 672 954 l 436 954 z m 447 915 l 453 928 l 497 928 l 492 915 z m 475 500 l 497 544 b 568 664 528 606 551 642 b 625 697 592 694 611 697 b 671 650 651 697 672 678 b 622 519 669 629 663 601 l 613 500 z m 490 275 l 501 275 b 532 342 511 293 521 315 l 521 342 b 490 275 510 315 500 293 z m 492 15 b 528 31 504 19 515 25 l 529 42 b 494 28 518 36 507 32 z m 506 207 b 517 226 511 215 514 222 l 567 329 l 718 329 l 697 281 b 661 304 694 281 692 304 b 506 207 567 304 522 207 z m 518 915 l 524 928 l 632 928 l 626 915 z m 519 442 l 581 442 l 586 451 l 525 451 z m 519 563 l 529 563 b 543 586 533 571 539 579 l 532 586 b 519 563 528 579 524 571 z m 629 585 l 640 585 b 660 646 654 617 658 633 l 650 646 b 629 585 649 635 643 618 z m 633 442 l 792 442 l 797 451 l 638 451 z m 642 718 b 797 767 700 735 761 751 b 844 682 828 756 846 711 b 800 711 842 682 836 711 b 692 633 733 711 696 633 b 642 718 699 669 692 710 z m 699 889 l 935 889 l 964 954 l 728 954 z m 739 915 l 744 928 l 924 928 l 918 915 z m 864 746 b 878 699 871 732 875 717 l 888 699 b 875 746 885 717 881 732 z "}}}
